{"glyphs":{"0":{"ha":917,"x_min":124,"x_max":793,"o":"m 367 -1 q 191 55 258 -1 q 124 229 124 111 l 124 794 q 192 966 124 906 q 367 1026 260 1026 l 557 1026 q 735 964 678 1026 q 793 794 793 901 l 793 229 q 731 54 793 110 q 557 -1 668 -1 l 367 -1 m 549 51 q 736 233 736 51 l 736 792 q 689 928 736 882 q 550 975 642 975 l 372 975 q 232 926 283 975 q 181 792 181 878 l 181 235 q 232 98 181 144 q 374 51 283 51 l 549 51 z "},"1":{"ha":496,"x_min":71,"x_max":354,"o":"m 297 969 l 71 893 l 71 931 l 300 1029 l 354 1029 l 354 0 l 297 0 l 297 969 z "},"2":{"ha":828,"x_min":82,"x_max":753,"o":"m 82 49 l 479 424 q 617 592 578 515 q 656 771 656 669 q 599 920 656 867 q 396 974 543 974 l 125 974 l 125 1015 l 174 1018 q 411 1026 318 1026 q 643 959 574 1026 q 713 774 713 892 q 669 579 713 665 q 521 393 625 493 l 163 54 l 753 54 l 753 0 l 82 0 l 82 49 z "},"3":{"ha":818,"x_min":65,"x_max":700,"o":"m 424 -8 q 65 3 201 -8 l 65 44 l 410 44 q 578 85 515 44 q 642 232 642 126 l 642 313 q 582 442 642 401 q 440 485 522 482 l 174 496 l 174 533 l 439 543 q 626 700 626 550 l 626 788 q 568 925 626 876 q 400 974 510 974 l 106 974 l 106 1015 q 418 1026 221 1026 q 617 963 550 1026 q 683 794 683 899 l 683 701 q 656 597 683 638 q 592 537 628 556 q 525 514 556 518 q 599 486 558 508 q 669 419 639 464 q 700 310 700 375 l 700 226 q 628 52 700 113 q 424 -8 556 -8 z "},"4":{"ha":807,"x_min":39,"x_max":771,"o":"m 556 285 l 57 285 l 39 325 l 453 1018 l 511 1018 l 103 335 l 556 335 l 556 647 l 571 729 l 613 729 l 613 335 l 771 335 l 771 296 l 613 285 l 613 3 l 556 3 l 556 285 z "},"5":{"ha":893,"x_min":135,"x_max":790,"o":"m 488 -6 q 135 4 240 -6 l 135 46 l 486 46 q 663 97 593 46 q 733 242 733 149 l 733 378 q 681 510 733 463 q 526 557 628 557 l 403 557 q 225 418 251 557 l 172 418 l 201 1018 l 760 1018 l 760 967 l 253 967 l 231 518 q 294 581 247 554 q 411 607 340 607 l 539 607 q 724 545 657 607 q 790 385 790 483 l 790 233 q 706 56 790 118 q 488 -6 621 -6 z "},"6":{"ha":878,"x_min":115,"x_max":774,"o":"m 383 -3 q 239 42 297 -3 q 148 201 181 88 q 115 517 115 315 q 206 899 115 772 q 463 1026 296 1026 q 713 1017 540 1026 l 713 975 l 454 975 q 247 866 322 975 q 172 543 172 757 q 328 551 239 549 q 482 554 418 554 q 699 510 624 554 q 774 351 774 465 l 774 210 q 710 48 774 99 q 546 -3 646 -3 l 383 -3 m 539 50 q 669 85 621 50 q 718 213 718 119 l 718 346 q 658 471 718 439 q 475 503 599 503 l 172 503 q 198 228 172 328 q 270 90 224 129 q 389 50 317 50 l 539 50 z "},"7":{"ha":747,"x_min":53,"x_max":681,"o":"m 611 961 l 53 961 l 53 1018 l 654 1018 l 681 979 l 289 0 l 224 0 l 611 961 z "},"8":{"ha":904,"x_min":132,"x_max":774,"o":"m 368 -1 q 194 47 256 -1 q 132 190 132 94 l 132 340 q 176 458 132 415 q 272 514 221 501 q 181 588 210 540 q 151 694 151 635 l 151 813 q 210 974 151 922 q 367 1025 268 1025 l 557 1025 q 704 974 654 1025 q 754 813 754 924 l 754 694 q 724 591 754 639 q 643 526 693 543 q 740 467 706 515 q 774 351 774 418 l 774 190 q 717 47 774 94 q 556 -1 660 -1 l 368 -1 m 540 544 q 658 589 618 544 q 699 689 699 633 l 699 803 q 663 935 699 896 q 550 975 626 975 l 374 975 q 247 934 285 975 q 208 803 208 893 l 208 689 q 250 585 208 626 q 372 544 292 544 l 540 544 m 549 50 q 717 192 717 50 l 717 343 q 677 460 717 426 q 540 494 638 494 l 372 494 q 292 479 335 494 q 219 430 250 464 q 189 343 189 396 l 189 192 q 240 84 189 118 q 374 50 290 50 l 549 50 z "},"9":{"ha":878,"x_min":106,"x_max":764,"o":"m 418 -6 q 167 4 339 -6 l 167 46 l 425 46 q 632 155 557 46 q 707 478 707 264 q 552 469 642 472 q 397 467 463 467 q 181 511 256 467 q 106 669 106 556 l 106 811 q 169 972 106 922 q 333 1022 233 1022 l 497 1022 q 641 978 583 1022 q 731 819 699 933 q 764 504 764 706 q 674 122 764 249 q 418 -6 585 -6 m 707 518 q 682 792 707 693 q 610 931 657 892 q 492 971 564 971 l 340 971 q 210 936 258 971 q 161 808 161 901 l 161 675 q 221 550 161 582 q 404 518 281 518 l 707 518 z "},"\r":{"ha":385,"x_min":0,"x_max":0,"o":""}," ":{"ha":385,"x_min":0,"x_max":0,"o":""},"A":{"ha":929,"x_min":61,"x_max":868,"o":"m 426 1018 l 503 1018 l 868 0 l 807 0 l 686 335 l 242 335 l 121 0 l 61 0 l 426 1018 m 668 388 l 464 965 l 256 388 l 668 388 z "},"Á":{"ha":929,"x_min":61,"x_max":868,"o":"m 426 1018 l 503 1018 l 868 0 l 807 0 l 686 335 l 242 335 l 121 0 l 61 0 l 426 1018 m 668 388 l 464 965 l 256 388 l 668 388 m 613 1285 l 667 1285 l 485 1099 l 451 1099 l 613 1285 z "},"Ă":{"ha":929,"x_min":61,"x_max":868,"o":"m 426 1018 l 503 1018 l 868 0 l 807 0 l 686 335 l 242 335 l 121 0 l 61 0 l 426 1018 m 668 388 l 464 965 l 256 388 l 668 388 m 454 1100 q 329 1144 379 1100 q 279 1289 279 1188 l 310 1289 q 349 1168 310 1207 q 450 1129 389 1129 q 562 1166 522 1129 q 601 1289 601 1203 l 632 1289 q 581 1143 632 1186 q 454 1100 531 1100 z "},"Ắ":{"ha":929,"x_min":61,"x_max":868,"o":"m 426 1018 l 503 1018 l 868 0 l 807 0 l 686 335 l 242 335 l 121 0 l 61 0 l 426 1018 m 668 388 l 464 965 l 256 388 l 668 388 m 586 1428 l 640 1428 l 458 1242 l 425 1242 l 586 1428 m 308 1244 q 348 1154 308 1183 q 450 1125 388 1125 q 601 1244 601 1125 l 632 1244 q 582 1131 632 1164 q 454 1097 532 1097 q 328 1132 378 1097 q 279 1244 279 1167 l 308 1244 z "},"Ặ":{"ha":929,"x_min":61,"x_max":868,"o":"m 426 1018 l 503 1018 l 868 0 l 807 0 l 686 335 l 242 335 l 121 0 l 61 0 l 426 1018 m 668 388 l 464 965 l 256 388 l 668 388 m 454 1100 q 329 1144 379 1100 q 279 1289 279 1188 l 310 1289 q 349 1168 310 1207 q 450 1129 389 1129 q 562 1166 522 1129 q 601 1289 601 1203 l 632 1289 q 581 1143 632 1186 q 454 1100 531 1100 m 449 -279 q 435 -274 440 -279 q 431 -261 431 -268 l 431 -168 q 449 -150 431 -150 l 475 -150 q 493 -168 493 -150 l 493 -261 q 488 -274 493 -269 q 475 -279 482 -279 l 449 -279 z "},"Ằ":{"ha":929,"x_min":61,"x_max":868,"o":"m 426 1018 l 503 1018 l 868 0 l 807 0 l 686 335 l 242 335 l 121 0 l 61 0 l 426 1018 m 668 388 l 464 965 l 256 388 l 668 388 m 285 1428 l 339 1428 l 500 1242 l 467 1242 l 285 1428 m 308 1244 q 348 1154 308 1183 q 450 1125 388 1125 q 601 1244 601 1125 l 632 1244 q 582 1131 632 1164 q 454 1097 532 1097 q 328 1132 378 1097 q 279 1244 279 1167 l 308 1244 z "},"Ẳ":{"ha":929,"x_min":61,"x_max":868,"o":"m 426 1018 l 503 1018 l 868 0 l 807 0 l 686 335 l 242 335 l 121 0 l 61 0 l 426 1018 m 668 388 l 464 965 l 256 388 l 668 388 m 435 1214 q 504 1254 482 1229 q 526 1310 526 1279 q 508 1366 526 1347 q 447 1385 489 1385 q 396 1376 421 1385 l 396 1404 q 454 1413 419 1413 q 533 1385 507 1413 q 560 1310 560 1357 q 528 1236 560 1269 q 435 1185 497 1203 l 435 1214 m 454 1097 q 328 1132 378 1097 q 279 1244 279 1167 l 308 1244 q 348 1154 308 1183 q 450 1125 388 1125 q 601 1244 601 1125 l 632 1244 q 582 1131 632 1164 q 454 1097 532 1097 z "},"Ẵ":{"ha":929,"x_min":61,"x_max":868,"o":"m 426 1018 l 503 1018 l 868 0 l 807 0 l 686 335 l 242 335 l 121 0 l 61 0 l 426 1018 m 668 388 l 464 965 l 256 388 l 668 388 m 351 1394 q 406 1385 381 1394 q 468 1358 432 1376 q 524 1333 503 1342 q 569 1325 546 1325 q 631 1343 607 1325 q 656 1394 656 1361 l 686 1394 q 655 1320 685 1347 q 572 1293 625 1293 q 522 1301 546 1293 q 464 1326 499 1310 q 407 1352 432 1343 q 354 1361 382 1361 q 296 1344 319 1361 q 272 1292 272 1326 l 242 1292 q 275 1370 243 1346 q 351 1394 307 1394 m 308 1244 q 348 1154 308 1183 q 450 1125 388 1125 q 601 1244 601 1125 l 632 1244 q 582 1131 632 1164 q 454 1097 532 1097 q 328 1132 378 1097 q 279 1244 279 1167 l 308 1244 z "},"Â":{"ha":929,"x_min":61,"x_max":868,"o":"m 426 1018 l 503 1018 l 868 0 l 807 0 l 686 335 l 242 335 l 121 0 l 61 0 l 426 1018 m 668 388 l 464 965 l 256 388 l 668 388 m 446 1282 l 489 1282 l 651 1099 l 614 1099 l 467 1251 l 304 1099 l 267 1099 l 446 1282 z "},"Ấ":{"ha":929,"x_min":61,"x_max":868,"o":"m 426 1018 l 503 1018 l 868 0 l 807 0 l 686 335 l 242 335 l 121 0 l 61 0 l 426 1018 m 668 388 l 464 965 l 256 388 l 668 388 m 781 1382 l 606 1199 l 572 1199 l 726 1382 l 781 1382 m 489 1228 l 651 1099 l 613 1099 l 467 1197 l 304 1099 l 267 1099 l 446 1228 l 489 1228 z "},"Ậ":{"ha":929,"x_min":61,"x_max":868,"o":"m 426 1018 l 503 1018 l 868 0 l 807 0 l 686 335 l 242 335 l 121 0 l 61 0 l 426 1018 m 668 388 l 464 965 l 256 388 l 668 388 m 446 1282 l 489 1282 l 651 1099 l 614 1099 l 467 1251 l 304 1099 l 267 1099 l 446 1282 m 449 -279 q 435 -274 440 -279 q 431 -261 431 -268 l 431 -168 q 449 -150 431 -150 l 475 -150 q 493 -168 493 -150 l 493 -261 q 488 -274 493 -269 q 475 -279 482 -279 l 449 -279 z "},"Ầ":{"ha":929,"x_min":61,"x_max":868,"o":"m 426 1018 l 503 1018 l 868 0 l 807 0 l 686 335 l 242 335 l 121 0 l 61 0 l 426 1018 m 668 388 l 464 965 l 256 388 l 668 388 m 200 1382 l 354 1199 l 321 1199 l 146 1382 l 200 1382 m 489 1228 l 651 1099 l 613 1099 l 467 1197 l 304 1099 l 267 1099 l 446 1228 l 489 1228 z "},"Ẩ":{"ha":929,"x_min":61,"x_max":868,"o":"m 426 1018 l 503 1018 l 868 0 l 807 0 l 686 335 l 242 335 l 121 0 l 61 0 l 426 1018 m 668 388 l 464 965 l 256 388 l 668 388 m 604 1197 q 688 1281 688 1224 q 617 1342 688 1342 q 565 1333 590 1342 l 565 1360 q 624 1369 593 1369 q 696 1346 672 1369 q 719 1281 719 1322 q 690 1214 719 1244 q 604 1168 661 1183 l 604 1197 m 446 1228 l 489 1228 l 651 1099 l 613 1099 l 467 1197 l 304 1099 l 267 1099 l 446 1228 z "},"Ẫ":{"ha":929,"x_min":61,"x_max":868,"o":"m 426 1018 l 503 1018 l 868 0 l 807 0 l 686 335 l 242 335 l 121 0 l 61 0 l 426 1018 m 668 388 l 464 965 l 256 388 l 668 388 m 351 1397 q 406 1388 381 1397 q 468 1361 432 1379 q 524 1336 503 1344 q 569 1328 546 1328 q 631 1346 607 1328 q 656 1397 656 1364 l 686 1397 q 655 1323 685 1350 q 572 1296 625 1296 q 519 1305 544 1296 q 463 1331 494 1314 q 404 1356 429 1347 q 353 1364 379 1364 q 295 1347 318 1364 q 272 1294 272 1329 l 242 1294 q 275 1373 243 1349 q 351 1397 307 1397 m 651 1099 l 613 1099 l 467 1197 l 304 1099 l 267 1099 l 446 1228 l 489 1228 l 651 1099 z "},"Ȁ":{"ha":929,"x_min":61,"x_max":868,"o":"m 426 1018 l 503 1018 l 868 0 l 807 0 l 686 335 l 242 335 l 121 0 l 61 0 l 426 1018 m 668 388 l 464 965 l 256 388 l 668 388 m 199 1285 l 253 1285 l 414 1099 l 381 1099 l 199 1285 m 376 1285 l 431 1285 l 592 1099 l 558 1099 l 376 1285 z "},"Ä":{"ha":929,"x_min":61,"x_max":868,"o":"m 426 1018 l 503 1018 l 868 0 l 807 0 l 686 335 l 242 335 l 121 0 l 61 0 l 426 1018 m 668 388 l 464 965 l 256 388 l 668 388 m 267 1142 q 253 1147 258 1142 q 249 1160 249 1153 l 249 1253 q 267 1271 249 1271 l 293 1271 q 311 1253 311 1271 l 311 1160 q 293 1142 311 1142 l 267 1142 m 611 1142 q 599 1147 604 1142 q 593 1160 593 1153 l 593 1253 q 611 1271 593 1271 l 638 1271 q 656 1253 656 1271 l 656 1160 q 638 1142 656 1142 l 611 1142 z "},"Ạ":{"ha":929,"x_min":61,"x_max":868,"o":"m 426 1018 l 503 1018 l 868 0 l 807 0 l 686 335 l 242 335 l 121 0 l 61 0 l 426 1018 m 668 388 l 464 965 l 256 388 l 668 388 m 449 -279 q 435 -274 440 -279 q 431 -261 431 -268 l 431 -168 q 449 -150 431 -150 l 475 -150 q 493 -168 493 -150 l 493 -261 q 488 -274 493 -269 q 475 -279 482 -279 l 449 -279 z "},"À":{"ha":929,"x_min":61,"x_max":868,"o":"m 426 1018 l 503 1018 l 868 0 l 807 0 l 686 335 l 242 335 l 121 0 l 61 0 l 426 1018 m 668 388 l 464 965 l 256 388 l 668 388 m 264 1285 l 318 1285 l 479 1099 l 446 1099 l 264 1285 z "},"Ả":{"ha":929,"x_min":61,"x_max":868,"o":"m 426 1018 l 503 1018 l 868 0 l 807 0 l 686 335 l 242 335 l 121 0 l 61 0 l 426 1018 m 668 388 l 464 965 l 256 388 l 668 388 m 439 1099 q 508 1139 486 1114 q 531 1194 531 1164 q 512 1251 531 1232 q 451 1269 493 1269 q 400 1261 425 1269 l 400 1289 q 458 1297 424 1297 q 538 1269 511 1297 q 564 1194 564 1242 q 533 1121 564 1154 q 439 1069 501 1088 l 439 1099 z "},"Ȃ":{"ha":929,"x_min":61,"x_max":868,"o":"m 426 1018 l 503 1018 l 868 0 l 807 0 l 686 335 l 242 335 l 121 0 l 61 0 l 426 1018 m 668 388 l 464 965 l 256 388 l 668 388 m 458 1289 q 583 1245 533 1289 q 633 1100 633 1201 l 603 1100 q 563 1221 603 1182 q 463 1260 524 1260 q 351 1223 390 1260 q 311 1100 311 1186 l 281 1100 q 331 1246 281 1203 q 458 1289 382 1289 z "},"Ā":{"ha":929,"x_min":61,"x_max":868,"o":"m 426 1018 l 503 1018 l 868 0 l 807 0 l 686 335 l 242 335 l 121 0 l 61 0 l 426 1018 m 668 388 l 464 965 l 256 388 l 668 388 m 276 1208 l 632 1208 l 632 1174 l 276 1174 l 276 1208 z "},"Ą":{"ha":929,"x_min":61,"x_max":874,"o":"m 426 1018 l 503 1018 l 868 0 l 807 0 l 686 335 l 242 335 l 121 0 l 61 0 l 426 1018 m 668 388 l 464 965 l 256 388 l 668 388 m 842 -254 q 736 -222 776 -254 q 696 -133 696 -189 q 724 -60 696 -94 q 807 0 751 -25 l 832 0 q 758 -56 783 -25 q 732 -122 732 -87 q 766 -197 732 -171 q 865 -222 800 -222 l 874 -222 l 874 -253 q 842 -254 863 -254 z "},"Å":{"ha":929,"x_min":61,"x_max":868,"o":"m 426 1018 l 503 1018 l 868 0 l 807 0 l 686 335 l 242 335 l 121 0 l 61 0 l 426 1018 m 668 388 l 464 965 l 256 388 l 668 388 m 464 1057 q 354 1090 390 1057 q 318 1201 318 1122 q 354 1313 318 1281 q 464 1346 390 1346 q 572 1313 538 1346 q 607 1201 607 1281 q 572 1090 607 1122 q 464 1057 538 1057 m 464 1086 q 549 1111 524 1086 q 575 1201 575 1136 q 549 1292 575 1267 q 464 1317 524 1317 q 377 1291 404 1317 q 350 1201 350 1265 q 377 1111 350 1136 q 464 1086 404 1086 z "},"Ǻ":{"ha":929,"x_min":61,"x_max":868,"o":"m 464 1057 q 354 1090 390 1057 q 318 1201 318 1122 q 354 1313 318 1281 q 464 1346 390 1346 l 465 1346 l 613 1515 l 667 1515 l 499 1344 q 581 1304 554 1338 q 607 1201 607 1271 q 572 1090 607 1122 q 464 1057 538 1057 m 464 1317 q 377 1291 404 1317 q 350 1201 350 1265 q 377 1111 350 1136 q 464 1086 404 1086 q 549 1111 524 1086 q 575 1201 575 1136 q 549 1292 575 1267 q 464 1317 524 1317 m 868 0 l 807 0 l 686 335 l 242 335 l 121 0 l 61 0 l 426 1018 l 503 1018 l 868 0 m 668 388 l 464 965 l 256 388 l 668 388 z "},"Ã":{"ha":929,"x_min":61,"x_max":868,"o":"m 426 1018 l 503 1018 l 868 0 l 807 0 l 686 335 l 242 335 l 121 0 l 61 0 l 426 1018 m 668 388 l 464 965 l 256 388 l 668 388 m 238 1135 q 276 1234 239 1203 q 363 1265 313 1265 q 419 1252 393 1265 q 485 1214 446 1239 q 542 1180 522 1190 q 586 1169 563 1169 q 657 1195 629 1169 q 685 1267 685 1221 l 715 1267 q 680 1171 714 1207 q 586 1135 646 1135 q 533 1147 558 1135 q 471 1183 508 1160 q 410 1219 433 1208 q 363 1231 388 1231 q 296 1207 322 1231 q 268 1135 269 1183 l 238 1135 z "},"Æ":{"ha":1325,"x_min":61,"x_max":1235,"o":"m 861 -4 q 724 36 771 -4 q 675 167 676 76 l 675 333 l 328 333 l 119 0 l 61 0 l 599 875 q 695 982 642 946 q 832 1018 749 1018 q 1024 1015 919 1018 q 1168 1011 1129 1013 l 1235 1008 l 1235 965 l 839 965 q 754 942 779 965 q 729 865 729 918 l 729 531 l 1178 526 l 1178 485 l 729 479 l 729 186 q 766 81 729 114 q 878 49 803 49 l 1235 49 l 1235 6 l 1169 3 q 1038 -1 1135 1 q 861 -4 942 -4 m 675 383 l 675 894 l 356 383 l 675 383 z "},"Ǽ":{"ha":1325,"x_min":61,"x_max":1235,"o":"m 861 -4 q 724 36 771 -4 q 675 167 676 76 l 675 333 l 328 333 l 119 0 l 61 0 l 599 875 q 695 982 642 946 q 832 1018 749 1018 q 1024 1015 919 1018 q 1168 1011 1129 1013 l 1235 1008 l 1235 965 l 839 965 q 754 942 779 965 q 729 865 729 918 l 729 531 l 1178 526 l 1178 485 l 729 479 l 729 186 q 766 81 729 114 q 878 49 803 49 l 1235 49 l 1235 6 l 1169 3 q 1038 -1 1135 1 q 861 -4 942 -4 m 675 383 l 675 894 l 356 383 l 675 383 m 883 1285 l 938 1285 l 756 1099 l 722 1099 l 883 1285 z "},"B":{"ha":819,"x_min":118,"x_max":753,"o":"m 118 1018 l 468 1018 q 715 761 715 1018 q 672 608 715 669 q 569 529 629 546 q 695 455 638 514 q 753 283 753 396 q 683 63 753 126 q 479 0 613 0 l 118 0 l 118 1018 m 476 550 q 609 610 558 550 q 660 771 660 669 q 468 967 660 967 l 175 967 l 175 550 l 476 550 m 478 51 q 641 102 585 51 q 697 290 697 153 q 634 445 697 388 q 478 503 571 503 l 175 503 l 175 51 l 478 51 z "},"Ḃ":{"ha":819,"x_min":118,"x_max":753,"o":"m 118 1018 l 468 1018 q 715 761 715 1018 q 672 608 715 669 q 569 529 629 546 q 695 455 638 514 q 753 283 753 396 q 683 63 753 126 q 479 0 613 0 l 118 0 l 118 1018 m 476 550 q 609 610 558 550 q 660 771 660 669 q 468 967 660 967 l 175 967 l 175 550 l 476 550 m 478 51 q 641 102 585 51 q 697 290 697 153 q 634 445 697 388 q 478 503 571 503 l 175 503 l 175 51 l 478 51 m 393 1151 q 380 1157 385 1151 q 375 1169 375 1163 l 375 1263 q 393 1281 375 1281 l 419 1281 q 438 1263 438 1281 l 438 1169 q 432 1156 438 1161 q 419 1151 426 1151 l 393 1151 z "},"C":{"ha":803,"x_min":93,"x_max":736,"o":"m 447 -8 q 238 32 313 -8 q 128 184 164 72 q 93 513 93 296 q 130 826 93 715 q 244 982 167 938 q 457 1026 322 1026 q 589 1018 507 1026 q 736 996 671 1010 l 736 956 q 614 969 694 963 q 460 975 533 975 q 276 937 342 975 q 181 799 211 899 q 150 511 150 699 q 180 214 150 314 q 273 78 210 114 q 454 43 336 43 q 736 63 622 43 l 736 21 q 589 -1 669 7 q 447 -8 508 -8 z "},"Ć":{"ha":803,"x_min":93,"x_max":736,"o":"m 447 -8 q 238 32 313 -8 q 128 184 164 72 q 93 513 93 296 q 130 826 93 715 q 244 982 167 938 q 457 1026 322 1026 q 589 1018 507 1026 q 736 996 671 1010 l 736 956 q 614 969 694 963 q 460 975 533 975 q 276 937 342 975 q 181 799 211 899 q 150 511 150 699 q 180 214 150 314 q 273 78 210 114 q 454 43 336 43 q 736 63 622 43 l 736 21 q 589 -1 669 7 q 447 -8 508 -8 m 604 1285 l 658 1285 l 476 1099 l 443 1099 l 604 1285 z "},"Č":{"ha":803,"x_min":93,"x_max":736,"o":"m 447 -8 q 238 32 313 -8 q 128 184 164 72 q 93 513 93 296 q 130 826 93 715 q 244 982 167 938 q 457 1026 322 1026 q 589 1018 507 1026 q 736 996 671 1010 l 736 956 q 614 969 694 963 q 460 975 533 975 q 276 937 342 975 q 181 799 211 899 q 150 511 150 699 q 180 214 150 314 q 273 78 210 114 q 454 43 336 43 q 736 63 622 43 l 736 21 q 589 -1 669 7 q 447 -8 508 -8 m 271 1282 l 308 1282 l 456 1129 l 618 1282 l 656 1282 l 476 1099 l 433 1099 l 271 1282 z "},"Ç":{"ha":803,"x_min":93,"x_max":736,"o":"m 460 975 q 276 937 342 975 q 181 799 211 899 q 150 511 150 699 q 180 214 150 314 q 273 78 210 114 q 454 43 336 43 q 736 63 622 43 l 736 21 q 602 1 675 8 q 469 -8 529 -7 l 422 -79 q 502 -103 478 -81 q 526 -165 526 -125 q 494 -233 526 -208 q 401 -257 461 -257 l 368 -257 l 368 -233 l 403 -231 q 468 -210 446 -228 q 490 -160 490 -193 q 467 -112 490 -129 q 383 -93 444 -94 l 440 -8 q 236 34 310 -7 q 128 187 163 75 q 93 513 93 299 q 130 826 93 715 q 244 982 167 938 q 457 1026 322 1026 q 589 1018 507 1026 q 736 996 671 1010 l 736 956 q 614 969 694 963 q 460 975 533 975 z "},"Ḉ":{"ha":803,"x_min":93,"x_max":736,"o":"m 476 1099 l 443 1099 l 604 1285 l 658 1285 l 476 1099 m 460 975 q 276 937 342 975 q 181 799 211 899 q 150 511 150 699 q 180 214 150 314 q 273 78 210 114 q 454 43 336 43 q 736 63 622 43 l 736 21 q 602 1 675 8 q 469 -8 529 -7 l 422 -79 q 502 -103 478 -81 q 526 -165 526 -125 q 494 -233 526 -208 q 401 -257 461 -257 l 368 -257 l 368 -233 l 403 -231 q 468 -210 446 -228 q 490 -160 490 -193 q 467 -112 490 -129 q 383 -93 444 -94 l 440 -8 q 236 34 310 -7 q 128 187 163 75 q 93 513 93 299 q 130 826 93 715 q 244 982 167 938 q 457 1026 322 1026 q 589 1018 507 1026 q 736 996 671 1010 l 736 956 q 614 969 694 963 q 460 975 533 975 z "},"Ĉ":{"ha":803,"x_min":93,"x_max":736,"o":"m 447 -8 q 238 32 313 -8 q 128 184 164 72 q 93 513 93 296 q 130 826 93 715 q 244 982 167 938 q 457 1026 322 1026 q 589 1018 507 1026 q 736 996 671 1010 l 736 956 q 614 969 694 963 q 460 975 533 975 q 276 937 342 975 q 181 799 211 899 q 150 511 150 699 q 180 214 150 314 q 273 78 210 114 q 454 43 336 43 q 736 63 622 43 l 736 21 q 589 -1 669 7 q 447 -8 508 -8 m 438 1282 l 481 1282 l 643 1099 l 606 1099 l 458 1251 l 296 1099 l 258 1099 l 438 1282 z "},"Ċ":{"ha":803,"x_min":93,"x_max":736,"o":"m 447 -8 q 238 32 313 -8 q 128 184 164 72 q 93 513 93 296 q 130 826 93 715 q 244 982 167 938 q 457 1026 322 1026 q 589 1018 507 1026 q 736 996 671 1010 l 736 956 q 614 969 694 963 q 460 975 533 975 q 276 937 342 975 q 181 799 211 899 q 150 511 150 699 q 180 214 150 314 q 273 78 210 114 q 454 43 336 43 q 736 63 622 43 l 736 21 q 589 -1 669 7 q 447 -8 508 -8 m 442 1151 q 428 1157 433 1151 q 424 1169 424 1163 l 424 1263 q 442 1281 424 1281 l 468 1281 q 486 1263 486 1281 l 486 1169 q 481 1156 486 1161 q 468 1151 475 1151 l 442 1151 z "},"D":{"ha":921,"x_min":118,"x_max":828,"o":"m 118 1018 l 504 1018 q 751 893 674 1018 q 828 510 828 768 q 744 138 828 275 q 504 0 660 0 l 118 0 l 118 1018 m 501 51 q 703 175 635 51 q 771 510 771 299 q 743 772 771 672 q 656 919 715 872 q 501 967 597 967 l 175 967 l 175 51 l 501 51 z "},"Ð":{"ha":921,"x_min":22,"x_max":828,"o":"m 504 1018 q 751 893 674 1018 q 828 510 828 768 q 744 138 828 275 q 504 0 660 0 l 118 0 l 118 494 l 22 494 l 22 539 l 118 539 l 118 1018 l 504 1018 m 501 51 q 703 175 635 51 q 771 510 771 299 q 743 772 771 672 q 656 919 715 872 q 501 967 597 967 l 175 967 l 175 539 l 447 539 l 447 494 l 175 494 l 175 51 l 501 51 z "},"Ď":{"ha":921,"x_min":118,"x_max":828,"o":"m 118 1018 l 504 1018 q 751 893 674 1018 q 828 510 828 768 q 744 138 828 275 q 504 0 660 0 l 118 0 l 118 1018 m 501 51 q 703 175 635 51 q 771 510 771 299 q 743 772 771 672 q 656 919 715 872 q 501 967 597 967 l 175 967 l 175 51 l 501 51 m 249 1282 l 286 1282 l 433 1129 l 596 1282 l 633 1282 l 454 1099 l 411 1099 l 249 1282 z "},"Đ":{"ha":921,"x_min":22,"x_max":828,"o":"m 504 1018 q 751 893 674 1018 q 828 510 828 768 q 744 138 828 275 q 504 0 660 0 l 118 0 l 118 494 l 22 494 l 22 539 l 118 539 l 118 1018 l 504 1018 m 501 51 q 703 175 635 51 q 771 510 771 299 q 743 772 771 672 q 656 919 715 872 q 501 967 597 967 l 175 967 l 175 539 l 447 539 l 447 494 l 175 494 l 175 51 l 501 51 z "},"Ḋ":{"ha":921,"x_min":118,"x_max":828,"o":"m 118 1018 l 504 1018 q 751 893 674 1018 q 828 510 828 768 q 744 138 828 275 q 504 0 660 0 l 118 0 l 118 1018 m 501 51 q 703 175 635 51 q 771 510 771 299 q 743 772 771 672 q 656 919 715 872 q 501 967 597 967 l 175 967 l 175 51 l 501 51 m 419 1151 q 406 1157 411 1151 q 401 1169 401 1163 l 401 1263 q 419 1281 401 1281 l 446 1281 q 464 1263 464 1281 l 464 1169 q 458 1156 464 1161 q 446 1151 453 1151 l 419 1151 z "},"Ḍ":{"ha":921,"x_min":118,"x_max":828,"o":"m 118 1018 l 504 1018 q 751 893 674 1018 q 828 510 828 768 q 744 138 828 275 q 504 0 660 0 l 118 0 l 118 1018 m 501 51 q 703 175 635 51 q 771 510 771 299 q 743 772 771 672 q 656 919 715 872 q 501 967 597 967 l 175 967 l 175 51 l 501 51 m 413 -279 q 399 -274 404 -279 q 394 -261 394 -268 l 394 -168 q 413 -150 394 -150 l 439 -150 q 457 -168 457 -150 l 457 -261 q 451 -274 457 -269 q 439 -279 446 -279 l 413 -279 z "},"Ḏ":{"ha":921,"x_min":118,"x_max":828,"o":"m 118 1018 l 504 1018 q 751 893 674 1018 q 828 510 828 768 q 744 138 828 275 q 504 0 660 0 l 118 0 l 118 1018 m 501 51 q 703 175 635 51 q 771 510 771 299 q 743 772 771 672 q 656 919 715 872 q 501 967 597 967 l 175 967 l 175 51 l 501 51 m 242 -208 l 597 -208 l 597 -243 l 242 -243 l 242 -208 z "},"E":{"ha":808,"x_min":118,"x_max":718,"o":"m 308 -4 q 171 33 224 -4 q 118 178 118 71 l 118 831 q 169 973 118 928 q 297 1018 221 1018 q 499 1015 392 1018 q 644 1011 606 1013 l 718 1008 l 718 965 l 310 965 q 210 931 246 965 q 175 825 175 897 l 175 531 l 661 526 l 661 485 l 175 479 l 175 186 q 214 76 175 103 q 321 49 253 49 l 718 49 l 718 6 l 650 3 q 500 -1 608 1 q 308 -4 392 -4 z "},"É":{"ha":808,"x_min":118,"x_max":718,"o":"m 308 -4 q 171 33 224 -4 q 118 178 118 71 l 118 831 q 169 973 118 928 q 297 1018 221 1018 q 499 1015 392 1018 q 644 1011 606 1013 l 718 1008 l 718 965 l 310 965 q 210 931 246 965 q 175 825 175 897 l 175 531 l 661 526 l 661 485 l 175 479 l 175 186 q 214 76 175 103 q 321 49 253 49 l 718 49 l 718 6 l 650 3 q 500 -1 608 1 q 308 -4 392 -4 m 579 1285 l 633 1285 l 451 1099 l 418 1099 l 579 1285 z "},"Ĕ":{"ha":808,"x_min":118,"x_max":718,"o":"m 308 -4 q 171 33 224 -4 q 118 178 118 71 l 118 831 q 169 973 118 928 q 297 1018 221 1018 q 499 1015 392 1018 q 644 1011 606 1013 l 718 1008 l 718 965 l 310 965 q 210 931 246 965 q 175 825 175 897 l 175 531 l 661 526 l 661 485 l 175 479 l 175 186 q 214 76 175 103 q 321 49 253 49 l 718 49 l 718 6 l 650 3 q 500 -1 608 1 q 308 -4 392 -4 m 421 1100 q 296 1144 346 1100 q 246 1289 246 1188 l 276 1289 q 316 1168 276 1207 q 417 1129 356 1129 q 528 1166 489 1129 q 568 1289 568 1203 l 599 1289 q 548 1143 599 1186 q 421 1100 497 1100 z "},"Ě":{"ha":808,"x_min":118,"x_max":718,"o":"m 308 -4 q 171 33 224 -4 q 118 178 118 71 l 118 831 q 169 973 118 928 q 297 1018 221 1018 q 499 1015 392 1018 q 644 1011 606 1013 l 718 1008 l 718 965 l 310 965 q 210 931 246 965 q 175 825 175 897 l 175 531 l 661 526 l 661 485 l 175 479 l 175 186 q 214 76 175 103 q 321 49 253 49 l 718 49 l 718 6 l 650 3 q 500 -1 608 1 q 308 -4 392 -4 m 246 1282 l 283 1282 l 431 1129 l 593 1282 l 631 1282 l 451 1099 l 408 1099 l 246 1282 z "},"Ḝ":{"ha":808,"x_min":118,"x_max":718,"o":"m 421 1100 q 296 1144 346 1100 q 246 1289 246 1188 l 276 1289 q 316 1168 276 1207 q 417 1129 356 1129 q 528 1166 489 1129 q 568 1289 568 1203 l 599 1289 q 548 1143 599 1186 q 421 1100 497 1100 m 310 965 q 210 931 246 965 q 175 825 175 897 l 175 531 l 661 526 l 661 485 l 175 479 l 175 186 q 214 76 175 103 q 321 49 253 49 l 718 49 l 718 6 q 449 -1 547 0 l 397 -79 q 477 -103 453 -81 q 501 -165 501 -125 q 469 -233 501 -208 q 376 -257 436 -257 l 343 -257 l 343 -233 l 378 -231 q 443 -210 421 -228 q 465 -160 465 -193 q 442 -112 465 -129 q 358 -93 419 -94 l 418 -3 l 308 -4 q 171 33 224 -4 q 118 178 118 71 l 118 831 q 169 973 118 928 q 297 1018 221 1018 q 499 1015 392 1018 q 644 1011 606 1013 l 718 1008 l 718 965 l 310 965 z "},"Ê":{"ha":808,"x_min":118,"x_max":718,"o":"m 308 -4 q 171 33 224 -4 q 118 178 118 71 l 118 831 q 169 973 118 928 q 297 1018 221 1018 q 499 1015 392 1018 q 644 1011 606 1013 l 718 1008 l 718 965 l 310 965 q 210 931 246 965 q 175 825 175 897 l 175 531 l 661 526 l 661 485 l 175 479 l 175 186 q 214 76 175 103 q 321 49 253 49 l 718 49 l 718 6 l 650 3 q 500 -1 608 1 q 308 -4 392 -4 m 413 1282 l 456 1282 l 618 1099 l 581 1099 l 433 1251 l 271 1099 l 233 1099 l 413 1282 z "},"Ế":{"ha":808,"x_min":118,"x_max":747,"o":"m 308 -4 q 171 33 224 -4 q 118 178 118 71 l 118 831 q 169 973 118 928 q 297 1018 221 1018 q 499 1015 392 1018 q 644 1011 606 1013 l 718 1008 l 718 965 l 310 965 q 210 931 246 965 q 175 825 175 897 l 175 531 l 661 526 l 661 485 l 175 479 l 175 186 q 214 76 175 103 q 321 49 253 49 l 718 49 l 718 6 l 650 3 q 500 -1 608 1 q 308 -4 392 -4 m 747 1382 l 572 1199 l 539 1199 l 693 1382 l 747 1382 m 456 1228 l 618 1099 l 579 1099 l 433 1197 l 271 1099 l 233 1099 l 413 1228 l 456 1228 z "},"Ệ":{"ha":808,"x_min":118,"x_max":718,"o":"m 308 -4 q 171 33 224 -4 q 118 178 118 71 l 118 831 q 169 973 118 928 q 297 1018 221 1018 q 499 1015 392 1018 q 644 1011 606 1013 l 718 1008 l 718 965 l 310 965 q 210 931 246 965 q 175 825 175 897 l 175 531 l 661 526 l 661 485 l 175 479 l 175 186 q 214 76 175 103 q 321 49 253 49 l 718 49 l 718 6 l 650 3 q 500 -1 608 1 q 308 -4 392 -4 m 413 1282 l 456 1282 l 618 1099 l 581 1099 l 433 1251 l 271 1099 l 233 1099 l 413 1282 m 419 -279 q 406 -274 411 -279 q 401 -261 401 -268 l 401 -168 q 419 -150 401 -150 l 446 -150 q 464 -168 464 -150 l 464 -261 q 458 -274 464 -269 q 446 -279 453 -279 l 419 -279 z "},"Ề":{"ha":808,"x_min":113,"x_max":718,"o":"m 308 -4 q 171 33 224 -4 q 118 178 118 71 l 118 831 q 169 973 118 928 q 297 1018 221 1018 q 499 1015 392 1018 q 644 1011 606 1013 l 718 1008 l 718 965 l 310 965 q 210 931 246 965 q 175 825 175 897 l 175 531 l 661 526 l 661 485 l 175 479 l 175 186 q 214 76 175 103 q 321 49 253 49 l 718 49 l 718 6 l 650 3 q 500 -1 608 1 q 308 -4 392 -4 m 167 1382 l 321 1199 l 288 1199 l 113 1382 l 167 1382 m 456 1228 l 618 1099 l 579 1099 l 433 1197 l 271 1099 l 233 1099 l 413 1228 l 456 1228 z "},"Ể":{"ha":808,"x_min":118,"x_max":718,"o":"m 308 -4 q 171 33 224 -4 q 118 178 118 71 l 118 831 q 169 973 118 928 q 297 1018 221 1018 q 499 1015 392 1018 q 644 1011 606 1013 l 718 1008 l 718 965 l 310 965 q 210 931 246 965 q 175 825 175 897 l 175 531 l 661 526 l 661 485 l 175 479 l 175 186 q 214 76 175 103 q 321 49 253 49 l 718 49 l 718 6 l 650 3 q 500 -1 608 1 q 308 -4 392 -4 m 571 1197 q 654 1281 654 1224 q 583 1342 654 1342 q 532 1333 557 1342 l 532 1360 q 590 1369 560 1369 q 663 1346 639 1369 q 686 1281 686 1322 q 657 1214 686 1244 q 571 1168 628 1183 l 571 1197 m 413 1228 l 456 1228 l 618 1099 l 579 1099 l 433 1197 l 271 1099 l 233 1099 l 413 1228 z "},"Ễ":{"ha":808,"x_min":118,"x_max":718,"o":"m 308 -4 q 171 33 224 -4 q 118 178 118 71 l 118 831 q 169 973 118 928 q 297 1018 221 1018 q 499 1015 392 1018 q 644 1011 606 1013 l 718 1008 l 718 965 l 310 965 q 210 931 246 965 q 175 825 175 897 l 175 531 l 661 526 l 661 485 l 175 479 l 175 186 q 214 76 175 103 q 321 49 253 49 l 718 49 l 718 6 l 650 3 q 500 -1 608 1 q 308 -4 392 -4 m 318 1397 q 373 1388 347 1397 q 435 1361 399 1379 q 491 1336 469 1344 q 536 1328 513 1328 q 598 1346 574 1328 q 622 1397 622 1364 l 653 1397 q 622 1323 651 1350 q 539 1296 592 1296 q 486 1305 511 1296 q 429 1331 461 1314 q 371 1356 396 1347 q 319 1364 346 1364 q 262 1347 285 1364 q 239 1294 239 1329 l 208 1294 q 242 1373 210 1349 q 318 1397 274 1397 m 618 1099 l 579 1099 l 433 1197 l 271 1099 l 233 1099 l 413 1228 l 456 1228 l 618 1099 z "},"Ȅ":{"ha":808,"x_min":118,"x_max":718,"o":"m 308 -4 q 171 33 224 -4 q 118 178 118 71 l 118 831 q 169 973 118 928 q 297 1018 221 1018 q 499 1015 392 1018 q 644 1011 606 1013 l 718 1008 l 718 965 l 310 965 q 210 931 246 965 q 175 825 175 897 l 175 531 l 661 526 l 661 485 l 175 479 l 175 186 q 214 76 175 103 q 321 49 253 49 l 718 49 l 718 6 l 650 3 q 500 -1 608 1 q 308 -4 392 -4 m 167 1285 l 221 1285 l 382 1099 l 349 1099 l 167 1285 m 344 1285 l 399 1285 l 560 1099 l 526 1099 l 344 1285 z "},"Ë":{"ha":808,"x_min":118,"x_max":718,"o":"m 308 -4 q 171 33 224 -4 q 118 178 118 71 l 118 831 q 169 973 118 928 q 297 1018 221 1018 q 499 1015 392 1018 q 644 1011 606 1013 l 718 1008 l 718 965 l 310 965 q 210 931 246 965 q 175 825 175 897 l 175 531 l 661 526 l 661 485 l 175 479 l 175 186 q 214 76 175 103 q 321 49 253 49 l 718 49 l 718 6 l 650 3 q 500 -1 608 1 q 308 -4 392 -4 m 233 1142 q 220 1147 225 1142 q 215 1160 215 1153 l 215 1253 q 233 1271 215 1271 l 260 1271 q 278 1253 278 1271 l 278 1160 q 260 1142 278 1142 l 233 1142 m 578 1142 q 565 1147 571 1142 q 560 1160 560 1153 l 560 1253 q 578 1271 560 1271 l 604 1271 q 622 1253 622 1271 l 622 1160 q 604 1142 622 1142 l 578 1142 z "},"Ė":{"ha":808,"x_min":118,"x_max":718,"o":"m 308 -4 q 171 33 224 -4 q 118 178 118 71 l 118 831 q 169 973 118 928 q 297 1018 221 1018 q 499 1015 392 1018 q 644 1011 606 1013 l 718 1008 l 718 965 l 310 965 q 210 931 246 965 q 175 825 175 897 l 175 531 l 661 526 l 661 485 l 175 479 l 175 186 q 214 76 175 103 q 321 49 253 49 l 718 49 l 718 6 l 650 3 q 500 -1 608 1 q 308 -4 392 -4 m 417 1151 q 403 1157 408 1151 q 399 1169 399 1163 l 399 1263 q 417 1281 399 1281 l 443 1281 q 461 1263 461 1281 l 461 1169 q 456 1156 461 1161 q 443 1151 450 1151 l 417 1151 z "},"Ẹ":{"ha":808,"x_min":118,"x_max":718,"o":"m 308 -4 q 171 33 224 -4 q 118 178 118 71 l 118 831 q 169 973 118 928 q 297 1018 221 1018 q 499 1015 392 1018 q 644 1011 606 1013 l 718 1008 l 718 965 l 310 965 q 210 931 246 965 q 175 825 175 897 l 175 531 l 661 526 l 661 485 l 175 479 l 175 186 q 214 76 175 103 q 321 49 253 49 l 718 49 l 718 6 l 650 3 q 500 -1 608 1 q 308 -4 392 -4 m 419 -279 q 406 -274 411 -279 q 401 -261 401 -268 l 401 -168 q 419 -150 401 -150 l 446 -150 q 464 -168 464 -150 l 464 -261 q 458 -274 464 -269 q 446 -279 453 -279 l 419 -279 z "},"È":{"ha":808,"x_min":118,"x_max":718,"o":"m 308 -4 q 171 33 224 -4 q 118 178 118 71 l 118 831 q 169 973 118 928 q 297 1018 221 1018 q 499 1015 392 1018 q 644 1011 606 1013 l 718 1008 l 718 965 l 310 965 q 210 931 246 965 q 175 825 175 897 l 175 531 l 661 526 l 661 485 l 175 479 l 175 186 q 214 76 175 103 q 321 49 253 49 l 718 49 l 718 6 l 650 3 q 500 -1 608 1 q 308 -4 392 -4 m 231 1285 l 285 1285 l 446 1099 l 413 1099 l 231 1285 z "},"Ẻ":{"ha":808,"x_min":118,"x_max":718,"o":"m 308 -4 q 171 33 224 -4 q 118 178 118 71 l 118 831 q 169 973 118 928 q 297 1018 221 1018 q 499 1015 392 1018 q 644 1011 606 1013 l 718 1008 l 718 965 l 310 965 q 210 931 246 965 q 175 825 175 897 l 175 531 l 661 526 l 661 485 l 175 479 l 175 186 q 214 76 175 103 q 321 49 253 49 l 718 49 l 718 6 l 650 3 q 500 -1 608 1 q 308 -4 392 -4 m 406 1099 q 475 1139 453 1114 q 497 1194 497 1164 q 478 1251 497 1232 q 418 1269 460 1269 q 367 1261 392 1269 l 367 1289 q 425 1297 390 1297 q 504 1269 478 1297 q 531 1194 531 1242 q 499 1121 531 1154 q 406 1069 468 1088 l 406 1099 z "},"Ȇ":{"ha":808,"x_min":118,"x_max":718,"o":"m 308 -4 q 171 33 224 -4 q 118 178 118 71 l 118 831 q 169 973 118 928 q 297 1018 221 1018 q 499 1015 392 1018 q 644 1011 606 1013 l 718 1008 l 718 965 l 310 965 q 210 931 246 965 q 175 825 175 897 l 175 531 l 661 526 l 661 485 l 175 479 l 175 186 q 214 76 175 103 q 321 49 253 49 l 718 49 l 718 6 l 650 3 q 500 -1 608 1 q 308 -4 392 -4 m 425 1289 q 550 1245 500 1289 q 600 1100 600 1201 l 569 1100 q 530 1221 569 1182 q 429 1260 490 1260 q 317 1223 357 1260 q 278 1100 278 1186 l 247 1100 q 298 1246 247 1203 q 425 1289 349 1289 z "},"Ē":{"ha":808,"x_min":118,"x_max":718,"o":"m 308 -4 q 171 33 224 -4 q 118 178 118 71 l 118 831 q 169 973 118 928 q 297 1018 221 1018 q 499 1015 392 1018 q 644 1011 606 1013 l 718 1008 l 718 965 l 310 965 q 210 931 246 965 q 175 825 175 897 l 175 531 l 661 526 l 661 485 l 175 479 l 175 186 q 214 76 175 103 q 321 49 253 49 l 718 49 l 718 6 l 650 3 q 500 -1 608 1 q 308 -4 392 -4 m 243 1208 l 599 1208 l 599 1174 l 243 1174 l 243 1208 z "},"Ḗ":{"ha":808,"x_min":118,"x_max":718,"o":"m 308 -4 q 171 33 224 -4 q 118 178 118 71 l 118 831 q 169 973 118 928 q 297 1018 221 1018 q 499 1015 392 1018 q 644 1011 606 1013 l 718 1008 l 718 965 l 310 965 q 210 931 246 965 q 175 825 175 897 l 175 531 l 661 526 l 661 485 l 175 479 l 175 186 q 214 76 175 103 q 321 49 253 49 l 718 49 l 718 6 l 650 3 q 500 -1 608 1 q 308 -4 392 -4 m 243 1208 l 599 1208 l 599 1174 l 243 1174 l 243 1208 m 578 1456 l 632 1456 l 450 1269 l 417 1269 l 578 1456 z "},"Ḕ":{"ha":808,"x_min":118,"x_max":718,"o":"m 308 -4 q 171 33 224 -4 q 118 178 118 71 l 118 831 q 169 973 118 928 q 297 1018 221 1018 q 499 1015 392 1018 q 644 1011 606 1013 l 718 1008 l 718 965 l 310 965 q 210 931 246 965 q 175 825 175 897 l 175 531 l 661 526 l 661 485 l 175 479 l 175 186 q 214 76 175 103 q 321 49 253 49 l 718 49 l 718 6 l 650 3 q 500 -1 608 1 q 308 -4 392 -4 m 243 1208 l 599 1208 l 599 1174 l 243 1174 l 243 1208 m 226 1456 l 281 1456 l 442 1269 l 408 1269 l 226 1456 z "},"Ę":{"ha":808,"x_min":118,"x_max":760,"o":"m 760 -217 l 760 -247 q 728 -249 749 -249 q 622 -216 663 -249 q 582 -128 582 -183 q 609 -56 582 -90 q 692 4 636 -21 q 567 1 608 1 q 308 -4 394 -4 q 171 33 224 -4 q 118 178 118 71 l 118 831 q 169 973 118 928 q 297 1018 221 1018 q 499 1015 392 1018 q 644 1011 606 1013 l 718 1008 l 718 965 l 310 965 q 210 931 246 965 q 175 825 175 897 l 175 531 l 661 526 l 661 485 l 175 479 l 175 186 q 214 76 175 103 q 321 49 253 49 l 718 49 l 718 6 q 644 -51 669 -19 q 618 -117 618 -82 q 652 -191 618 -165 q 751 -217 686 -217 l 760 -217 z "},"Ẽ":{"ha":808,"x_min":118,"x_max":718,"o":"m 308 -4 q 171 33 224 -4 q 118 178 118 71 l 118 831 q 169 973 118 928 q 297 1018 221 1018 q 499 1015 392 1018 q 644 1011 606 1013 l 718 1008 l 718 965 l 310 965 q 210 931 246 965 q 175 825 175 897 l 175 531 l 661 526 l 661 485 l 175 479 l 175 186 q 214 76 175 103 q 321 49 253 49 l 718 49 l 718 6 l 650 3 q 500 -1 608 1 q 308 -4 392 -4 m 204 1135 q 242 1234 206 1203 q 329 1265 279 1265 q 386 1252 360 1265 q 451 1214 413 1239 q 509 1180 489 1190 q 553 1169 529 1169 q 624 1195 596 1169 q 651 1267 651 1221 l 682 1267 q 647 1171 681 1207 q 553 1135 613 1135 q 500 1147 525 1135 q 438 1183 475 1160 q 377 1219 400 1208 q 329 1231 354 1231 q 263 1207 289 1231 q 235 1135 236 1183 l 204 1135 z "},"F":{"ha":776,"x_min":118,"x_max":718,"o":"m 118 831 q 169 973 118 928 q 297 1018 221 1018 q 718 1008 469 1018 l 718 965 l 308 965 q 210 931 244 965 q 175 825 175 896 l 175 511 l 661 506 l 661 464 l 175 460 l 175 0 l 118 0 l 118 831 z "},"Ḟ":{"ha":776,"x_min":118,"x_max":718,"o":"m 118 831 q 169 973 118 928 q 297 1018 221 1018 q 718 1008 469 1018 l 718 965 l 308 965 q 210 931 244 965 q 175 825 175 896 l 175 511 l 661 506 l 661 464 l 175 460 l 175 0 l 118 0 l 118 831 m 417 1151 q 403 1157 408 1151 q 399 1169 399 1163 l 399 1263 q 417 1281 399 1281 l 443 1281 q 461 1263 461 1281 l 461 1169 q 456 1156 461 1161 q 443 1151 450 1151 l 417 1151 z "},"G":{"ha":896,"x_min":93,"x_max":779,"o":"m 421 -7 q 221 44 292 -7 q 122 206 150 94 q 93 514 93 318 q 123 808 93 697 q 224 973 153 919 q 421 1026 296 1026 q 581 1018 488 1026 q 740 997 674 1010 l 740 956 q 425 975 550 975 q 258 928 318 975 q 174 781 199 881 q 150 511 150 682 q 174 228 150 326 q 260 88 199 131 q 436 46 321 46 q 579 65 503 46 q 722 111 656 83 l 722 469 l 442 469 l 442 508 q 665 522 544 522 q 779 515 731 522 l 779 0 l 739 0 l 728 74 q 581 17 661 40 q 421 -7 500 -7 z "},"Ğ":{"ha":896,"x_min":93,"x_max":779,"o":"m 421 -7 q 221 44 292 -7 q 122 206 150 94 q 93 514 93 318 q 123 808 93 697 q 224 973 153 919 q 421 1026 296 1026 q 581 1018 488 1026 q 740 997 674 1010 l 740 956 q 425 975 550 975 q 258 928 318 975 q 174 781 199 881 q 150 511 150 682 q 174 228 150 326 q 260 88 199 131 q 436 46 321 46 q 579 65 503 46 q 722 111 656 83 l 722 469 l 442 469 l 442 508 q 665 522 544 522 q 779 515 731 522 l 779 0 l 739 0 l 728 74 q 581 17 661 40 q 421 -7 500 -7 m 447 1100 q 322 1144 372 1100 q 272 1289 272 1188 l 303 1289 q 342 1168 303 1207 q 443 1129 382 1129 q 555 1166 515 1129 q 594 1289 594 1203 l 625 1289 q 574 1143 625 1186 q 447 1100 524 1100 z "},"Ǧ":{"ha":896,"x_min":93,"x_max":779,"o":"m 421 -7 q 221 44 292 -7 q 122 206 150 94 q 93 514 93 318 q 123 808 93 697 q 224 973 153 919 q 421 1026 296 1026 q 581 1018 488 1026 q 740 997 674 1010 l 740 956 q 425 975 550 975 q 258 928 318 975 q 174 781 199 881 q 150 511 150 682 q 174 228 150 326 q 260 88 199 131 q 436 46 321 46 q 579 65 503 46 q 722 111 656 83 l 722 469 l 442 469 l 442 508 q 665 522 544 522 q 779 515 731 522 l 779 0 l 739 0 l 728 74 q 581 17 661 40 q 421 -7 500 -7 m 272 1282 l 310 1282 l 457 1129 l 619 1282 l 657 1282 l 478 1099 l 435 1099 l 272 1282 z "},"Ĝ":{"ha":896,"x_min":93,"x_max":779,"o":"m 421 -7 q 221 44 292 -7 q 122 206 150 94 q 93 514 93 318 q 123 808 93 697 q 224 973 153 919 q 421 1026 296 1026 q 581 1018 488 1026 q 740 997 674 1010 l 740 956 q 425 975 550 975 q 258 928 318 975 q 174 781 199 881 q 150 511 150 682 q 174 228 150 326 q 260 88 199 131 q 436 46 321 46 q 579 65 503 46 q 722 111 656 83 l 722 469 l 442 469 l 442 508 q 665 522 544 522 q 779 515 731 522 l 779 0 l 739 0 l 728 74 q 581 17 661 40 q 421 -7 500 -7 m 439 1282 l 482 1282 l 644 1099 l 607 1099 l 460 1251 l 297 1099 l 260 1099 l 439 1282 z "},"Ģ":{"ha":896,"x_min":93,"x_max":779,"o":"m 421 -7 q 221 44 292 -7 q 122 206 150 94 q 93 514 93 318 q 123 808 93 697 q 224 973 153 919 q 421 1026 296 1026 q 581 1018 488 1026 q 740 997 674 1010 l 740 956 q 425 975 550 975 q 258 928 318 975 q 174 781 199 881 q 150 511 150 682 q 174 228 150 326 q 260 88 199 131 q 436 46 321 46 q 579 65 503 46 q 722 111 656 83 l 722 469 l 442 469 l 442 508 q 665 522 544 522 q 779 515 731 522 l 779 0 l 739 0 l 728 74 q 581 17 661 40 q 421 -7 500 -7 m 350 -247 l 393 -242 q 457 -226 435 -237 q 491 -181 479 -214 q 501 -79 503 -147 l 539 -79 q 527 -193 539 -153 q 484 -251 515 -233 q 392 -269 453 -269 l 350 -269 l 350 -247 z "},"Ġ":{"ha":896,"x_min":93,"x_max":779,"o":"m 421 -7 q 221 44 292 -7 q 122 206 150 94 q 93 514 93 318 q 123 808 93 697 q 224 973 153 919 q 421 1026 296 1026 q 581 1018 488 1026 q 740 997 674 1010 l 740 956 q 425 975 550 975 q 258 928 318 975 q 174 781 199 881 q 150 511 150 682 q 174 228 150 326 q 260 88 199 131 q 436 46 321 46 q 579 65 503 46 q 722 111 656 83 l 722 469 l 442 469 l 442 508 q 665 522 544 522 q 779 515 731 522 l 779 0 l 739 0 l 728 74 q 581 17 661 40 q 421 -7 500 -7 m 443 1151 q 430 1157 435 1151 q 425 1169 425 1163 l 425 1263 q 443 1281 425 1281 l 469 1281 q 488 1263 488 1281 l 488 1169 q 482 1156 488 1161 q 469 1151 476 1151 l 443 1151 z "},"Ḡ":{"ha":896,"x_min":93,"x_max":779,"o":"m 421 -7 q 221 44 292 -7 q 122 206 150 94 q 93 514 93 318 q 123 808 93 697 q 224 973 153 919 q 421 1026 296 1026 q 581 1018 488 1026 q 740 997 674 1010 l 740 956 q 425 975 550 975 q 258 928 318 975 q 174 781 199 881 q 150 511 150 682 q 174 228 150 326 q 260 88 199 131 q 436 46 321 46 q 579 65 503 46 q 722 111 656 83 l 722 469 l 442 469 l 442 508 q 665 522 544 522 q 779 515 731 522 l 779 0 l 739 0 l 728 74 q 581 17 661 40 q 421 -7 500 -7 m 269 1208 l 625 1208 l 625 1174 l 269 1174 l 269 1208 z "},"H":{"ha":929,"x_min":118,"x_max":813,"o":"m 118 1018 l 175 1018 l 175 519 l 756 519 l 756 1018 l 813 1018 l 813 0 l 756 0 l 756 468 l 175 468 l 175 0 l 118 0 l 118 1018 z "},"Ħ":{"ha":929,"x_min":22,"x_max":907,"o":"m 907 735 l 813 735 l 813 0 l 756 0 l 756 468 l 175 468 l 175 0 l 118 0 l 118 735 l 22 735 l 22 775 l 118 775 l 118 1018 l 175 1018 l 175 775 l 756 775 l 756 1018 l 813 1018 l 813 775 l 907 775 l 907 735 m 756 735 l 175 735 l 175 519 l 756 519 l 756 735 z "},"Ḫ":{"ha":929,"x_min":118,"x_max":813,"o":"m 118 1018 l 175 1018 l 175 519 l 756 519 l 756 1018 l 813 1018 l 813 0 l 756 0 l 756 468 l 175 468 l 175 0 l 118 0 l 118 1018 m 457 -303 q 332 -259 382 -303 q 282 -114 282 -215 l 313 -114 q 352 -235 313 -196 q 453 -274 392 -274 q 565 -237 525 -274 q 604 -114 604 -200 l 635 -114 q 584 -260 635 -217 q 457 -303 533 -303 z "},"Ĥ":{"ha":929,"x_min":118,"x_max":813,"o":"m 118 1018 l 175 1018 l 175 519 l 756 519 l 756 1018 l 813 1018 l 813 0 l 756 0 l 756 468 l 175 468 l 175 0 l 118 0 l 118 1018 m 447 1282 l 490 1282 l 653 1099 l 615 1099 l 468 1251 l 306 1099 l 268 1099 l 447 1282 z "},"Ḥ":{"ha":929,"x_min":118,"x_max":813,"o":"m 118 1018 l 175 1018 l 175 519 l 756 519 l 756 1018 l 813 1018 l 813 0 l 756 0 l 756 468 l 175 468 l 175 0 l 118 0 l 118 1018 m 450 -279 q 437 -274 442 -279 q 432 -261 432 -268 l 432 -168 q 450 -150 432 -150 l 476 -150 q 494 -168 494 -150 l 494 -261 q 489 -274 494 -269 q 476 -279 483 -279 l 450 -279 z "},"I":{"ha":292,"x_min":118,"x_max":175,"o":"m 118 1018 l 175 1018 l 175 0 l 118 0 l 118 1018 z "},"Í":{"ha":292,"x_min":118,"x_max":349,"o":"m 118 1018 l 175 1018 l 175 0 l 118 0 l 118 1018 m 294 1285 l 349 1285 l 167 1099 l 133 1099 l 294 1285 z "},"Ĭ":{"ha":292,"x_min":-39,"x_max":314,"o":"m 118 1018 l 175 1018 l 175 0 l 118 0 l 118 1018 m 136 1100 q 11 1144 61 1100 q -39 1289 -39 1188 l -8 1289 q 31 1168 -8 1207 q 132 1129 71 1129 q 244 1166 204 1129 q 283 1289 283 1203 l 314 1289 q 263 1143 314 1186 q 136 1100 213 1100 z "},"Î":{"ha":292,"x_min":-51,"x_max":333,"o":"m 118 1018 l 175 1018 l 175 0 l 118 0 l 118 1018 m 128 1282 l 171 1282 l 333 1099 l 296 1099 l 149 1251 l -14 1099 l -51 1099 l 128 1282 z "},"Ȉ":{"ha":292,"x_min":-119,"x_max":274,"o":"m 118 1018 l 175 1018 l 175 0 l 118 0 l 118 1018 m -119 1285 l -65 1285 l 96 1099 l 63 1099 l -119 1285 m 58 1285 l 113 1285 l 274 1099 l 240 1099 l 58 1285 z "},"Ï":{"ha":292,"x_min":-69,"x_max":338,"o":"m 118 1018 l 175 1018 l 175 0 l 118 0 l 118 1018 m -51 1142 q -65 1147 -60 1142 q -69 1160 -69 1153 l -69 1253 q -51 1271 -69 1271 l -25 1271 q -7 1253 -7 1271 l -7 1160 q -25 1142 -7 1142 l -51 1142 m 293 1142 q 281 1147 286 1142 q 275 1160 275 1153 l 275 1253 q 293 1271 275 1271 l 319 1271 q 338 1253 338 1271 l 338 1160 q 319 1142 338 1142 l 293 1142 z "},"Ḯ":{"ha":292,"x_min":-69,"x_max":347,"o":"m 118 1018 l 175 1018 l 175 0 l 118 0 l 118 1018 m -51 1142 q -65 1147 -60 1142 q -69 1160 -69 1153 l -69 1253 q -51 1271 -69 1271 l -25 1271 q -7 1253 -7 1271 l -7 1160 q -25 1142 -7 1142 l -51 1142 m 293 1142 q 281 1147 286 1142 q 275 1160 275 1153 l 275 1253 q 293 1271 275 1271 l 319 1271 q 338 1253 338 1271 l 338 1160 q 319 1142 338 1142 l 293 1142 m 293 1499 l 347 1499 l 165 1313 l 132 1313 l 293 1499 z "},"İ":{"ha":292,"x_min":114,"x_max":176,"o":"m 118 1018 l 175 1018 l 175 0 l 118 0 l 118 1018 m 132 1151 q 119 1157 124 1151 q 114 1169 114 1163 l 114 1263 q 132 1281 114 1281 l 158 1281 q 176 1263 176 1281 l 176 1169 q 171 1156 176 1161 q 158 1151 165 1151 l 132 1151 z "},"Ị":{"ha":292,"x_min":113,"x_max":175,"o":"m 118 1018 l 175 1018 l 175 0 l 118 0 l 118 1018 m 131 -279 q 117 -274 122 -279 q 113 -261 113 -268 l 113 -168 q 131 -150 113 -150 l 157 -150 q 175 -168 175 -150 l 175 -261 q 169 -274 175 -269 q 157 -279 164 -279 l 131 -279 z "},"Ì":{"ha":292,"x_min":-54,"x_max":175,"o":"m 118 1018 l 175 1018 l 175 0 l 118 0 l 118 1018 m -54 1285 l 0 1285 l 161 1099 l 128 1099 l -54 1285 z "},"Ỉ":{"ha":292,"x_min":82,"x_max":246,"o":"m 118 1018 l 175 1018 l 175 0 l 118 0 l 118 1018 m 121 1099 q 190 1139 168 1114 q 213 1194 213 1164 q 194 1251 213 1232 q 133 1269 175 1269 q 82 1261 107 1269 l 82 1289 q 140 1297 106 1297 q 219 1269 193 1297 q 246 1194 246 1242 q 215 1121 246 1154 q 121 1069 183 1088 l 121 1099 z "},"Ȋ":{"ha":292,"x_min":-37,"x_max":315,"o":"m 118 1018 l 175 1018 l 175 0 l 118 0 l 118 1018 m 140 1289 q 265 1245 215 1289 q 315 1100 315 1201 l 285 1100 q 245 1221 285 1182 q 144 1260 206 1260 q 33 1223 72 1260 q -7 1100 -7 1186 l -37 1100 q 13 1246 -37 1203 q 140 1289 64 1289 z "},"Ī":{"ha":292,"x_min":-42,"x_max":314,"o":"m 118 1018 l 175 1018 l 175 0 l 118 0 l 118 1018 m -42 1208 l 314 1208 l 314 1174 l -42 1174 l -42 1208 z "},"Į":{"ha":292,"x_min":39,"x_max":217,"o":"m 118 1018 l 175 1018 l 175 0 l 118 0 l 118 1018 m 185 -254 q 79 -222 119 -254 q 39 -133 39 -189 q 67 -60 39 -94 q 150 0 94 -25 l 175 0 q 101 -56 126 -25 q 75 -122 75 -87 q 109 -197 75 -171 q 208 -222 143 -222 l 217 -222 l 217 -253 q 185 -254 206 -254 z "},"Ĩ":{"ha":292,"x_min":-81,"x_max":397,"o":"m 118 1018 l 175 1018 l 175 0 l 118 0 l 118 1018 m -81 1135 q -42 1234 -79 1203 q 44 1265 -6 1265 q 101 1252 75 1265 q 167 1214 128 1239 q 224 1180 204 1190 q 268 1169 244 1169 q 339 1195 311 1169 q 367 1267 367 1221 l 397 1267 q 362 1171 396 1207 q 268 1135 328 1135 q 215 1147 240 1135 q 153 1183 190 1160 q 92 1219 115 1208 q 44 1231 69 1231 q -22 1207 4 1231 q -50 1135 -49 1183 l -81 1135 z "},"J":{"ha":519,"x_min":38,"x_max":401,"o":"m 189 -8 q 110 1 153 -8 q 38 25 67 11 l 38 67 q 113 50 72 57 q 182 43 153 43 q 303 78 263 43 q 344 213 344 114 l 344 1018 l 401 1018 l 401 208 q 349 40 401 89 q 189 -8 297 -8 z "},"Ĵ":{"ha":519,"x_min":38,"x_max":561,"o":"m 189 -8 q 110 1 153 -8 q 38 25 67 11 l 38 67 q 113 50 72 57 q 182 43 153 43 q 303 78 263 43 q 344 213 344 114 l 344 1018 l 401 1018 l 401 208 q 349 40 401 89 q 189 -8 297 -8 m 356 1282 l 399 1282 l 561 1099 l 524 1099 l 376 1251 l 214 1099 l 176 1099 l 356 1282 z "},"K":{"ha":810,"x_min":118,"x_max":760,"o":"m 118 1018 l 175 1018 l 175 536 l 379 536 l 697 1018 l 758 1018 l 424 510 l 760 0 l 697 0 l 378 483 l 175 483 l 175 0 l 118 0 l 118 1018 z "},"Ķ":{"ha":810,"x_min":118,"x_max":760,"o":"m 118 1018 l 175 1018 l 175 536 l 379 536 l 697 1018 l 758 1018 l 424 510 l 760 0 l 697 0 l 378 483 l 175 483 l 175 0 l 118 0 l 118 1018 m 272 -247 l 315 -242 q 379 -226 357 -237 q 413 -181 401 -214 q 424 -79 425 -147 l 461 -79 q 449 -193 461 -153 q 406 -251 438 -233 q 314 -269 375 -269 l 272 -269 l 272 -247 z "},"L":{"ha":736,"x_min":118,"x_max":697,"o":"m 301 0 q 118 185 118 0 l 118 1018 l 175 1018 l 175 189 q 212 82 175 110 q 310 54 249 54 l 697 54 l 697 0 l 301 0 z "},"Ĺ":{"ha":736,"x_min":118,"x_max":697,"o":"m 301 0 q 118 185 118 0 l 118 1018 l 175 1018 l 175 189 q 212 82 175 110 q 310 54 249 54 l 697 54 l 697 0 l 301 0 m 294 1285 l 349 1285 l 167 1099 l 133 1099 l 294 1285 z "},"Ľ":{"ha":736,"x_min":118,"x_max":697,"o":"m 301 0 q 118 185 118 0 l 118 1018 l 175 1018 l 175 189 q 212 82 175 110 q 310 54 249 54 l 697 54 l 697 0 l 301 0 m 308 1007 l 308 1088 l 363 1088 l 363 1007 l 357 808 l 315 808 l 308 1007 z "},"Ļ":{"ha":736,"x_min":118,"x_max":697,"o":"m 301 0 q 118 185 118 0 l 118 1018 l 175 1018 l 175 189 q 212 82 175 110 q 310 54 249 54 l 697 54 l 697 0 l 301 0 m 254 -247 l 297 -242 q 361 -226 339 -237 q 395 -181 383 -214 q 406 -79 407 -147 l 443 -79 q 431 -193 443 -153 q 388 -251 419 -233 q 296 -269 357 -269 l 254 -269 l 254 -247 z "},"Ŀ":{"ha":736,"x_min":118,"x_max":697,"o":"m 301 0 q 118 185 118 0 l 118 1018 l 175 1018 l 175 189 q 212 82 175 110 q 310 54 249 54 l 697 54 l 697 0 l 301 0 m 513 500 q 499 506 504 500 q 493 518 493 511 l 493 550 q 513 568 493 568 l 542 568 q 560 550 560 568 l 560 518 q 542 500 560 500 l 513 500 z "},"Ḷ":{"ha":736,"x_min":118,"x_max":697,"o":"m 301 0 q 118 185 118 0 l 118 1018 l 175 1018 l 175 189 q 212 82 175 110 q 310 54 249 54 l 697 54 l 697 0 l 301 0 m 351 -279 q 338 -274 343 -279 q 333 -261 333 -268 l 333 -168 q 351 -150 333 -150 l 378 -150 q 396 -168 396 -150 l 396 -261 q 390 -274 396 -269 q 378 -279 385 -279 l 351 -279 z "},"Ḻ":{"ha":736,"x_min":118,"x_max":697,"o":"m 301 0 q 118 185 118 0 l 118 1018 l 175 1018 l 175 189 q 212 82 175 110 q 310 54 249 54 l 697 54 l 697 0 l 301 0 m 181 -208 l 536 -208 l 536 -243 l 181 -243 l 181 -208 z "},"Ł":{"ha":736,"x_min":7,"x_max":697,"o":"m 697 54 l 697 0 l 301 0 q 118 185 118 0 l 118 490 l 7 444 l 7 485 l 118 531 l 118 1018 l 175 1018 l 175 549 l 369 633 l 369 594 l 175 510 l 175 189 q 212 82 175 110 q 310 54 249 54 l 697 54 z "},"M":{"ha":1124,"x_min":90,"x_max":1033,"o":"m 978 0 l 869 938 l 588 0 l 536 0 l 247 936 l 144 0 l 90 0 l 203 1018 l 269 1018 l 561 82 l 847 1018 l 917 1018 l 1033 0 l 978 0 z "},"Ṁ":{"ha":1124,"x_min":90,"x_max":1033,"o":"m 978 0 l 869 938 l 588 0 l 536 0 l 247 936 l 144 0 l 90 0 l 203 1018 l 269 1018 l 561 82 l 847 1018 l 917 1018 l 1033 0 l 978 0 m 546 1151 q 533 1157 538 1151 q 528 1169 528 1163 l 528 1263 q 546 1281 528 1281 l 572 1281 q 590 1263 590 1281 l 590 1169 q 585 1156 590 1161 q 572 1151 579 1151 l 546 1151 z "},"Ṃ":{"ha":1124,"x_min":90,"x_max":1033,"o":"m 978 0 l 869 938 l 588 0 l 536 0 l 247 936 l 144 0 l 90 0 l 203 1018 l 269 1018 l 561 82 l 847 1018 l 917 1018 l 1033 0 l 978 0 m 544 -279 q 531 -274 536 -279 q 526 -261 526 -268 l 526 -168 q 544 -150 526 -150 l 571 -150 q 589 -168 589 -150 l 589 -261 q 583 -274 589 -269 q 571 -279 578 -279 l 544 -279 z "},"N":{"ha":931,"x_min":143,"x_max":839,"o":"m 143 1018 l 192 1018 l 782 101 l 782 1018 l 839 1018 l 839 0 l 790 0 l 200 918 l 200 0 l 143 0 l 143 1018 z "},"Ń":{"ha":931,"x_min":143,"x_max":839,"o":"m 143 1018 l 192 1018 l 782 101 l 782 1018 l 839 1018 l 839 0 l 790 0 l 200 918 l 200 0 l 143 0 l 143 1018 m 618 1285 l 672 1285 l 490 1099 l 457 1099 l 618 1285 z "},"Ň":{"ha":931,"x_min":143,"x_max":839,"o":"m 143 1018 l 192 1018 l 782 101 l 782 1018 l 839 1018 l 839 0 l 790 0 l 200 918 l 200 0 l 143 0 l 143 1018 m 285 1282 l 322 1282 l 469 1129 l 632 1282 l 669 1282 l 490 1099 l 447 1099 l 285 1282 z "},"Ņ":{"ha":931,"x_min":143,"x_max":839,"o":"m 143 1018 l 192 1018 l 782 101 l 782 1018 l 839 1018 l 839 0 l 790 0 l 200 918 l 200 0 l 143 0 l 143 1018 m 357 -247 l 400 -242 q 464 -226 442 -237 q 498 -181 486 -214 q 508 -79 510 -147 l 546 -79 q 534 -193 546 -153 q 491 -251 522 -233 q 399 -269 460 -269 l 357 -269 l 357 -247 z "},"Ṅ":{"ha":931,"x_min":143,"x_max":839,"o":"m 143 1018 l 192 1018 l 782 101 l 782 1018 l 839 1018 l 839 0 l 790 0 l 200 918 l 200 0 l 143 0 l 143 1018 m 454 -279 q 441 -274 446 -279 q 436 -261 436 -268 l 436 -168 q 454 -150 436 -150 l 481 -150 q 499 -168 499 -150 l 499 -261 q 493 -274 499 -269 q 481 -279 488 -279 l 454 -279 z "},"Ṇ":{"ha":931,"x_min":143,"x_max":839,"o":"m 143 1018 l 192 1018 l 782 101 l 782 1018 l 839 1018 l 839 0 l 790 0 l 200 918 l 200 0 l 143 0 l 143 1018 m 454 -279 q 441 -274 446 -279 q 436 -261 436 -268 l 436 -168 q 454 -150 436 -150 l 481 -150 q 499 -168 499 -150 l 499 -261 q 493 -274 499 -269 q 481 -279 488 -279 l 454 -279 z "},"Ŋ":{"ha":929,"x_min":143,"x_max":839,"o":"m 839 1018 l 839 -121 q 781 -289 839 -240 q 603 -337 722 -337 q 524 -328 567 -337 q 451 -304 482 -318 l 451 -262 q 526 -279 485 -272 q 597 -286 568 -286 q 735 -251 688 -286 q 782 -117 782 -215 l 782 13 l 200 918 l 200 0 l 143 0 l 143 1018 l 192 1018 l 782 101 l 782 1018 l 839 1018 z "},"Ṉ":{"ha":931,"x_min":143,"x_max":839,"o":"m 143 1018 l 192 1018 l 782 101 l 782 1018 l 839 1018 l 839 0 l 790 0 l 200 918 l 200 0 l 143 0 l 143 1018 m 283 -208 l 639 -208 l 639 -243 l 283 -243 l 283 -208 z "},"Ñ":{"ha":931,"x_min":143,"x_max":839,"o":"m 143 1018 l 192 1018 l 782 101 l 782 1018 l 839 1018 l 839 0 l 790 0 l 200 918 l 200 0 l 143 0 l 143 1018 m 243 1135 q 281 1234 244 1203 q 368 1265 318 1265 q 425 1252 399 1265 q 490 1214 451 1239 q 548 1180 528 1190 q 592 1169 568 1169 q 663 1195 635 1169 q 690 1267 690 1221 l 721 1267 q 685 1171 719 1207 q 592 1135 651 1135 q 539 1147 564 1135 q 476 1183 514 1160 q 416 1219 439 1208 q 368 1231 393 1231 q 301 1207 328 1231 q 274 1135 275 1183 l 243 1135 z "},"O":{"ha":943,"x_min":93,"x_max":851,"o":"m 472 -8 q 253 28 332 -8 q 133 174 174 64 q 93 503 93 285 q 135 834 93 721 q 256 987 176 947 q 472 1026 336 1026 q 691 987 611 1026 q 811 835 771 947 q 851 503 851 722 q 811 174 851 285 q 692 28 771 64 q 472 -8 613 -8 m 472 43 q 663 76 596 43 q 762 208 729 110 q 794 503 794 306 q 762 810 794 710 q 663 943 729 911 q 472 975 597 975 q 287 942 354 975 q 185 808 219 910 q 150 503 150 707 q 181 207 150 304 q 278 76 211 110 q 472 43 344 43 z "},"Ó":{"ha":943,"x_min":93,"x_max":851,"o":"m 472 -8 q 253 28 332 -8 q 133 174 174 64 q 93 503 93 285 q 135 834 93 721 q 256 987 176 947 q 472 1026 336 1026 q 691 987 611 1026 q 811 835 771 947 q 851 503 851 722 q 811 174 851 285 q 692 28 771 64 q 472 -8 613 -8 m 472 43 q 663 76 596 43 q 762 208 729 110 q 794 503 794 306 q 762 810 794 710 q 663 943 729 911 q 472 975 597 975 q 287 942 354 975 q 185 808 219 910 q 150 503 150 707 q 181 207 150 304 q 278 76 211 110 q 472 43 344 43 m 621 1285 l 675 1285 l 493 1099 l 460 1099 l 621 1285 z "},"Ŏ":{"ha":943,"x_min":93,"x_max":851,"o":"m 472 -8 q 253 28 332 -8 q 133 174 174 64 q 93 503 93 285 q 135 834 93 721 q 256 987 176 947 q 472 1026 336 1026 q 691 987 611 1026 q 811 835 771 947 q 851 503 851 722 q 811 174 851 285 q 692 28 771 64 q 472 -8 613 -8 m 472 43 q 663 76 596 43 q 762 208 729 110 q 794 503 794 306 q 762 810 794 710 q 663 943 729 911 q 472 975 597 975 q 287 942 354 975 q 185 808 219 910 q 150 503 150 707 q 181 207 150 304 q 278 76 211 110 q 472 43 344 43 m 463 1100 q 338 1144 388 1100 q 288 1289 288 1188 l 318 1289 q 358 1168 318 1207 q 458 1129 397 1129 q 570 1166 531 1129 q 610 1289 610 1203 l 640 1289 q 590 1143 640 1186 q 463 1100 539 1100 z "},"Ô":{"ha":943,"x_min":93,"x_max":851,"o":"m 472 -8 q 253 28 332 -8 q 133 174 174 64 q 93 503 93 285 q 135 834 93 721 q 256 987 176 947 q 472 1026 336 1026 q 691 987 611 1026 q 811 835 771 947 q 851 503 851 722 q 811 174 851 285 q 692 28 771 64 q 472 -8 613 -8 m 472 43 q 663 76 596 43 q 762 208 729 110 q 794 503 794 306 q 762 810 794 710 q 663 943 729 911 q 472 975 597 975 q 287 942 354 975 q 185 808 219 910 q 150 503 150 707 q 181 207 150 304 q 278 76 211 110 q 472 43 344 43 m 454 1282 l 497 1282 l 660 1099 l 622 1099 l 475 1251 l 313 1099 l 275 1099 l 454 1282 z "},"Ố":{"ha":943,"x_min":93,"x_max":851,"o":"m 472 -8 q 253 28 332 -8 q 133 174 174 64 q 93 503 93 285 q 135 834 93 721 q 256 987 176 947 q 472 1026 336 1026 q 691 987 611 1026 q 811 835 771 947 q 851 503 851 722 q 811 174 851 285 q 692 28 771 64 q 472 -8 613 -8 m 472 43 q 663 76 596 43 q 762 208 729 110 q 794 503 794 306 q 762 810 794 710 q 663 943 729 911 q 472 975 597 975 q 287 942 354 975 q 185 808 219 910 q 150 503 150 707 q 181 207 150 304 q 278 76 211 110 q 472 43 344 43 m 789 1382 l 614 1199 l 581 1199 l 735 1382 l 789 1382 m 497 1228 l 660 1099 l 621 1099 l 475 1197 l 313 1099 l 275 1099 l 454 1228 l 497 1228 z "},"Ộ":{"ha":943,"x_min":93,"x_max":851,"o":"m 472 -8 q 253 28 332 -8 q 133 174 174 64 q 93 503 93 285 q 135 834 93 721 q 256 987 176 947 q 472 1026 336 1026 q 691 987 611 1026 q 811 835 771 947 q 851 503 851 722 q 811 174 851 285 q 692 28 771 64 q 472 -8 613 -8 m 472 43 q 663 76 596 43 q 762 208 729 110 q 794 503 794 306 q 762 810 794 710 q 663 943 729 911 q 472 975 597 975 q 287 942 354 975 q 185 808 219 910 q 150 503 150 707 q 181 207 150 304 q 278 76 211 110 q 472 43 344 43 m 454 1282 l 497 1282 l 660 1099 l 622 1099 l 475 1251 l 313 1099 l 275 1099 l 454 1282 m 457 -279 q 444 -274 449 -279 q 439 -261 439 -268 l 439 -168 q 457 -150 439 -150 l 483 -150 q 501 -168 501 -150 l 501 -261 q 496 -274 501 -269 q 483 -279 490 -279 l 457 -279 z "},"Ồ":{"ha":943,"x_min":93,"x_max":851,"o":"m 472 -8 q 253 28 332 -8 q 133 174 174 64 q 93 503 93 285 q 135 834 93 721 q 256 987 176 947 q 472 1026 336 1026 q 691 987 611 1026 q 811 835 771 947 q 851 503 851 722 q 811 174 851 285 q 692 28 771 64 q 472 -8 613 -8 m 472 43 q 663 76 596 43 q 762 208 729 110 q 794 503 794 306 q 762 810 794 710 q 663 943 729 911 q 472 975 597 975 q 287 942 354 975 q 185 808 219 910 q 150 503 150 707 q 181 207 150 304 q 278 76 211 110 q 472 43 344 43 m 208 1382 l 363 1199 l 329 1199 l 154 1382 l 208 1382 m 497 1228 l 660 1099 l 621 1099 l 475 1197 l 313 1099 l 275 1099 l 454 1228 l 497 1228 z "},"Ổ":{"ha":943,"x_min":93,"x_max":851,"o":"m 472 -8 q 253 28 332 -8 q 133 174 174 64 q 93 503 93 285 q 135 834 93 721 q 256 987 176 947 q 472 1026 336 1026 q 691 987 611 1026 q 811 835 771 947 q 851 503 851 722 q 811 174 851 285 q 692 28 771 64 q 472 -8 613 -8 m 472 43 q 663 76 596 43 q 762 208 729 110 q 794 503 794 306 q 762 810 794 710 q 663 943 729 911 q 472 975 597 975 q 287 942 354 975 q 185 808 219 910 q 150 503 150 707 q 181 207 150 304 q 278 76 211 110 q 472 43 344 43 m 613 1197 q 696 1281 696 1224 q 625 1342 696 1342 q 574 1333 599 1342 l 574 1360 q 632 1369 601 1369 q 704 1346 681 1369 q 728 1281 728 1322 q 699 1214 728 1244 q 613 1168 669 1183 l 613 1197 m 454 1228 l 497 1228 l 660 1099 l 621 1099 l 475 1197 l 313 1099 l 275 1099 l 454 1228 z "},"Ỗ":{"ha":943,"x_min":93,"x_max":851,"o":"m 472 -8 q 253 28 332 -8 q 133 174 174 64 q 93 503 93 285 q 135 834 93 721 q 256 987 176 947 q 472 1026 336 1026 q 691 987 611 1026 q 811 835 771 947 q 851 503 851 722 q 811 174 851 285 q 692 28 771 64 q 472 -8 613 -8 m 472 43 q 663 76 596 43 q 762 208 729 110 q 794 503 794 306 q 762 810 794 710 q 663 943 729 911 q 472 975 597 975 q 287 942 354 975 q 185 808 219 910 q 150 503 150 707 q 181 207 150 304 q 278 76 211 110 q 472 43 344 43 m 360 1397 q 415 1388 389 1397 q 476 1361 440 1379 q 533 1336 511 1344 q 578 1328 554 1328 q 640 1346 615 1328 q 664 1397 664 1364 l 694 1397 q 663 1323 693 1350 q 581 1296 633 1296 q 528 1305 553 1296 q 471 1331 503 1314 q 413 1356 438 1347 q 361 1364 388 1364 q 303 1347 326 1364 q 281 1294 281 1329 l 250 1294 q 283 1373 251 1349 q 360 1397 315 1397 m 660 1099 l 621 1099 l 475 1197 l 313 1099 l 275 1099 l 454 1228 l 497 1228 l 660 1099 z "},"Ȍ":{"ha":943,"x_min":93,"x_max":851,"o":"m 472 -8 q 253 28 332 -8 q 133 174 174 64 q 93 503 93 285 q 135 834 93 721 q 256 987 176 947 q 472 1026 336 1026 q 691 987 611 1026 q 811 835 771 947 q 851 503 851 722 q 811 174 851 285 q 692 28 771 64 q 472 -8 613 -8 m 472 43 q 663 76 596 43 q 762 208 729 110 q 794 503 794 306 q 762 810 794 710 q 663 943 729 911 q 472 975 597 975 q 287 942 354 975 q 185 808 219 910 q 150 503 150 707 q 181 207 150 304 q 278 76 211 110 q 472 43 344 43 m 207 1285 l 261 1285 l 422 1099 l 389 1099 l 207 1285 m 385 1285 l 439 1285 l 600 1099 l 567 1099 l 385 1285 z "},"Ö":{"ha":943,"x_min":93,"x_max":851,"o":"m 472 -8 q 253 28 332 -8 q 133 174 174 64 q 93 503 93 285 q 135 834 93 721 q 256 987 176 947 q 472 1026 336 1026 q 691 987 611 1026 q 811 835 771 947 q 851 503 851 722 q 811 174 851 285 q 692 28 771 64 q 472 -8 613 -8 m 472 43 q 663 76 596 43 q 762 208 729 110 q 794 503 794 306 q 762 810 794 710 q 663 943 729 911 q 472 975 597 975 q 287 942 354 975 q 185 808 219 910 q 150 503 150 707 q 181 207 150 304 q 278 76 211 110 q 472 43 344 43 m 275 1142 q 262 1147 267 1142 q 257 1160 257 1153 l 257 1253 q 275 1271 257 1271 l 301 1271 q 319 1253 319 1271 l 319 1160 q 301 1142 319 1142 l 275 1142 m 619 1142 q 607 1147 613 1142 q 601 1160 601 1153 l 601 1253 q 619 1271 601 1271 l 646 1271 q 664 1253 664 1271 l 664 1160 q 646 1142 664 1142 l 619 1142 z "},"Ȫ":{"ha":943,"x_min":93,"x_max":851,"o":"m 472 -8 q 253 28 332 -8 q 133 174 174 64 q 93 503 93 285 q 135 834 93 721 q 256 987 176 947 q 472 1026 336 1026 q 691 987 611 1026 q 811 835 771 947 q 851 503 851 722 q 811 174 851 285 q 692 28 771 64 q 472 -8 613 -8 m 472 43 q 663 76 596 43 q 762 208 729 110 q 794 503 794 306 q 762 810 794 710 q 663 943 729 911 q 472 975 597 975 q 287 942 354 975 q 185 808 219 910 q 150 503 150 707 q 181 207 150 304 q 278 76 211 110 q 472 43 344 43 m 300 1142 q 287 1147 292 1142 q 282 1160 282 1153 l 282 1253 q 300 1271 282 1271 l 326 1271 q 344 1253 344 1271 l 344 1160 q 326 1142 344 1142 l 300 1142 m 644 1142 q 632 1147 638 1142 q 626 1160 626 1153 l 626 1253 q 644 1271 626 1271 l 671 1271 q 689 1253 689 1271 l 689 1160 q 671 1142 689 1142 l 644 1142 m 310 1424 l 665 1424 l 665 1389 l 310 1389 l 310 1424 z "},"Ȱ":{"ha":943,"x_min":93,"x_max":851,"o":"m 472 -8 q 253 28 332 -8 q 133 174 174 64 q 93 503 93 285 q 135 834 93 721 q 256 987 176 947 q 472 1026 336 1026 q 691 987 611 1026 q 811 835 771 947 q 851 503 851 722 q 811 174 851 285 q 692 28 771 64 q 472 -8 613 -8 m 472 43 q 663 76 596 43 q 762 208 729 110 q 794 503 794 306 q 762 810 794 710 q 663 943 729 911 q 472 975 597 975 q 287 942 354 975 q 185 808 219 910 q 150 503 150 707 q 181 207 150 304 q 278 76 211 110 q 472 43 344 43 m 458 1151 q 445 1157 450 1151 q 440 1169 440 1163 l 440 1263 q 458 1281 440 1281 l 485 1281 q 503 1263 503 1281 l 503 1169 q 497 1156 503 1161 q 485 1151 492 1151 l 458 1151 m 285 1411 l 640 1411 l 640 1376 l 285 1376 l 285 1411 z "},"Ọ":{"ha":943,"x_min":93,"x_max":851,"o":"m 472 -8 q 253 28 332 -8 q 133 174 174 64 q 93 503 93 285 q 135 834 93 721 q 256 987 176 947 q 472 1026 336 1026 q 691 987 611 1026 q 811 835 771 947 q 851 503 851 722 q 811 174 851 285 q 692 28 771 64 q 472 -8 613 -8 m 472 43 q 663 76 596 43 q 762 208 729 110 q 794 503 794 306 q 762 810 794 710 q 663 943 729 911 q 472 975 597 975 q 287 942 354 975 q 185 808 219 910 q 150 503 150 707 q 181 207 150 304 q 278 76 211 110 q 472 43 344 43 m 457 -279 q 444 -274 449 -279 q 439 -261 439 -268 l 439 -168 q 457 -150 439 -150 l 483 -150 q 501 -168 501 -150 l 501 -261 q 496 -274 501 -269 q 483 -279 490 -279 l 457 -279 z "},"Ò":{"ha":943,"x_min":93,"x_max":851,"o":"m 472 -8 q 253 28 332 -8 q 133 174 174 64 q 93 503 93 285 q 135 834 93 721 q 256 987 176 947 q 472 1026 336 1026 q 691 987 611 1026 q 811 835 771 947 q 851 503 851 722 q 811 174 851 285 q 692 28 771 64 q 472 -8 613 -8 m 472 43 q 663 76 596 43 q 762 208 729 110 q 794 503 794 306 q 762 810 794 710 q 663 943 729 911 q 472 975 597 975 q 287 942 354 975 q 185 808 219 910 q 150 503 150 707 q 181 207 150 304 q 278 76 211 110 q 472 43 344 43 m 272 1285 l 326 1285 l 488 1099 l 454 1099 l 272 1285 z "},"Ỏ":{"ha":943,"x_min":93,"x_max":851,"o":"m 472 -8 q 253 28 332 -8 q 133 174 174 64 q 93 503 93 285 q 135 834 93 721 q 256 987 176 947 q 472 1026 336 1026 q 691 987 611 1026 q 811 835 771 947 q 851 503 851 722 q 811 174 851 285 q 692 28 771 64 q 472 -8 613 -8 m 472 43 q 663 76 596 43 q 762 208 729 110 q 794 503 794 306 q 762 810 794 710 q 663 943 729 911 q 472 975 597 975 q 287 942 354 975 q 185 808 219 910 q 150 503 150 707 q 181 207 150 304 q 278 76 211 110 q 472 43 344 43 m 447 1099 q 517 1139 494 1114 q 539 1194 539 1164 q 520 1251 539 1232 q 460 1269 501 1269 q 408 1261 433 1269 l 408 1289 q 467 1297 432 1297 q 546 1269 519 1297 q 572 1194 572 1242 q 541 1121 572 1154 q 447 1069 510 1088 l 447 1099 z "},"Ơ":{"ha":943,"x_min":93,"x_max":865,"o":"m 697 983 q 815 826 778 938 q 851 503 851 714 q 811 174 851 285 q 692 28 771 64 q 472 -8 613 -8 q 253 28 332 -8 q 133 174 174 64 q 93 503 93 285 q 135 834 93 721 q 256 987 176 947 q 472 1026 336 1026 q 594 1018 538 1026 l 706 1018 q 819 1178 819 1018 l 865 1178 q 821 1028 865 1072 q 710 983 776 983 l 697 983 m 472 43 q 663 76 596 43 q 762 208 729 110 q 794 503 794 306 q 762 810 794 710 q 663 943 729 911 q 472 975 597 975 q 287 942 354 975 q 185 808 219 910 q 150 503 150 707 q 181 207 150 304 q 278 76 211 110 q 472 43 344 43 z "},"Ớ":{"ha":943,"x_min":93,"x_max":865,"o":"m 697 983 q 815 826 778 938 q 851 503 851 714 q 811 174 851 285 q 692 28 771 64 q 472 -8 613 -8 q 253 28 332 -8 q 133 174 174 64 q 93 503 93 285 q 135 834 93 721 q 256 987 176 947 q 472 1026 336 1026 q 594 1018 538 1026 l 706 1018 q 819 1178 819 1018 l 865 1178 q 821 1028 865 1072 q 710 983 776 983 l 697 983 m 472 43 q 663 76 596 43 q 762 208 729 110 q 794 503 794 306 q 762 810 794 710 q 663 943 729 911 q 472 975 597 975 q 287 942 354 975 q 185 808 219 910 q 150 503 150 707 q 181 207 150 304 q 278 76 211 110 q 472 43 344 43 m 608 1285 l 663 1285 l 481 1099 l 447 1099 l 608 1285 z "},"Ợ":{"ha":943,"x_min":93,"x_max":865,"o":"m 697 983 q 815 826 778 938 q 851 503 851 714 q 811 174 851 285 q 692 28 771 64 q 472 -8 613 -8 q 253 28 332 -8 q 133 174 174 64 q 93 503 93 285 q 135 834 93 721 q 256 987 176 947 q 472 1026 336 1026 q 594 1018 538 1026 l 706 1018 q 819 1178 819 1018 l 865 1178 q 821 1028 865 1072 q 710 983 776 983 l 697 983 m 472 43 q 663 76 596 43 q 762 208 729 110 q 794 503 794 306 q 762 810 794 710 q 663 943 729 911 q 472 975 597 975 q 287 942 354 975 q 185 808 219 910 q 150 503 150 707 q 181 207 150 304 q 278 76 211 110 q 472 43 344 43 m 451 -279 q 438 -274 443 -279 q 433 -261 433 -268 l 433 -168 q 451 -150 433 -150 l 478 -150 q 496 -168 496 -150 l 496 -261 q 490 -274 496 -269 q 478 -279 485 -279 l 451 -279 z "},"Ờ":{"ha":943,"x_min":93,"x_max":865,"o":"m 697 983 q 815 826 778 938 q 851 503 851 714 q 811 174 851 285 q 692 28 771 64 q 472 -8 613 -8 q 253 28 332 -8 q 133 174 174 64 q 93 503 93 285 q 135 834 93 721 q 256 987 176 947 q 472 1026 336 1026 q 594 1018 538 1026 l 706 1018 q 819 1178 819 1018 l 865 1178 q 821 1028 865 1072 q 710 983 776 983 l 697 983 m 472 43 q 663 76 596 43 q 762 208 729 110 q 794 503 794 306 q 762 810 794 710 q 663 943 729 911 q 472 975 597 975 q 287 942 354 975 q 185 808 219 910 q 150 503 150 707 q 181 207 150 304 q 278 76 211 110 q 472 43 344 43 m 258 1285 l 313 1285 l 474 1099 l 440 1099 l 258 1285 z "},"Ở":{"ha":943,"x_min":93,"x_max":865,"o":"m 697 983 q 815 826 778 938 q 851 503 851 714 q 811 174 851 285 q 692 28 771 64 q 472 -8 613 -8 q 253 28 332 -8 q 133 174 174 64 q 93 503 93 285 q 135 834 93 721 q 256 987 176 947 q 472 1026 336 1026 q 594 1018 538 1026 l 706 1018 q 819 1178 819 1018 l 865 1178 q 821 1028 865 1072 q 710 983 776 983 l 697 983 m 472 43 q 663 76 596 43 q 762 208 729 110 q 794 503 794 306 q 762 810 794 710 q 663 943 729 911 q 472 975 597 975 q 287 942 354 975 q 185 808 219 910 q 150 503 150 707 q 181 207 150 304 q 278 76 211 110 q 472 43 344 43 m 449 1099 q 518 1139 496 1114 q 540 1194 540 1164 q 522 1251 540 1232 q 461 1269 503 1269 q 410 1261 435 1269 l 410 1289 q 468 1297 433 1297 q 547 1269 521 1297 q 574 1194 574 1242 q 542 1121 574 1154 q 449 1069 511 1088 l 449 1099 z "},"Ỡ":{"ha":943,"x_min":93,"x_max":865,"o":"m 697 983 q 815 826 778 938 q 851 503 851 714 q 811 174 851 285 q 692 28 771 64 q 472 -8 613 -8 q 253 28 332 -8 q 133 174 174 64 q 93 503 93 285 q 135 834 93 721 q 256 987 176 947 q 472 1026 336 1026 q 594 1018 538 1026 l 706 1018 q 819 1178 819 1018 l 865 1178 q 821 1028 865 1072 q 710 983 776 983 l 697 983 m 472 43 q 663 76 596 43 q 762 208 729 110 q 794 503 794 306 q 762 810 794 710 q 663 943 729 911 q 472 975 597 975 q 287 942 354 975 q 185 808 219 910 q 150 503 150 707 q 181 207 150 304 q 278 76 211 110 q 472 43 344 43 m 236 1135 q 274 1234 238 1203 q 361 1265 311 1265 q 418 1252 392 1265 q 483 1214 444 1239 q 541 1180 521 1190 q 585 1169 561 1169 q 656 1195 628 1169 q 683 1267 683 1221 l 714 1267 q 678 1171 713 1207 q 585 1135 644 1135 q 532 1147 557 1135 q 469 1183 507 1160 q 409 1219 432 1208 q 361 1231 386 1231 q 294 1207 321 1231 q 267 1135 268 1183 l 236 1135 z "},"Ő":{"ha":943,"x_min":93,"x_max":851,"o":"m 472 -8 q 253 28 332 -8 q 133 174 174 64 q 93 503 93 285 q 135 834 93 721 q 256 987 176 947 q 472 1026 336 1026 q 691 987 611 1026 q 811 835 771 947 q 851 503 851 722 q 811 174 851 285 q 692 28 771 64 q 472 -8 613 -8 m 472 43 q 663 76 596 43 q 762 208 729 110 q 794 503 794 306 q 762 810 794 710 q 663 943 729 911 q 472 975 597 975 q 287 942 354 975 q 185 808 219 910 q 150 503 150 707 q 181 207 150 304 q 278 76 211 110 q 472 43 344 43 m 481 1285 l 533 1285 l 354 1099 l 321 1099 l 481 1285 m 679 1285 l 731 1285 l 553 1099 l 519 1099 l 679 1285 z "},"Ȏ":{"ha":943,"x_min":93,"x_max":851,"o":"m 472 -8 q 253 28 332 -8 q 133 174 174 64 q 93 503 93 285 q 135 834 93 721 q 256 987 176 947 q 472 1026 336 1026 q 691 987 611 1026 q 811 835 771 947 q 851 503 851 722 q 811 174 851 285 q 692 28 771 64 q 472 -8 613 -8 m 472 43 q 663 76 596 43 q 762 208 729 110 q 794 503 794 306 q 762 810 794 710 q 663 943 729 911 q 472 975 597 975 q 287 942 354 975 q 185 808 219 910 q 150 503 150 707 q 181 207 150 304 q 278 76 211 110 q 472 43 344 43 m 467 1289 q 592 1245 542 1289 q 642 1100 642 1201 l 611 1100 q 572 1221 611 1182 q 471 1260 532 1260 q 359 1223 399 1260 q 319 1100 319 1186 l 289 1100 q 340 1246 289 1203 q 467 1289 390 1289 z "},"Ō":{"ha":943,"x_min":93,"x_max":851,"o":"m 472 -8 q 253 28 332 -8 q 133 174 174 64 q 93 503 93 285 q 135 834 93 721 q 256 987 176 947 q 472 1026 336 1026 q 691 987 611 1026 q 811 835 771 947 q 851 503 851 722 q 811 174 851 285 q 692 28 771 64 q 472 -8 613 -8 m 472 43 q 663 76 596 43 q 762 208 729 110 q 794 503 794 306 q 762 810 794 710 q 663 943 729 911 q 472 975 597 975 q 287 942 354 975 q 185 808 219 910 q 150 503 150 707 q 181 207 150 304 q 278 76 211 110 q 472 43 344 43 m 285 1208 l 640 1208 l 640 1174 l 285 1174 l 285 1208 z "},"Ṓ":{"ha":943,"x_min":93,"x_max":851,"o":"m 472 -8 q 253 28 332 -8 q 133 174 174 64 q 93 503 93 285 q 135 834 93 721 q 256 987 176 947 q 472 1026 336 1026 q 691 987 611 1026 q 811 835 771 947 q 851 503 851 722 q 811 174 851 285 q 692 28 771 64 q 472 -8 613 -8 m 472 43 q 663 76 596 43 q 762 208 729 110 q 794 503 794 306 q 762 810 794 710 q 663 943 729 911 q 472 975 597 975 q 287 942 354 975 q 185 808 219 910 q 150 503 150 707 q 181 207 150 304 q 278 76 211 110 q 472 43 344 43 m 285 1208 l 640 1208 l 640 1174 l 285 1174 l 285 1208 m 619 1457 l 674 1457 l 492 1271 l 458 1271 l 619 1457 z "},"Ṑ":{"ha":943,"x_min":93,"x_max":851,"o":"m 472 -8 q 253 28 332 -8 q 133 174 174 64 q 93 503 93 285 q 135 834 93 721 q 256 987 176 947 q 472 1026 336 1026 q 691 987 611 1026 q 811 835 771 947 q 851 503 851 722 q 811 174 851 285 q 692 28 771 64 q 472 -8 613 -8 m 472 43 q 663 76 596 43 q 762 208 729 110 q 794 503 794 306 q 762 810 794 710 q 663 943 729 911 q 472 975 597 975 q 287 942 354 975 q 185 808 219 910 q 150 503 150 707 q 181 207 150 304 q 278 76 211 110 q 472 43 344 43 m 285 1208 l 640 1208 l 640 1174 l 285 1174 l 285 1208 m 268 1457 l 322 1457 l 483 1271 l 450 1271 l 268 1457 z "},"Ǫ":{"ha":943,"x_min":93,"x_max":851,"o":"m 563 -4 q 494 -60 518 -29 q 471 -122 471 -90 q 505 -197 471 -171 q 604 -222 539 -222 l 613 -222 l 613 -253 q 581 -254 601 -254 q 475 -222 515 -254 q 435 -133 435 -189 q 459 -65 435 -97 q 532 -7 483 -32 q 472 -8 513 -8 q 253 28 332 -8 q 133 174 174 64 q 93 503 93 285 q 135 834 93 721 q 256 987 176 947 q 472 1026 336 1026 q 691 987 611 1026 q 811 835 771 947 q 851 503 851 722 q 820 204 851 311 q 727 51 789 97 q 563 -4 665 6 m 150 503 q 181 207 150 304 q 278 76 211 110 q 472 43 344 43 q 663 76 596 43 q 762 208 729 110 q 794 503 794 306 q 762 810 794 710 q 663 943 729 911 q 472 975 597 975 q 287 942 354 975 q 185 808 219 910 q 150 503 150 707 z "},"Ø":{"ha":943,"x_min":93,"x_max":851,"o":"m 767 921 q 831 762 810 863 q 851 503 851 661 q 811 174 851 285 q 692 28 771 64 q 472 -8 613 -8 q 312 7 376 -8 q 203 64 247 22 l 161 0 l 113 0 l 175 94 q 113 250 133 151 q 93 503 93 349 q 135 834 93 721 q 256 987 176 947 q 472 1026 336 1026 q 631 1010 567 1026 q 739 953 694 994 l 782 1018 l 831 1018 l 767 921 m 150 503 q 163 281 150 367 q 207 144 176 194 l 710 907 q 617 961 672 947 q 472 975 561 975 q 287 942 354 975 q 185 808 219 910 q 150 503 150 707 m 472 43 q 663 76 596 43 q 762 208 729 110 q 794 503 794 306 q 780 731 794 642 q 735 872 765 819 l 233 110 q 326 57 269 71 q 472 43 383 43 z "},"Ǿ":{"ha":943,"x_min":93,"x_max":851,"o":"m 767 921 q 831 762 810 863 q 851 503 851 661 q 811 174 851 285 q 692 28 771 64 q 472 -8 613 -8 q 312 7 376 -8 q 203 64 247 22 l 161 0 l 113 0 l 175 94 q 113 250 133 151 q 93 503 93 349 q 135 834 93 721 q 256 987 176 947 q 472 1026 336 1026 q 631 1010 567 1026 q 739 953 694 994 l 782 1018 l 831 1018 l 767 921 m 150 503 q 163 281 150 367 q 207 144 176 194 l 710 907 q 617 961 672 947 q 472 975 561 975 q 287 942 354 975 q 185 808 219 910 q 150 503 150 707 m 472 43 q 663 76 596 43 q 762 208 729 110 q 794 503 794 306 q 780 731 794 642 q 735 872 765 819 l 233 110 q 326 57 269 71 q 472 43 383 43 m 621 1285 l 675 1285 l 493 1099 l 460 1099 l 621 1285 z "},"Õ":{"ha":943,"x_min":93,"x_max":851,"o":"m 472 -8 q 253 28 332 -8 q 133 174 174 64 q 93 503 93 285 q 135 834 93 721 q 256 987 176 947 q 472 1026 336 1026 q 691 987 611 1026 q 811 835 771 947 q 851 503 851 722 q 811 174 851 285 q 692 28 771 64 q 472 -8 613 -8 m 472 43 q 663 76 596 43 q 762 208 729 110 q 794 503 794 306 q 762 810 794 710 q 663 943 729 911 q 472 975 597 975 q 287 942 354 975 q 185 808 219 910 q 150 503 150 707 q 181 207 150 304 q 278 76 211 110 q 472 43 344 43 m 246 1135 q 284 1234 247 1203 q 371 1265 321 1265 q 428 1252 401 1265 q 493 1214 454 1239 q 551 1180 531 1190 q 594 1169 571 1169 q 665 1195 638 1169 q 693 1267 693 1221 l 724 1267 q 688 1171 722 1207 q 594 1135 654 1135 q 542 1147 567 1135 q 479 1183 517 1160 q 419 1219 442 1208 q 371 1231 396 1231 q 304 1207 331 1231 q 276 1135 278 1183 l 246 1135 z "},"Ṍ":{"ha":943,"x_min":93,"x_max":851,"o":"m 472 -8 q 253 28 332 -8 q 133 174 174 64 q 93 503 93 285 q 135 834 93 721 q 256 987 176 947 q 472 1026 336 1026 q 691 987 611 1026 q 811 835 771 947 q 851 503 851 722 q 811 174 851 285 q 692 28 771 64 q 472 -8 613 -8 m 472 43 q 663 76 596 43 q 762 208 729 110 q 794 503 794 306 q 762 810 794 710 q 663 943 729 911 q 472 975 597 975 q 287 942 354 975 q 185 808 219 910 q 150 503 150 707 q 181 207 150 304 q 278 76 211 110 q 472 43 344 43 m 246 1135 q 284 1234 247 1203 q 371 1265 321 1265 q 428 1252 401 1265 q 493 1214 454 1239 q 551 1180 531 1190 q 594 1169 571 1169 q 665 1195 638 1169 q 693 1267 693 1221 l 724 1267 q 688 1171 722 1207 q 594 1135 654 1135 q 542 1147 567 1135 q 479 1183 517 1160 q 419 1219 442 1208 q 371 1231 396 1231 q 304 1207 331 1231 q 276 1135 278 1183 l 246 1135 m 617 1496 l 671 1496 l 489 1310 l 456 1310 l 617 1496 z "},"Ṏ":{"ha":943,"x_min":93,"x_max":851,"o":"m 472 -8 q 253 28 332 -8 q 133 174 174 64 q 93 503 93 285 q 135 834 93 721 q 256 987 176 947 q 472 1026 336 1026 q 691 987 611 1026 q 811 835 771 947 q 851 503 851 722 q 811 174 851 285 q 692 28 771 64 q 472 -8 613 -8 m 472 43 q 663 76 596 43 q 762 208 729 110 q 794 503 794 306 q 762 810 794 710 q 663 943 729 911 q 472 975 597 975 q 287 942 354 975 q 185 808 219 910 q 150 503 150 707 q 181 207 150 304 q 278 76 211 110 q 472 43 344 43 m 246 1135 q 284 1234 247 1203 q 371 1265 321 1265 q 428 1252 401 1265 q 493 1214 454 1239 q 551 1180 531 1190 q 594 1169 571 1169 q 665 1195 638 1169 q 693 1267 693 1221 l 724 1267 q 688 1171 722 1207 q 594 1135 654 1135 q 542 1147 567 1135 q 479 1183 517 1160 q 419 1219 442 1208 q 371 1231 396 1231 q 304 1207 331 1231 q 276 1135 278 1183 l 246 1135 m 288 1353 q 274 1358 279 1353 q 269 1371 269 1364 l 269 1464 q 288 1482 269 1482 l 314 1482 q 332 1464 332 1482 l 332 1371 q 314 1353 332 1353 l 288 1353 m 632 1353 q 619 1358 625 1353 q 614 1371 614 1364 l 614 1464 q 632 1482 614 1482 l 658 1482 q 676 1464 676 1482 l 676 1371 q 658 1353 676 1353 l 632 1353 z "},"Ȭ":{"ha":943,"x_min":93,"x_max":851,"o":"m 472 -8 q 253 28 332 -8 q 133 174 174 64 q 93 503 93 285 q 135 834 93 721 q 256 987 176 947 q 472 1026 336 1026 q 691 987 611 1026 q 811 835 771 947 q 851 503 851 722 q 811 174 851 285 q 692 28 771 64 q 472 -8 613 -8 m 472 43 q 663 76 596 43 q 762 208 729 110 q 794 503 794 306 q 762 810 794 710 q 663 943 729 911 q 472 975 597 975 q 287 942 354 975 q 185 808 219 910 q 150 503 150 707 q 181 207 150 304 q 278 76 211 110 q 472 43 344 43 m 311 1419 l 667 1419 l 667 1385 l 311 1385 l 311 1419 m 246 1135 q 284 1234 247 1203 q 371 1265 321 1265 q 428 1252 401 1265 q 493 1214 454 1239 q 551 1180 531 1190 q 594 1169 571 1169 q 665 1195 638 1169 q 693 1267 693 1221 l 724 1267 q 688 1171 722 1207 q 594 1135 654 1135 q 542 1147 567 1135 q 479 1183 517 1160 q 419 1219 442 1208 q 371 1231 396 1231 q 304 1207 331 1231 q 276 1135 278 1183 l 246 1135 z "},"Œ":{"ha":1483,"x_min":93,"x_max":1394,"o":"m 986 965 q 887 931 922 965 q 851 825 851 897 l 851 531 l 1338 526 l 1338 485 l 851 479 l 851 186 q 890 76 851 103 q 997 49 929 49 l 1394 49 l 1394 6 l 1326 3 q 1176 -1 1285 1 q 985 -4 1068 -4 q 858 26 908 -4 q 797 140 807 56 q 679 22 756 53 q 472 -8 603 -8 q 253 28 332 -8 q 133 174 174 64 q 93 503 93 285 q 135 834 93 721 q 256 987 176 947 q 472 1026 336 1026 q 678 993 601 1026 q 797 871 756 960 q 858 983 808 947 q 974 1018 907 1018 q 1175 1015 1068 1018 q 1321 1011 1282 1013 l 1394 1008 l 1394 965 l 986 965 m 472 43 q 663 76 596 43 q 762 208 729 110 q 794 503 794 306 q 762 810 794 710 q 663 943 729 911 q 472 975 597 975 q 287 942 354 975 q 185 808 219 910 q 150 503 150 707 q 181 207 150 304 q 278 76 211 110 q 472 43 344 43 z "},"P":{"ha":825,"x_min":118,"x_max":760,"o":"m 118 1018 l 508 1018 q 760 707 760 1018 q 682 456 760 526 q 497 385 604 385 q 338 389 432 386 q 175 394 243 392 l 175 0 l 118 0 l 118 1018 m 493 436 q 701 706 701 436 q 647 910 701 853 q 506 967 593 967 l 175 967 l 175 436 l 493 436 z "},"Ṗ":{"ha":825,"x_min":118,"x_max":760,"o":"m 118 1018 l 508 1018 q 760 707 760 1018 q 682 456 760 526 q 497 385 604 385 q 338 389 432 386 q 175 394 243 392 l 175 0 l 118 0 l 118 1018 m 493 436 q 701 706 701 436 q 647 910 701 853 q 506 967 593 967 l 175 967 l 175 436 l 493 436 m 378 1151 q 365 1157 369 1151 q 360 1169 360 1163 l 360 1263 q 378 1281 360 1281 l 404 1281 q 422 1263 422 1281 l 422 1169 q 417 1156 422 1161 q 404 1151 411 1151 l 378 1151 z "},"Þ":{"ha":758,"x_min":118,"x_max":693,"o":"m 118 1018 l 175 1018 l 175 819 l 442 819 q 693 533 693 819 q 615 303 693 367 q 431 239 538 239 q 304 243 379 240 q 175 249 229 246 l 175 0 l 118 0 l 118 1018 m 426 290 q 635 533 635 290 q 581 717 635 665 q 439 768 526 768 l 175 768 l 175 290 l 426 290 z "},"Q":{"ha":943,"x_min":93,"x_max":851,"o":"m 472 -8 q 253 28 332 -8 q 133 174 174 64 q 93 503 93 285 q 135 834 93 721 q 256 987 176 947 q 472 1026 336 1026 q 691 987 611 1026 q 811 835 771 947 q 851 503 851 722 q 811 174 851 285 q 692 28 771 64 q 472 -8 613 -8 m 472 43 q 663 76 596 43 q 762 208 729 110 q 794 503 794 306 q 762 810 794 710 q 663 943 729 911 q 472 975 597 975 q 287 942 354 975 q 185 808 219 910 q 150 503 150 707 q 181 207 150 304 q 278 76 211 110 q 472 43 344 43 m 697 -215 q 573 -171 629 -215 q 501 -47 517 -126 l 540 -47 q 605 -135 561 -106 q 700 -165 649 -165 q 765 -154 735 -165 l 765 -204 q 697 -215 729 -215 z "},"R":{"ha":829,"x_min":118,"x_max":764,"o":"m 118 1018 l 507 1018 q 688 960 618 1018 q 758 733 758 903 q 544 444 758 461 l 764 0 l 707 0 l 490 439 l 463 439 q 175 447 261 443 l 175 0 l 118 0 l 118 1018 m 501 489 q 649 539 596 489 q 701 733 701 589 q 647 919 701 871 q 501 967 593 967 l 175 967 l 175 489 l 501 489 z "},"Ŕ":{"ha":829,"x_min":118,"x_max":764,"o":"m 118 1018 l 507 1018 q 688 960 618 1018 q 758 733 758 903 q 544 444 758 461 l 764 0 l 707 0 l 490 439 l 463 439 q 175 447 261 443 l 175 0 l 118 0 l 118 1018 m 501 489 q 649 539 596 489 q 701 733 701 589 q 647 919 701 871 q 501 967 593 967 l 175 967 l 175 489 l 501 489 m 551 1285 l 606 1285 l 424 1099 l 390 1099 l 551 1285 z "},"Ř":{"ha":829,"x_min":118,"x_max":764,"o":"m 118 1018 l 507 1018 q 688 960 618 1018 q 758 733 758 903 q 544 444 758 461 l 764 0 l 707 0 l 490 439 l 463 439 q 175 447 261 443 l 175 0 l 118 0 l 118 1018 m 501 489 q 649 539 596 489 q 701 733 701 589 q 647 919 701 871 q 501 967 593 967 l 175 967 l 175 489 l 501 489 m 218 1282 l 256 1282 l 403 1129 l 565 1282 l 603 1282 l 424 1099 l 381 1099 l 218 1282 z "},"Ŗ":{"ha":829,"x_min":118,"x_max":764,"o":"m 118 1018 l 507 1018 q 688 960 618 1018 q 758 733 758 903 q 544 444 758 461 l 764 0 l 707 0 l 490 439 l 463 439 q 175 447 261 443 l 175 0 l 118 0 l 118 1018 m 501 489 q 649 539 596 489 q 701 733 701 589 q 647 919 701 871 q 501 967 593 967 l 175 967 l 175 489 l 501 489 m 290 -247 l 333 -242 q 397 -226 375 -237 q 431 -181 419 -214 q 442 -79 443 -147 l 479 -79 q 467 -193 479 -153 q 424 -251 456 -233 q 332 -269 393 -269 l 290 -269 l 290 -247 z "},"Ȑ":{"ha":829,"x_min":118,"x_max":764,"o":"m 118 1018 l 507 1018 q 688 960 618 1018 q 758 733 758 903 q 544 444 758 461 l 764 0 l 707 0 l 490 439 l 463 439 q 175 447 261 443 l 175 0 l 118 0 l 118 1018 m 501 489 q 649 539 596 489 q 701 733 701 589 q 647 919 701 871 q 501 967 593 967 l 175 967 l 175 489 l 501 489 m 138 1285 l 192 1285 l 353 1099 l 319 1099 l 138 1285 m 315 1285 l 369 1285 l 531 1099 l 497 1099 l 315 1285 z "},"Ṛ":{"ha":829,"x_min":118,"x_max":764,"o":"m 118 1018 l 507 1018 q 688 960 618 1018 q 758 733 758 903 q 544 444 758 461 l 764 0 l 707 0 l 490 439 l 463 439 q 175 447 261 443 l 175 0 l 118 0 l 118 1018 m 501 489 q 649 539 596 489 q 701 733 701 589 q 647 919 701 871 q 501 967 593 967 l 175 967 l 175 489 l 501 489 m 388 -279 q 374 -274 379 -279 q 369 -261 369 -268 l 369 -168 q 388 -150 369 -150 l 414 -150 q 432 -168 432 -150 l 432 -261 q 426 -274 432 -269 q 414 -279 421 -279 l 388 -279 z "},"Ȓ":{"ha":829,"x_min":118,"x_max":764,"o":"m 118 1018 l 507 1018 q 688 960 618 1018 q 758 733 758 903 q 544 444 758 461 l 764 0 l 707 0 l 490 439 l 463 439 q 175 447 261 443 l 175 0 l 118 0 l 118 1018 m 501 489 q 649 539 596 489 q 701 733 701 589 q 647 919 701 871 q 501 967 593 967 l 175 967 l 175 489 l 501 489 m 397 1289 q 522 1245 472 1289 q 572 1100 572 1201 l 542 1100 q 502 1221 542 1182 q 401 1260 463 1260 q 290 1223 329 1260 q 250 1100 250 1186 l 219 1100 q 270 1246 219 1203 q 397 1289 321 1289 z "},"Ṟ":{"ha":829,"x_min":118,"x_max":764,"o":"m 118 1018 l 507 1018 q 688 960 618 1018 q 758 733 758 903 q 544 444 758 461 l 764 0 l 707 0 l 490 439 l 463 439 q 175 447 261 443 l 175 0 l 118 0 l 118 1018 m 501 489 q 649 539 596 489 q 701 733 701 589 q 647 919 701 871 q 501 967 593 967 l 175 967 l 175 489 l 501 489 m 217 -208 l 572 -208 l 572 -243 l 217 -243 l 217 -208 z "},"S":{"ha":794,"x_min":94,"x_max":701,"o":"m 396 -8 q 240 -2 340 -8 q 94 13 139 4 l 94 53 q 394 43 199 43 q 579 82 513 43 q 646 225 646 121 l 646 313 q 603 441 646 397 q 467 485 561 485 l 344 485 q 159 538 224 485 q 94 711 94 590 l 94 774 q 164 968 94 910 q 372 1026 233 1026 q 517 1019 426 1026 q 657 1003 607 1011 l 657 961 q 625 964 647 961 q 519 970 599 965 q 375 975 439 975 q 206 931 261 975 q 150 772 150 886 l 150 714 q 199 579 150 618 q 343 540 247 540 l 469 540 q 644 480 586 540 q 701 315 701 419 l 701 226 q 396 -8 701 -8 z "},"Ś":{"ha":794,"x_min":94,"x_max":701,"o":"m 396 -8 q 240 -2 340 -8 q 94 13 139 4 l 94 53 q 394 43 199 43 q 579 82 513 43 q 646 225 646 121 l 646 313 q 603 441 646 397 q 467 485 561 485 l 344 485 q 159 538 224 485 q 94 711 94 590 l 94 774 q 164 968 94 910 q 372 1026 233 1026 q 517 1019 426 1026 q 657 1003 607 1011 l 657 961 q 625 964 647 961 q 519 970 599 965 q 375 975 439 975 q 206 931 261 975 q 150 772 150 886 l 150 714 q 199 579 150 618 q 343 540 247 540 l 469 540 q 644 480 586 540 q 701 315 701 419 l 701 226 q 396 -8 701 -8 m 538 1285 l 592 1285 l 410 1099 l 376 1099 l 538 1285 z "},"Ṥ":{"ha":794,"x_min":94,"x_max":701,"o":"m 396 -8 q 240 -2 340 -8 q 94 13 139 4 l 94 53 q 394 43 199 43 q 579 82 513 43 q 646 225 646 121 l 646 313 q 603 441 646 397 q 467 485 561 485 l 344 485 q 159 538 224 485 q 94 711 94 590 l 94 774 q 164 968 94 910 q 372 1026 233 1026 q 517 1019 426 1026 q 657 1003 607 1011 l 657 961 q 625 964 647 961 q 519 970 599 965 q 375 975 439 975 q 206 931 261 975 q 150 772 150 886 l 150 714 q 199 579 150 618 q 343 540 247 540 l 469 540 q 644 480 586 540 q 701 315 701 419 l 701 226 q 396 -8 701 -8 m 485 1285 l 539 1285 l 357 1099 l 324 1099 l 485 1285 m 419 1325 q 406 1331 411 1325 q 401 1343 401 1336 l 401 1436 q 419 1454 401 1454 l 446 1454 q 464 1436 464 1454 l 464 1343 q 458 1330 464 1335 q 446 1325 453 1325 l 419 1325 z "},"Š":{"ha":794,"x_min":94,"x_max":701,"o":"m 396 -8 q 240 -2 340 -8 q 94 13 139 4 l 94 53 q 394 43 199 43 q 579 82 513 43 q 646 225 646 121 l 646 313 q 603 441 646 397 q 467 485 561 485 l 344 485 q 159 538 224 485 q 94 711 94 590 l 94 774 q 164 968 94 910 q 372 1026 233 1026 q 517 1019 426 1026 q 657 1003 607 1011 l 657 961 q 625 964 647 961 q 519 970 599 965 q 375 975 439 975 q 206 931 261 975 q 150 772 150 886 l 150 714 q 199 579 150 618 q 343 540 247 540 l 469 540 q 644 480 586 540 q 701 315 701 419 l 701 226 q 396 -8 701 -8 m 204 1282 l 242 1282 l 389 1129 l 551 1282 l 589 1282 l 410 1099 l 367 1099 l 204 1282 z "},"Ṧ":{"ha":794,"x_min":94,"x_max":701,"o":"m 396 -8 q 240 -2 340 -8 q 94 13 139 4 l 94 53 q 394 43 199 43 q 579 82 513 43 q 646 225 646 121 l 646 313 q 603 441 646 397 q 467 485 561 485 l 344 485 q 159 538 224 485 q 94 711 94 590 l 94 774 q 164 968 94 910 q 372 1026 233 1026 q 517 1019 426 1026 q 657 1003 607 1011 l 657 961 q 625 964 647 961 q 519 970 599 965 q 375 975 439 975 q 206 931 261 975 q 150 772 150 886 l 150 714 q 199 579 150 618 q 343 540 247 540 l 469 540 q 644 480 586 540 q 701 315 701 419 l 701 226 q 396 -8 701 -8 m 204 1282 l 242 1282 l 389 1129 l 551 1282 l 589 1282 l 410 1099 l 367 1099 l 204 1282 m 375 1326 q 362 1332 367 1326 q 357 1344 357 1338 l 357 1438 q 375 1456 357 1456 l 401 1456 q 419 1438 419 1456 l 419 1344 q 414 1331 419 1336 q 401 1326 408 1326 l 375 1326 z "},"Ş":{"ha":794,"x_min":94,"x_max":701,"o":"m 469 540 q 644 480 586 540 q 701 315 701 419 l 701 226 q 617 45 701 99 q 399 -8 533 -8 l 351 -79 q 431 -103 407 -81 q 456 -165 456 -125 q 423 -233 456 -208 q 331 -257 390 -257 l 297 -257 l 297 -233 l 332 -231 q 397 -210 375 -228 q 419 -160 419 -193 q 397 -112 419 -129 q 313 -93 374 -94 l 369 -8 q 215 0 299 -6 q 94 13 132 6 l 94 53 q 394 43 199 43 q 579 82 513 43 q 646 225 646 121 l 646 313 q 603 441 646 397 q 467 485 561 485 l 344 485 q 159 538 224 485 q 94 711 94 590 l 94 774 q 164 968 94 910 q 372 1026 233 1026 q 517 1019 426 1026 q 657 1003 607 1011 l 657 961 q 625 964 647 961 q 519 970 599 965 q 375 975 439 975 q 206 931 261 975 q 150 772 150 886 l 150 714 q 199 579 150 618 q 343 540 247 540 l 469 540 z "},"Ŝ":{"ha":794,"x_min":94,"x_max":701,"o":"m 396 -8 q 240 -2 340 -8 q 94 13 139 4 l 94 53 q 394 43 199 43 q 579 82 513 43 q 646 225 646 121 l 646 313 q 603 441 646 397 q 467 485 561 485 l 344 485 q 159 538 224 485 q 94 711 94 590 l 94 774 q 164 968 94 910 q 372 1026 233 1026 q 517 1019 426 1026 q 657 1003 607 1011 l 657 961 q 625 964 647 961 q 519 970 599 965 q 375 975 439 975 q 206 931 261 975 q 150 772 150 886 l 150 714 q 199 579 150 618 q 343 540 247 540 l 469 540 q 644 480 586 540 q 701 315 701 419 l 701 226 q 396 -8 701 -8 m 371 1282 l 414 1282 l 576 1099 l 539 1099 l 392 1251 l 229 1099 l 192 1099 l 371 1282 z "},"Ș":{"ha":794,"x_min":94,"x_max":701,"o":"m 396 -8 q 240 -2 340 -8 q 94 13 139 4 l 94 53 q 394 43 199 43 q 579 82 513 43 q 646 225 646 121 l 646 313 q 603 441 646 397 q 467 485 561 485 l 344 485 q 159 538 224 485 q 94 711 94 590 l 94 774 q 164 968 94 910 q 372 1026 233 1026 q 517 1019 426 1026 q 657 1003 607 1011 l 657 961 q 625 964 647 961 q 519 970 599 965 q 375 975 439 975 q 206 931 261 975 q 150 772 150 886 l 150 714 q 199 579 150 618 q 343 540 247 540 l 469 540 q 644 480 586 540 q 701 315 701 419 l 701 226 q 396 -8 701 -8 m 276 -247 l 319 -242 q 383 -226 361 -237 q 417 -181 406 -214 q 428 -79 429 -147 l 465 -79 q 453 -193 465 -153 q 410 -251 442 -233 q 318 -269 379 -269 l 276 -269 l 276 -247 z "},"Ṡ":{"ha":794,"x_min":94,"x_max":701,"o":"m 396 -8 q 240 -2 340 -8 q 94 13 139 4 l 94 53 q 394 43 199 43 q 579 82 513 43 q 646 225 646 121 l 646 313 q 603 441 646 397 q 467 485 561 485 l 344 485 q 159 538 224 485 q 94 711 94 590 l 94 774 q 164 968 94 910 q 372 1026 233 1026 q 517 1019 426 1026 q 657 1003 607 1011 l 657 961 q 625 964 647 961 q 519 970 599 965 q 375 975 439 975 q 206 931 261 975 q 150 772 150 886 l 150 714 q 199 579 150 618 q 343 540 247 540 l 469 540 q 644 480 586 540 q 701 315 701 419 l 701 226 q 396 -8 701 -8 m 375 1151 q 362 1157 367 1151 q 357 1169 357 1163 l 357 1263 q 375 1281 357 1281 l 401 1281 q 419 1263 419 1281 l 419 1169 q 414 1156 419 1161 q 401 1151 408 1151 l 375 1151 z "},"Ṣ":{"ha":794,"x_min":94,"x_max":701,"o":"m 396 -8 q 240 -2 340 -8 q 94 13 139 4 l 94 53 q 394 43 199 43 q 579 82 513 43 q 646 225 646 121 l 646 313 q 603 441 646 397 q 467 485 561 485 l 344 485 q 159 538 224 485 q 94 711 94 590 l 94 774 q 164 968 94 910 q 372 1026 233 1026 q 517 1019 426 1026 q 657 1003 607 1011 l 657 961 q 625 964 647 961 q 519 970 599 965 q 375 975 439 975 q 206 931 261 975 q 150 772 150 886 l 150 714 q 199 579 150 618 q 343 540 247 540 l 469 540 q 644 480 586 540 q 701 315 701 419 l 701 226 q 396 -8 701 -8 m 374 -279 q 360 -274 365 -279 q 356 -261 356 -268 l 356 -168 q 374 -150 356 -150 l 400 -150 q 418 -168 418 -150 l 418 -261 q 413 -274 418 -269 q 400 -279 407 -279 l 374 -279 z "},"Ṩ":{"ha":794,"x_min":94,"x_max":701,"o":"m 396 -8 q 240 -2 340 -8 q 94 13 139 4 l 94 53 q 394 43 199 43 q 579 82 513 43 q 646 225 646 121 l 646 313 q 603 441 646 397 q 467 485 561 485 l 344 485 q 159 538 224 485 q 94 711 94 590 l 94 774 q 164 968 94 910 q 372 1026 233 1026 q 517 1019 426 1026 q 657 1003 607 1011 l 657 961 q 625 964 647 961 q 519 970 599 965 q 375 975 439 975 q 206 931 261 975 q 150 772 150 886 l 150 714 q 199 579 150 618 q 343 540 247 540 l 469 540 q 644 480 586 540 q 701 315 701 419 l 701 226 q 396 -8 701 -8 m 374 -279 q 360 -274 365 -279 q 356 -261 356 -268 l 356 -168 q 374 -150 356 -150 l 400 -150 q 418 -168 418 -150 l 418 -261 q 413 -274 418 -269 q 400 -279 407 -279 l 374 -279 m 375 1151 q 362 1157 367 1151 q 357 1169 357 1163 l 357 1263 q 375 1281 357 1281 l 401 1281 q 419 1263 419 1281 l 419 1169 q 414 1156 419 1161 q 401 1151 408 1151 l 375 1151 z "},"ẞ":{"ha":892,"x_min":118,"x_max":799,"o":"m 567 535 q 741 476 683 535 q 799 314 799 418 l 799 224 q 497 -8 799 -8 q 401 -3 465 -8 q 306 8 336 3 l 306 50 q 493 43 368 43 q 676 82 610 43 q 742 225 742 121 l 742 311 q 699 440 742 397 q 560 483 656 483 l 393 483 l 393 535 l 421 535 l 676 946 l 700 967 l 335 967 q 217 926 258 967 q 175 800 175 885 l 175 0 l 118 0 l 118 800 q 178 966 118 914 q 329 1018 238 1018 q 503 1017 406 1018 q 650 1014 600 1015 l 757 1011 l 750 989 l 757 989 l 743 968 l 743 967 l 474 557 l 429 535 l 567 535 z "},"Ə":{"ha":838,"x_min":101,"x_max":744,"o":"m 417 -8 q 234 39 303 -8 q 133 190 165 86 q 101 467 101 293 l 101 517 l 686 517 q 658 806 686 710 q 559 938 629 901 q 350 975 489 975 q 201 967 257 975 q 136 957 146 958 l 136 997 q 375 1026 261 1026 q 593 987 515 1026 q 708 838 671 947 q 744 517 744 729 q 706 198 744 313 q 596 38 667 83 q 417 -8 525 -8 m 413 43 q 563 79 506 43 q 652 208 621 115 q 685 468 683 301 l 157 468 q 181 217 158 308 q 259 84 204 125 q 413 43 314 43 z "},"T":{"ha":771,"x_min":22,"x_max":749,"o":"m 357 967 l 22 967 l 22 1018 l 749 1018 l 749 967 l 414 967 l 414 0 l 357 0 l 357 967 z "},"Ŧ":{"ha":771,"x_min":22,"x_max":749,"o":"m 414 967 l 414 563 l 668 563 l 668 522 l 414 522 l 414 0 l 357 0 l 357 522 l 101 522 l 101 563 l 357 563 l 357 967 l 22 967 l 22 1018 l 749 1018 l 749 967 l 414 967 z "},"Ť":{"ha":771,"x_min":22,"x_max":749,"o":"m 357 967 l 22 967 l 22 1018 l 749 1018 l 749 967 l 414 967 l 414 0 l 357 0 l 357 967 m 201 1282 l 239 1282 l 386 1129 l 549 1282 l 586 1282 l 407 1099 l 364 1099 l 201 1282 z "},"Ţ":{"ha":771,"x_min":22,"x_max":749,"o":"m 401 0 l 349 -79 q 428 -103 404 -81 q 453 -165 453 -125 q 420 -233 453 -208 q 328 -257 388 -257 l 294 -257 l 294 -233 l 329 -231 q 394 -210 372 -228 q 417 -160 417 -193 q 394 -112 417 -129 q 310 -93 371 -94 l 372 0 l 357 0 l 357 967 l 22 967 l 22 1018 l 749 1018 l 749 967 l 414 967 l 414 0 l 401 0 z "},"Ț":{"ha":771,"x_min":22,"x_max":749,"o":"m 357 967 l 22 967 l 22 1018 l 749 1018 l 749 967 l 414 967 l 414 0 l 357 0 l 357 967 m 222 -247 l 265 -242 q 329 -226 307 -237 q 363 -181 351 -214 q 374 -79 375 -147 l 411 -79 q 399 -193 411 -153 q 356 -251 388 -233 q 264 -269 325 -269 l 222 -269 l 222 -247 z "},"Ṫ":{"ha":771,"x_min":22,"x_max":749,"o":"m 357 967 l 22 967 l 22 1018 l 749 1018 l 749 967 l 414 967 l 414 0 l 357 0 l 357 967 m 372 1151 q 359 1157 364 1151 q 354 1169 354 1163 l 354 1263 q 372 1281 354 1281 l 399 1281 q 417 1263 417 1281 l 417 1169 q 411 1156 417 1161 q 399 1151 406 1151 l 372 1151 z "},"Ṭ":{"ha":771,"x_min":22,"x_max":749,"o":"m 357 967 l 22 967 l 22 1018 l 749 1018 l 749 967 l 414 967 l 414 0 l 357 0 l 357 967 m 371 -279 q 358 -274 363 -279 q 353 -261 353 -268 l 353 -168 q 371 -150 353 -150 l 397 -150 q 415 -168 415 -150 l 415 -261 q 410 -274 415 -269 q 397 -279 404 -279 l 371 -279 z "},"Ṯ":{"ha":771,"x_min":22,"x_max":749,"o":"m 357 967 l 22 967 l 22 1018 l 749 1018 l 749 967 l 414 967 l 414 0 l 357 0 l 357 967 m 200 -208 l 556 -208 l 556 -243 l 200 -243 l 200 -208 z "},"U":{"ha":931,"x_min":104,"x_max":828,"o":"m 465 -8 q 194 63 283 -8 q 104 310 104 135 l 104 1018 l 161 1018 l 161 310 q 236 101 161 160 q 465 43 311 43 q 695 101 619 43 q 771 310 771 160 l 771 1018 l 828 1018 l 828 310 q 738 63 828 135 q 465 -8 647 -8 z "},"Ú":{"ha":931,"x_min":104,"x_max":828,"o":"m 465 -8 q 194 63 283 -8 q 104 310 104 135 l 104 1018 l 161 1018 l 161 310 q 236 101 161 160 q 465 43 311 43 q 695 101 619 43 q 771 310 771 160 l 771 1018 l 828 1018 l 828 310 q 738 63 828 135 q 465 -8 647 -8 m 613 1285 l 667 1285 l 485 1099 l 451 1099 l 613 1285 z "},"Ŭ":{"ha":931,"x_min":104,"x_max":828,"o":"m 465 -8 q 194 63 283 -8 q 104 310 104 135 l 104 1018 l 161 1018 l 161 310 q 236 101 161 160 q 465 43 311 43 q 695 101 619 43 q 771 310 771 160 l 771 1018 l 828 1018 l 828 310 q 738 63 828 135 q 465 -8 647 -8 m 454 1100 q 329 1144 379 1100 q 279 1289 279 1188 l 310 1289 q 349 1168 310 1207 q 450 1129 389 1129 q 562 1166 522 1129 q 601 1289 601 1203 l 632 1289 q 581 1143 632 1186 q 454 1100 531 1100 z "},"Û":{"ha":931,"x_min":104,"x_max":828,"o":"m 465 -8 q 194 63 283 -8 q 104 310 104 135 l 104 1018 l 161 1018 l 161 310 q 236 101 161 160 q 465 43 311 43 q 695 101 619 43 q 771 310 771 160 l 771 1018 l 828 1018 l 828 310 q 738 63 828 135 q 465 -8 647 -8 m 446 1282 l 489 1282 l 651 1099 l 614 1099 l 467 1251 l 304 1099 l 267 1099 l 446 1282 z "},"Ȕ":{"ha":931,"x_min":104,"x_max":828,"o":"m 465 -8 q 194 63 283 -8 q 104 310 104 135 l 104 1018 l 161 1018 l 161 310 q 236 101 161 160 q 465 43 311 43 q 695 101 619 43 q 771 310 771 160 l 771 1018 l 828 1018 l 828 310 q 738 63 828 135 q 465 -8 647 -8 m 199 1285 l 253 1285 l 414 1099 l 381 1099 l 199 1285 m 376 1285 l 431 1285 l 592 1099 l 558 1099 l 376 1285 z "},"Ü":{"ha":931,"x_min":104,"x_max":828,"o":"m 465 -8 q 194 63 283 -8 q 104 310 104 135 l 104 1018 l 161 1018 l 161 310 q 236 101 161 160 q 465 43 311 43 q 695 101 619 43 q 771 310 771 160 l 771 1018 l 828 1018 l 828 310 q 738 63 828 135 q 465 -8 647 -8 m 267 1142 q 253 1147 258 1142 q 249 1160 249 1153 l 249 1253 q 267 1271 249 1271 l 293 1271 q 311 1253 311 1271 l 311 1160 q 293 1142 311 1142 l 267 1142 m 611 1142 q 599 1147 604 1142 q 593 1160 593 1153 l 593 1253 q 611 1271 593 1271 l 638 1271 q 656 1253 656 1271 l 656 1160 q 638 1142 656 1142 l 611 1142 z "},"Ụ":{"ha":931,"x_min":104,"x_max":828,"o":"m 465 -8 q 194 63 283 -8 q 104 310 104 135 l 104 1018 l 161 1018 l 161 310 q 236 101 161 160 q 465 43 311 43 q 695 101 619 43 q 771 310 771 160 l 771 1018 l 828 1018 l 828 310 q 738 63 828 135 q 465 -8 647 -8 m 449 -279 q 435 -274 440 -279 q 431 -261 431 -268 l 431 -168 q 449 -150 431 -150 l 475 -150 q 493 -168 493 -150 l 493 -261 q 488 -274 493 -269 q 475 -279 482 -279 l 449 -279 z "},"Ù":{"ha":931,"x_min":104,"x_max":828,"o":"m 465 -8 q 194 63 283 -8 q 104 310 104 135 l 104 1018 l 161 1018 l 161 310 q 236 101 161 160 q 465 43 311 43 q 695 101 619 43 q 771 310 771 160 l 771 1018 l 828 1018 l 828 310 q 738 63 828 135 q 465 -8 647 -8 m 264 1285 l 318 1285 l 479 1099 l 446 1099 l 264 1285 z "},"Ủ":{"ha":931,"x_min":104,"x_max":828,"o":"m 465 -8 q 194 63 283 -8 q 104 310 104 135 l 104 1018 l 161 1018 l 161 310 q 236 101 161 160 q 465 43 311 43 q 695 101 619 43 q 771 310 771 160 l 771 1018 l 828 1018 l 828 310 q 738 63 828 135 q 465 -8 647 -8 m 439 1099 q 508 1139 486 1114 q 531 1194 531 1164 q 512 1251 531 1232 q 451 1269 493 1269 q 400 1261 425 1269 l 400 1289 q 458 1297 424 1297 q 538 1269 511 1297 q 564 1194 564 1242 q 533 1121 564 1154 q 439 1069 501 1088 l 439 1099 z "},"Ư":{"ha":931,"x_min":104,"x_max":968,"o":"m 968 1178 q 928 1033 968 1079 q 828 983 889 988 l 828 310 q 738 63 828 135 q 465 -8 647 -8 q 194 63 283 -8 q 104 310 104 135 l 104 1018 l 161 1018 l 161 310 q 236 101 161 160 q 465 43 311 43 q 695 101 619 43 q 771 310 771 160 l 771 1018 l 808 1018 q 922 1178 922 1018 l 968 1178 z "},"Ứ":{"ha":931,"x_min":104,"x_max":968,"o":"m 968 1178 q 928 1033 968 1079 q 828 983 889 988 l 828 310 q 738 63 828 135 q 465 -8 647 -8 q 194 63 283 -8 q 104 310 104 135 l 104 1018 l 161 1018 l 161 310 q 236 101 161 160 q 465 43 311 43 q 695 101 619 43 q 771 310 771 160 l 771 1018 l 808 1018 q 922 1178 922 1018 l 968 1178 m 596 1285 l 650 1285 l 468 1099 l 435 1099 l 596 1285 z "},"Ự":{"ha":931,"x_min":104,"x_max":968,"o":"m 968 1178 q 928 1033 968 1079 q 828 983 889 988 l 828 310 q 738 63 828 135 q 465 -8 647 -8 q 194 63 283 -8 q 104 310 104 135 l 104 1018 l 161 1018 l 161 310 q 236 101 161 160 q 465 43 311 43 q 695 101 619 43 q 771 310 771 160 l 771 1018 l 808 1018 q 922 1178 922 1018 l 968 1178 m 435 -279 q 422 -274 426 -279 q 417 -261 417 -268 l 417 -168 q 435 -150 417 -150 l 461 -150 q 479 -168 479 -150 l 479 -261 q 474 -274 479 -269 q 461 -279 468 -279 l 435 -279 z "},"Ừ":{"ha":931,"x_min":104,"x_max":968,"o":"m 968 1178 q 928 1033 968 1079 q 828 983 889 988 l 828 310 q 738 63 828 135 q 465 -8 647 -8 q 194 63 283 -8 q 104 310 104 135 l 104 1018 l 161 1018 l 161 310 q 236 101 161 160 q 465 43 311 43 q 695 101 619 43 q 771 310 771 160 l 771 1018 l 808 1018 q 922 1178 922 1018 l 968 1178 m 272 1285 l 326 1285 l 488 1099 l 454 1099 l 272 1285 z "},"Ử":{"ha":931,"x_min":104,"x_max":968,"o":"m 968 1178 q 928 1033 968 1079 q 828 983 889 988 l 828 310 q 738 63 828 135 q 465 -8 647 -8 q 194 63 283 -8 q 104 310 104 135 l 104 1018 l 161 1018 l 161 310 q 236 101 161 160 q 465 43 311 43 q 695 101 619 43 q 771 310 771 160 l 771 1018 l 808 1018 q 922 1178 922 1018 l 968 1178 m 442 1099 q 511 1139 489 1114 q 533 1194 533 1164 q 515 1251 533 1232 q 454 1269 496 1269 q 403 1261 428 1269 l 403 1289 q 461 1297 426 1297 q 540 1269 514 1297 q 567 1194 567 1242 q 535 1121 567 1154 q 442 1069 504 1088 l 442 1099 z "},"Ữ":{"ha":931,"x_min":104,"x_max":968,"o":"m 968 1178 q 928 1033 968 1079 q 828 983 889 988 l 828 310 q 738 63 828 135 q 465 -8 647 -8 q 194 63 283 -8 q 104 310 104 135 l 104 1018 l 161 1018 l 161 310 q 236 101 161 160 q 465 43 311 43 q 695 101 619 43 q 771 310 771 160 l 771 1018 l 808 1018 q 922 1178 922 1018 l 968 1178 m 238 1135 q 276 1234 239 1203 q 363 1265 313 1265 q 419 1252 393 1265 q 485 1214 446 1239 q 542 1180 522 1190 q 586 1169 563 1169 q 657 1195 629 1169 q 685 1267 685 1221 l 715 1267 q 680 1171 714 1207 q 586 1135 646 1135 q 533 1147 558 1135 q 471 1183 508 1160 q 410 1219 433 1208 q 363 1231 388 1231 q 296 1207 322 1231 q 268 1135 269 1183 l 238 1135 z "},"Ű":{"ha":931,"x_min":104,"x_max":828,"o":"m 465 -8 q 194 63 283 -8 q 104 310 104 135 l 104 1018 l 161 1018 l 161 310 q 236 101 161 160 q 465 43 311 43 q 695 101 619 43 q 771 310 771 160 l 771 1018 l 828 1018 l 828 310 q 738 63 828 135 q 465 -8 647 -8 m 472 1285 l 525 1285 l 346 1099 l 313 1099 l 472 1285 m 671 1285 l 722 1285 l 544 1099 l 511 1099 l 671 1285 z "},"Ȗ":{"ha":931,"x_min":104,"x_max":828,"o":"m 465 -8 q 194 63 283 -8 q 104 310 104 135 l 104 1018 l 161 1018 l 161 310 q 236 101 161 160 q 465 43 311 43 q 695 101 619 43 q 771 310 771 160 l 771 1018 l 828 1018 l 828 310 q 738 63 828 135 q 465 -8 647 -8 m 458 1289 q 583 1245 533 1289 q 633 1100 633 1201 l 603 1100 q 563 1221 603 1182 q 463 1260 524 1260 q 351 1223 390 1260 q 311 1100 311 1186 l 281 1100 q 331 1246 281 1203 q 458 1289 382 1289 z "},"Ū":{"ha":931,"x_min":104,"x_max":828,"o":"m 465 -8 q 194 63 283 -8 q 104 310 104 135 l 104 1018 l 161 1018 l 161 310 q 236 101 161 160 q 465 43 311 43 q 695 101 619 43 q 771 310 771 160 l 771 1018 l 828 1018 l 828 310 q 738 63 828 135 q 465 -8 647 -8 m 276 1208 l 632 1208 l 632 1174 l 276 1174 l 276 1208 z "},"Ṻ":{"ha":931,"x_min":104,"x_max":828,"o":"m 465 -8 q 194 63 283 -8 q 104 310 104 135 l 104 1018 l 161 1018 l 161 310 q 236 101 161 160 q 465 43 311 43 q 695 101 619 43 q 771 310 771 160 l 771 1018 l 828 1018 l 828 310 q 738 63 828 135 q 465 -8 647 -8 m 276 1208 l 632 1208 l 632 1174 l 276 1174 l 276 1208 m 267 1313 q 253 1318 258 1313 q 249 1331 249 1324 l 249 1424 q 267 1442 249 1442 l 293 1442 q 311 1424 311 1442 l 311 1331 q 293 1313 311 1313 l 267 1313 m 611 1313 q 599 1318 604 1313 q 593 1331 593 1324 l 593 1424 q 611 1442 593 1442 l 638 1442 q 656 1424 656 1442 l 656 1331 q 638 1313 656 1313 l 611 1313 z "},"Ų":{"ha":931,"x_min":104,"x_max":828,"o":"m 828 1018 l 828 310 q 766 92 828 165 q 582 0 704 19 q 508 -56 533 -25 q 482 -122 482 -87 q 516 -197 482 -171 q 615 -222 550 -222 l 624 -222 l 624 -253 q 592 -254 613 -254 q 486 -222 526 -254 q 446 -133 446 -189 q 471 -63 446 -97 q 547 -4 496 -29 q 465 -8 508 -8 q 194 63 283 -8 q 104 310 104 135 l 104 1018 l 161 1018 l 161 310 q 236 101 161 160 q 465 43 311 43 q 695 101 619 43 q 771 310 771 160 l 771 1018 l 828 1018 z "},"Ů":{"ha":931,"x_min":104,"x_max":828,"o":"m 465 -8 q 194 63 283 -8 q 104 310 104 135 l 104 1018 l 161 1018 l 161 310 q 236 101 161 160 q 465 43 311 43 q 695 101 619 43 q 771 310 771 160 l 771 1018 l 828 1018 l 828 310 q 738 63 828 135 q 465 -8 647 -8 m 464 1057 q 354 1090 390 1057 q 318 1201 318 1122 q 354 1313 318 1281 q 464 1346 390 1346 q 572 1313 538 1346 q 607 1201 607 1281 q 572 1090 607 1122 q 464 1057 538 1057 m 464 1086 q 549 1111 524 1086 q 575 1201 575 1136 q 549 1292 575 1267 q 464 1317 524 1317 q 377 1291 404 1317 q 350 1201 350 1265 q 377 1111 350 1136 q 464 1086 404 1086 z "},"Ũ":{"ha":931,"x_min":104,"x_max":828,"o":"m 465 -8 q 194 63 283 -8 q 104 310 104 135 l 104 1018 l 161 1018 l 161 310 q 236 101 161 160 q 465 43 311 43 q 695 101 619 43 q 771 310 771 160 l 771 1018 l 828 1018 l 828 310 q 738 63 828 135 q 465 -8 647 -8 m 238 1135 q 276 1234 239 1203 q 363 1265 313 1265 q 419 1252 393 1265 q 485 1214 446 1239 q 542 1180 522 1190 q 586 1169 563 1169 q 657 1195 629 1169 q 685 1267 685 1221 l 715 1267 q 680 1171 714 1207 q 586 1135 646 1135 q 533 1147 558 1135 q 471 1183 508 1160 q 410 1219 433 1208 q 363 1231 388 1231 q 296 1207 322 1231 q 268 1135 269 1183 l 238 1135 z "},"Ṹ":{"ha":931,"x_min":104,"x_max":828,"o":"m 465 -8 q 194 63 283 -8 q 104 310 104 135 l 104 1018 l 161 1018 l 161 310 q 236 101 161 160 q 465 43 311 43 q 695 101 619 43 q 771 310 771 160 l 771 1018 l 828 1018 l 828 310 q 738 63 828 135 q 465 -8 647 -8 m 238 1135 q 276 1234 239 1203 q 363 1265 313 1265 q 419 1252 393 1265 q 485 1214 446 1239 q 542 1180 522 1190 q 586 1169 563 1169 q 657 1195 629 1169 q 685 1267 685 1221 l 715 1267 q 680 1171 714 1207 q 586 1135 646 1135 q 533 1147 558 1135 q 471 1183 508 1160 q 410 1219 433 1208 q 363 1231 388 1231 q 296 1207 322 1231 q 268 1135 269 1183 l 238 1135 m 613 1493 l 667 1493 l 485 1307 l 451 1307 l 613 1493 z "},"V":{"ha":929,"x_min":61,"x_max":868,"o":"m 61 1018 l 119 1018 l 464 56 l 810 1018 l 868 1018 l 503 0 l 426 0 l 61 1018 z "},"W":{"ha":1376,"x_min":61,"x_max":1315,"o":"m 61 1018 l 119 1018 l 371 67 l 656 1018 l 722 1018 l 1007 67 l 1258 1018 l 1315 1018 l 1044 0 l 975 0 l 689 949 l 401 0 l 332 0 l 61 1018 z "},"Ẃ":{"ha":1376,"x_min":61,"x_max":1315,"o":"m 61 1018 l 119 1018 l 371 67 l 656 1018 l 722 1018 l 1007 67 l 1258 1018 l 1315 1018 l 1044 0 l 975 0 l 689 949 l 401 0 l 332 0 l 61 1018 m 838 1285 l 892 1285 l 710 1099 l 676 1099 l 838 1285 z "},"Ŵ":{"ha":1376,"x_min":61,"x_max":1315,"o":"m 61 1018 l 119 1018 l 371 67 l 656 1018 l 722 1018 l 1007 67 l 1258 1018 l 1315 1018 l 1044 0 l 975 0 l 689 949 l 401 0 l 332 0 l 61 1018 m 671 1282 l 714 1282 l 876 1099 l 839 1099 l 692 1251 l 529 1099 l 492 1099 l 671 1282 z "},"Ẅ":{"ha":1376,"x_min":61,"x_max":1315,"o":"m 61 1018 l 119 1018 l 371 67 l 656 1018 l 722 1018 l 1007 67 l 1258 1018 l 1315 1018 l 1044 0 l 975 0 l 689 949 l 401 0 l 332 0 l 61 1018 m 492 1142 q 478 1147 483 1142 q 474 1160 474 1153 l 474 1253 q 492 1271 474 1271 l 518 1271 q 536 1253 536 1271 l 536 1160 q 518 1142 536 1142 l 492 1142 m 836 1142 q 824 1147 829 1142 q 818 1160 818 1153 l 818 1253 q 836 1271 818 1271 l 863 1271 q 881 1253 881 1271 l 881 1160 q 863 1142 881 1142 l 836 1142 z "},"Ẁ":{"ha":1376,"x_min":61,"x_max":1315,"o":"m 61 1018 l 119 1018 l 371 67 l 656 1018 l 722 1018 l 1007 67 l 1258 1018 l 1315 1018 l 1044 0 l 975 0 l 689 949 l 401 0 l 332 0 l 61 1018 m 489 1285 l 543 1285 l 704 1099 l 671 1099 l 489 1285 z "},"X":{"ha":835,"x_min":64,"x_max":771,"o":"m 453 501 l 771 0 l 708 0 l 417 461 l 129 0 l 68 0 l 386 508 l 64 1018 l 125 1018 l 422 550 l 710 1018 l 771 1018 l 453 501 z "},"Y":{"ha":850,"x_min":64,"x_max":788,"o":"m 397 354 l 64 1018 l 124 1018 l 426 411 l 728 1018 l 788 1018 l 454 354 l 454 0 l 397 0 l 397 354 z "},"Ý":{"ha":850,"x_min":64,"x_max":788,"o":"m 397 354 l 64 1018 l 124 1018 l 426 411 l 728 1018 l 788 1018 l 454 354 l 454 0 l 397 0 l 397 354 m 575 1285 l 629 1285 l 447 1099 l 414 1099 l 575 1285 z "},"Ŷ":{"ha":850,"x_min":64,"x_max":788,"o":"m 397 354 l 64 1018 l 124 1018 l 426 411 l 728 1018 l 788 1018 l 454 354 l 454 0 l 397 0 l 397 354 m 408 1282 l 451 1282 l 614 1099 l 576 1099 l 429 1251 l 267 1099 l 229 1099 l 408 1282 z "},"Ÿ":{"ha":850,"x_min":64,"x_max":788,"o":"m 397 354 l 64 1018 l 124 1018 l 426 411 l 728 1018 l 788 1018 l 454 354 l 454 0 l 397 0 l 397 354 m 229 1142 q 216 1147 221 1142 q 211 1160 211 1153 l 211 1253 q 229 1271 211 1271 l 256 1271 q 274 1253 274 1271 l 274 1160 q 256 1142 274 1142 l 229 1142 m 574 1142 q 561 1147 567 1142 q 556 1160 556 1153 l 556 1253 q 574 1271 556 1271 l 600 1271 q 618 1253 618 1271 l 618 1160 q 600 1142 618 1142 l 574 1142 z "},"Ẏ":{"ha":850,"x_min":64,"x_max":788,"o":"m 397 354 l 64 1018 l 124 1018 l 426 411 l 728 1018 l 788 1018 l 454 354 l 454 0 l 397 0 l 397 354 m 411 -279 q 398 -274 403 -279 q 393 -261 393 -268 l 393 -168 q 411 -150 393 -150 l 438 -150 q 456 -168 456 -150 l 456 -261 q 450 -274 456 -269 q 438 -279 444 -279 l 411 -279 z "},"Ỵ":{"ha":850,"x_min":64,"x_max":788,"o":"m 397 354 l 64 1018 l 124 1018 l 426 411 l 728 1018 l 788 1018 l 454 354 l 454 0 l 397 0 l 397 354 m 411 -279 q 398 -274 403 -279 q 393 -261 393 -268 l 393 -168 q 411 -150 393 -150 l 438 -150 q 456 -168 456 -150 l 456 -261 q 450 -274 456 -269 q 438 -279 444 -279 l 411 -279 z "},"Ỳ":{"ha":850,"x_min":64,"x_max":788,"o":"m 397 354 l 64 1018 l 124 1018 l 426 411 l 728 1018 l 788 1018 l 454 354 l 454 0 l 397 0 l 397 354 m 226 1285 l 281 1285 l 442 1099 l 408 1099 l 226 1285 z "},"Ỷ":{"ha":850,"x_min":64,"x_max":788,"o":"m 397 354 l 64 1018 l 124 1018 l 426 411 l 728 1018 l 788 1018 l 454 354 l 454 0 l 397 0 l 397 354 m 401 1099 q 471 1139 449 1114 q 493 1194 493 1164 q 474 1251 493 1232 q 414 1269 456 1269 q 363 1261 388 1269 l 363 1289 q 421 1297 386 1297 q 500 1269 474 1297 q 526 1194 526 1242 q 495 1121 526 1154 q 401 1069 464 1088 l 401 1099 z "},"Ȳ":{"ha":850,"x_min":64,"x_max":788,"o":"m 397 354 l 64 1018 l 124 1018 l 426 411 l 728 1018 l 788 1018 l 454 354 l 454 0 l 397 0 l 397 354 m 239 1208 l 594 1208 l 594 1174 l 239 1174 l 239 1208 z "},"Ỹ":{"ha":850,"x_min":64,"x_max":788,"o":"m 397 354 l 64 1018 l 124 1018 l 426 411 l 728 1018 l 788 1018 l 454 354 l 454 0 l 397 0 l 397 354 m 200 1135 q 238 1234 201 1203 q 325 1265 275 1265 q 382 1252 356 1265 q 447 1214 408 1239 q 505 1180 485 1190 q 549 1169 525 1169 q 619 1195 592 1169 q 647 1267 647 1221 l 678 1267 q 642 1171 676 1207 q 549 1135 608 1135 q 496 1147 521 1135 q 433 1183 471 1160 q 373 1219 396 1208 q 325 1231 350 1231 q 258 1207 285 1231 q 231 1135 232 1183 l 200 1135 z "},"Z":{"ha":767,"x_min":64,"x_max":714,"o":"m 64 49 l 644 967 l 64 967 l 64 1018 l 714 1018 l 714 969 l 133 51 l 714 51 l 714 0 l 64 0 l 64 49 z "},"Ź":{"ha":767,"x_min":64,"x_max":714,"o":"m 64 49 l 644 967 l 64 967 l 64 1018 l 714 1018 l 714 969 l 133 51 l 714 51 l 714 0 l 64 0 l 64 49 m 532 1285 l 586 1285 l 404 1099 l 371 1099 l 532 1285 z "},"Ž":{"ha":767,"x_min":64,"x_max":714,"o":"m 64 49 l 644 967 l 64 967 l 64 1018 l 714 1018 l 714 969 l 133 51 l 714 51 l 714 0 l 64 0 l 64 49 m 199 1282 l 236 1282 l 383 1129 l 546 1282 l 583 1282 l 404 1099 l 361 1099 l 199 1282 z "},"Ż":{"ha":767,"x_min":64,"x_max":714,"o":"m 64 49 l 644 967 l 64 967 l 64 1018 l 714 1018 l 714 969 l 133 51 l 714 51 l 714 0 l 64 0 l 64 49 m 369 1151 q 356 1157 361 1151 q 351 1169 351 1163 l 351 1263 q 369 1281 351 1281 l 396 1281 q 414 1263 414 1281 l 414 1169 q 408 1156 414 1161 q 396 1151 403 1151 l 369 1151 z "},"Ẓ":{"ha":767,"x_min":64,"x_max":714,"o":"m 64 49 l 644 967 l 64 967 l 64 1018 l 714 1018 l 714 969 l 133 51 l 714 51 l 714 0 l 64 0 l 64 49 m 368 -279 q 355 -274 360 -279 q 350 -261 350 -268 l 350 -168 q 368 -150 350 -150 l 394 -150 q 413 -168 413 -150 l 413 -261 q 407 -274 413 -269 q 394 -279 401 -279 l 368 -279 z "},"a":{"ha":751,"x_min":71,"x_max":638,"o":"m 257 -8 q 123 41 175 -8 q 71 176 71 90 l 71 222 q 129 365 71 313 q 296 418 188 418 l 581 418 l 581 532 q 535 660 581 617 q 372 704 489 704 l 138 704 l 138 739 q 390 751 278 751 q 578 697 519 751 q 638 533 638 643 l 638 0 l 596 0 l 582 88 q 517 58 575 82 q 388 13 460 33 q 257 -8 317 -8 m 276 40 q 390 58 322 40 q 512 94 458 75 q 581 119 565 113 l 581 385 l 297 376 q 168 331 208 372 q 128 222 128 290 l 128 186 q 172 75 128 110 q 276 40 217 40 z "},"á":{"ha":751,"x_min":71,"x_max":638,"o":"m 257 -8 q 123 41 175 -8 q 71 176 71 90 l 71 222 q 129 365 71 313 q 296 418 188 418 l 581 418 l 581 532 q 535 660 581 617 q 372 704 489 704 l 138 704 l 138 739 q 390 751 278 751 q 578 697 519 751 q 638 533 638 643 l 638 0 l 596 0 l 582 88 q 517 58 575 82 q 388 13 460 33 q 257 -8 317 -8 m 276 40 q 390 58 322 40 q 512 94 458 75 q 581 119 565 113 l 581 385 l 297 376 q 168 331 208 372 q 128 222 128 290 l 128 186 q 172 75 128 110 q 276 40 217 40 m 499 1063 l 553 1063 l 371 876 l 338 876 l 499 1063 z "},"ă":{"ha":751,"x_min":71,"x_max":638,"o":"m 257 -8 q 123 41 175 -8 q 71 176 71 90 l 71 222 q 129 365 71 313 q 296 418 188 418 l 581 418 l 581 532 q 535 660 581 617 q 372 704 489 704 l 138 704 l 138 739 q 390 751 278 751 q 578 697 519 751 q 638 533 638 643 l 638 0 l 596 0 l 582 88 q 517 58 575 82 q 388 13 460 33 q 257 -8 317 -8 m 276 40 q 390 58 322 40 q 512 94 458 75 q 581 119 565 113 l 581 385 l 297 376 q 168 331 208 372 q 128 222 128 290 l 128 186 q 172 75 128 110 q 276 40 217 40 m 365 878 q 240 922 290 878 q 190 1067 190 965 l 221 1067 q 260 946 221 985 q 361 907 300 907 q 473 944 433 907 q 513 1067 513 981 l 543 1067 q 492 921 543 964 q 365 878 442 878 z "},"ắ":{"ha":751,"x_min":71,"x_max":638,"o":"m 257 -8 q 123 41 175 -8 q 71 176 71 90 l 71 222 q 129 365 71 313 q 296 418 188 418 l 581 418 l 581 532 q 535 660 581 617 q 372 704 489 704 l 138 704 l 138 739 q 390 751 278 751 q 578 697 519 751 q 638 533 638 643 l 638 0 l 596 0 l 582 88 q 517 58 575 82 q 388 13 460 33 q 257 -8 317 -8 m 276 40 q 390 58 322 40 q 512 94 458 75 q 581 119 565 113 l 581 385 l 297 376 q 168 331 208 372 q 128 222 128 290 l 128 186 q 172 75 128 110 q 276 40 217 40 m 497 1206 l 551 1206 l 369 1019 l 336 1019 l 497 1206 m 219 1022 q 259 932 219 961 q 361 903 299 903 q 513 1022 513 903 l 543 1022 q 493 908 543 942 q 365 875 443 875 q 240 910 289 875 q 190 1022 190 944 l 219 1022 z "},"ặ":{"ha":751,"x_min":71,"x_max":638,"o":"m 257 -8 q 123 41 175 -8 q 71 176 71 90 l 71 222 q 129 365 71 313 q 296 418 188 418 l 581 418 l 581 532 q 535 660 581 617 q 372 704 489 704 l 138 704 l 138 739 q 390 751 278 751 q 578 697 519 751 q 638 533 638 643 l 638 0 l 596 0 l 582 88 q 517 58 575 82 q 388 13 460 33 q 257 -8 317 -8 m 276 40 q 390 58 322 40 q 512 94 458 75 q 581 119 565 113 l 581 385 l 297 376 q 168 331 208 372 q 128 222 128 290 l 128 186 q 172 75 128 110 q 276 40 217 40 m 365 878 q 240 922 290 878 q 190 1067 190 965 l 221 1067 q 260 946 221 985 q 361 907 300 907 q 473 944 433 907 q 513 1067 513 981 l 543 1067 q 492 921 543 964 q 365 878 442 878 m 358 -279 q 340 -261 340 -279 l 340 -168 q 358 -150 340 -150 l 385 -150 q 403 -168 403 -150 l 403 -261 q 385 -279 403 -279 l 358 -279 z "},"ằ":{"ha":751,"x_min":71,"x_max":638,"o":"m 257 -8 q 123 41 175 -8 q 71 176 71 90 l 71 222 q 129 365 71 313 q 296 418 188 418 l 581 418 l 581 532 q 535 660 581 617 q 372 704 489 704 l 138 704 l 138 739 q 390 751 278 751 q 578 697 519 751 q 638 533 638 643 l 638 0 l 596 0 l 582 88 q 517 58 575 82 q 388 13 460 33 q 257 -8 317 -8 m 276 40 q 390 58 322 40 q 512 94 458 75 q 581 119 565 113 l 581 385 l 297 376 q 168 331 208 372 q 128 222 128 290 l 128 186 q 172 75 128 110 q 276 40 217 40 m 196 1206 l 250 1206 l 411 1019 l 378 1019 l 196 1206 m 219 1022 q 259 932 219 961 q 361 903 299 903 q 513 1022 513 903 l 543 1022 q 493 908 543 942 q 365 875 443 875 q 240 910 289 875 q 190 1022 190 944 l 219 1022 z "},"ẳ":{"ha":751,"x_min":71,"x_max":638,"o":"m 257 -8 q 123 41 175 -8 q 71 176 71 90 l 71 222 q 129 365 71 313 q 296 418 188 418 l 581 418 l 581 532 q 535 660 581 617 q 372 704 489 704 l 138 704 l 138 739 q 390 751 278 751 q 578 697 519 751 q 638 533 638 643 l 638 0 l 596 0 l 582 88 q 517 58 575 82 q 388 13 460 33 q 257 -8 317 -8 m 276 40 q 390 58 322 40 q 512 94 458 75 q 581 119 565 113 l 581 385 l 297 376 q 168 331 208 372 q 128 222 128 290 l 128 186 q 172 75 128 110 q 276 40 217 40 m 346 992 q 415 1032 393 1007 q 438 1088 438 1057 q 419 1144 438 1125 q 358 1163 400 1163 q 307 1154 332 1163 l 307 1182 q 365 1190 331 1190 q 444 1163 418 1190 q 471 1088 471 1135 q 440 1014 471 1047 q 346 963 408 981 l 346 992 m 365 875 q 240 910 289 875 q 190 1022 190 944 l 219 1022 q 259 932 219 961 q 361 903 299 903 q 513 1022 513 903 l 543 1022 q 493 908 543 942 q 365 875 443 875 z "},"ẵ":{"ha":751,"x_min":71,"x_max":638,"o":"m 257 -8 q 123 41 175 -8 q 71 176 71 90 l 71 222 q 129 365 71 313 q 296 418 188 418 l 581 418 l 581 532 q 535 660 581 617 q 372 704 489 704 l 138 704 l 138 739 q 390 751 278 751 q 578 697 519 751 q 638 533 638 643 l 638 0 l 596 0 l 582 88 q 517 58 575 82 q 388 13 460 33 q 257 -8 317 -8 m 276 40 q 390 58 322 40 q 512 94 458 75 q 581 119 565 113 l 581 385 l 297 376 q 168 331 208 372 q 128 222 128 290 l 128 186 q 172 75 128 110 q 276 40 217 40 m 263 1172 q 317 1163 292 1172 q 379 1136 343 1154 q 435 1111 414 1119 q 481 1103 457 1103 q 542 1121 518 1103 q 567 1172 567 1139 l 597 1172 q 566 1098 596 1125 q 483 1071 536 1071 q 433 1079 457 1071 q 375 1104 410 1088 q 318 1130 343 1121 q 265 1139 293 1139 q 207 1122 231 1139 q 183 1069 183 1104 l 153 1069 q 186 1148 154 1124 q 263 1172 218 1172 m 219 1022 q 259 932 219 961 q 361 903 299 903 q 513 1022 513 903 l 543 1022 q 493 908 543 942 q 365 875 443 875 q 240 910 289 875 q 190 1022 190 944 l 219 1022 z "},"â":{"ha":751,"x_min":71,"x_max":638,"o":"m 257 -8 q 123 41 175 -8 q 71 176 71 90 l 71 222 q 129 365 71 313 q 296 418 188 418 l 581 418 l 581 532 q 535 660 581 617 q 372 704 489 704 l 138 704 l 138 739 q 390 751 278 751 q 578 697 519 751 q 638 533 638 643 l 638 0 l 596 0 l 582 88 q 517 58 575 82 q 388 13 460 33 q 257 -8 317 -8 m 276 40 q 390 58 322 40 q 512 94 458 75 q 581 119 565 113 l 581 385 l 297 376 q 168 331 208 372 q 128 222 128 290 l 128 186 q 172 75 128 110 q 276 40 217 40 m 357 1060 l 400 1060 l 563 876 l 525 876 l 378 1029 l 215 876 l 178 876 l 357 1060 z "},"ấ":{"ha":751,"x_min":71,"x_max":692,"o":"m 257 -8 q 123 41 175 -8 q 71 176 71 90 l 71 222 q 129 365 71 313 q 296 418 188 418 l 581 418 l 581 532 q 535 660 581 617 q 372 704 489 704 l 138 704 l 138 739 q 390 751 278 751 q 578 697 519 751 q 638 533 638 643 l 638 0 l 596 0 l 582 88 q 517 58 575 82 q 388 13 460 33 q 257 -8 317 -8 m 276 40 q 390 58 322 40 q 512 94 458 75 q 581 119 565 113 l 581 385 l 297 376 q 168 331 208 372 q 128 222 128 290 l 128 186 q 172 75 128 110 q 276 40 217 40 m 692 1160 l 517 976 l 483 976 l 638 1160 l 692 1160 m 400 1006 l 563 876 l 524 876 l 378 975 l 215 876 l 178 876 l 357 1006 l 400 1006 z "},"ậ":{"ha":751,"x_min":71,"x_max":638,"o":"m 257 -8 q 123 41 175 -8 q 71 176 71 90 l 71 222 q 129 365 71 313 q 296 418 188 418 l 581 418 l 581 532 q 535 660 581 617 q 372 704 489 704 l 138 704 l 138 739 q 390 751 278 751 q 578 697 519 751 q 638 533 638 643 l 638 0 l 596 0 l 582 88 q 517 58 575 82 q 388 13 460 33 q 257 -8 317 -8 m 276 40 q 390 58 322 40 q 512 94 458 75 q 581 119 565 113 l 581 385 l 297 376 q 168 331 208 372 q 128 222 128 290 l 128 186 q 172 75 128 110 q 276 40 217 40 m 357 1060 l 400 1060 l 563 876 l 525 876 l 378 1029 l 215 876 l 178 876 l 357 1060 m 358 -279 q 340 -261 340 -279 l 340 -168 q 358 -150 340 -150 l 385 -150 q 403 -168 403 -150 l 403 -261 q 385 -279 403 -279 l 358 -279 z "},"ầ":{"ha":751,"x_min":57,"x_max":638,"o":"m 257 -8 q 123 41 175 -8 q 71 176 71 90 l 71 222 q 129 365 71 313 q 296 418 188 418 l 581 418 l 581 532 q 535 660 581 617 q 372 704 489 704 l 138 704 l 138 739 q 390 751 278 751 q 578 697 519 751 q 638 533 638 643 l 638 0 l 596 0 l 582 88 q 517 58 575 82 q 388 13 460 33 q 257 -8 317 -8 m 276 40 q 390 58 322 40 q 512 94 458 75 q 581 119 565 113 l 581 385 l 297 376 q 168 331 208 372 q 128 222 128 290 l 128 186 q 172 75 128 110 q 276 40 217 40 m 111 1160 l 265 976 l 232 976 l 57 1160 l 111 1160 m 400 1006 l 563 876 l 524 876 l 378 975 l 215 876 l 178 876 l 357 1006 l 400 1006 z "},"ẩ":{"ha":751,"x_min":71,"x_max":638,"o":"m 257 -8 q 123 41 175 -8 q 71 176 71 90 l 71 222 q 129 365 71 313 q 296 418 188 418 l 581 418 l 581 532 q 535 660 581 617 q 372 704 489 704 l 138 704 l 138 739 q 390 751 278 751 q 578 697 519 751 q 638 533 638 643 l 638 0 l 596 0 l 582 88 q 517 58 575 82 q 388 13 460 33 q 257 -8 317 -8 m 276 40 q 390 58 322 40 q 512 94 458 75 q 581 119 565 113 l 581 385 l 297 376 q 168 331 208 372 q 128 222 128 290 l 128 186 q 172 75 128 110 q 276 40 217 40 m 515 975 q 599 1058 599 1001 q 528 1119 599 1119 q 476 1111 501 1119 l 476 1138 q 535 1147 504 1147 q 607 1124 583 1147 q 631 1058 631 1100 q 601 992 631 1022 q 515 946 572 961 l 515 975 m 357 1006 l 400 1006 l 563 876 l 524 876 l 378 975 l 215 876 l 178 876 l 357 1006 z "},"ẫ":{"ha":751,"x_min":71,"x_max":638,"o":"m 257 -8 q 123 41 175 -8 q 71 176 71 90 l 71 222 q 129 365 71 313 q 296 418 188 418 l 581 418 l 581 532 q 535 660 581 617 q 372 704 489 704 l 138 704 l 138 739 q 390 751 278 751 q 578 697 519 751 q 638 533 638 643 l 638 0 l 596 0 l 582 88 q 517 58 575 82 q 388 13 460 33 q 257 -8 317 -8 m 276 40 q 390 58 322 40 q 512 94 458 75 q 581 119 565 113 l 581 385 l 297 376 q 168 331 208 372 q 128 222 128 290 l 128 186 q 172 75 128 110 q 276 40 217 40 m 263 1175 q 317 1166 292 1175 q 379 1139 343 1157 q 435 1114 414 1122 q 481 1106 457 1106 q 542 1124 518 1106 q 567 1175 567 1142 l 597 1175 q 566 1101 596 1128 q 483 1074 536 1074 q 431 1083 456 1074 q 374 1108 406 1092 q 315 1133 340 1125 q 264 1142 290 1142 q 206 1124 229 1142 q 183 1072 183 1107 l 153 1072 q 186 1151 154 1126 q 263 1175 218 1175 m 563 876 l 524 876 l 378 975 l 215 876 l 178 876 l 357 1006 l 400 1006 l 563 876 z "},"ȁ":{"ha":751,"x_min":71,"x_max":638,"o":"m 257 -8 q 123 41 175 -8 q 71 176 71 90 l 71 222 q 129 365 71 313 q 296 418 188 418 l 581 418 l 581 532 q 535 660 581 617 q 372 704 489 704 l 138 704 l 138 739 q 390 751 278 751 q 578 697 519 751 q 638 533 638 643 l 638 0 l 596 0 l 582 88 q 517 58 575 82 q 388 13 460 33 q 257 -8 317 -8 m 276 40 q 390 58 322 40 q 512 94 458 75 q 581 119 565 113 l 581 385 l 297 376 q 168 331 208 372 q 128 222 128 290 l 128 186 q 172 75 128 110 q 276 40 217 40 m 118 1063 l 172 1063 l 332 876 l 299 876 l 118 1063 m 296 1063 l 350 1063 l 510 876 l 476 876 l 296 1063 z "},"ä":{"ha":751,"x_min":71,"x_max":638,"o":"m 257 -8 q 123 41 175 -8 q 71 176 71 90 l 71 222 q 129 365 71 313 q 296 418 188 418 l 581 418 l 581 532 q 535 660 581 617 q 372 704 489 704 l 138 704 l 138 739 q 390 751 278 751 q 578 697 519 751 q 638 533 638 643 l 638 0 l 596 0 l 582 88 q 517 58 575 82 q 388 13 460 33 q 257 -8 317 -8 m 276 40 q 390 58 322 40 q 512 94 458 75 q 581 119 565 113 l 581 385 l 297 376 q 168 331 208 372 q 128 222 128 290 l 128 186 q 172 75 128 110 q 276 40 217 40 m 226 919 q 214 925 219 919 q 208 938 208 931 l 208 1031 q 226 1049 208 1049 l 253 1049 q 271 1031 271 1049 l 271 938 q 253 919 271 919 l 226 919 m 497 919 q 483 925 489 919 q 478 938 478 931 l 478 1031 q 497 1049 478 1049 l 522 1049 q 542 1031 542 1049 l 542 938 q 536 924 542 929 q 522 919 531 919 l 497 919 z "},"ạ":{"ha":751,"x_min":71,"x_max":638,"o":"m 257 -8 q 123 41 175 -8 q 71 176 71 90 l 71 222 q 129 365 71 313 q 296 418 188 418 l 581 418 l 581 532 q 535 660 581 617 q 372 704 489 704 l 138 704 l 138 739 q 390 751 278 751 q 578 697 519 751 q 638 533 638 643 l 638 0 l 596 0 l 582 88 q 517 58 575 82 q 388 13 460 33 q 257 -8 317 -8 m 276 40 q 390 58 322 40 q 512 94 458 75 q 581 119 565 113 l 581 385 l 297 376 q 168 331 208 372 q 128 222 128 290 l 128 186 q 172 75 128 110 q 276 40 217 40 m 358 -279 q 340 -261 340 -279 l 340 -168 q 358 -150 340 -150 l 385 -150 q 403 -168 403 -150 l 403 -261 q 385 -279 403 -279 l 358 -279 z "},"à":{"ha":751,"x_min":71,"x_max":638,"o":"m 257 -8 q 123 41 175 -8 q 71 176 71 90 l 71 222 q 129 365 71 313 q 296 418 188 418 l 581 418 l 581 532 q 535 660 581 617 q 372 704 489 704 l 138 704 l 138 739 q 390 751 278 751 q 578 697 519 751 q 638 533 638 643 l 638 0 l 596 0 l 582 88 q 517 58 575 82 q 388 13 460 33 q 257 -8 317 -8 m 276 40 q 390 58 322 40 q 512 94 458 75 q 581 119 565 113 l 581 385 l 297 376 q 168 331 208 372 q 128 222 128 290 l 128 186 q 172 75 128 110 q 276 40 217 40 m 200 1063 l 254 1063 l 415 876 l 382 876 l 200 1063 z "},"ả":{"ha":751,"x_min":71,"x_max":638,"o":"m 257 -8 q 123 41 175 -8 q 71 176 71 90 l 71 222 q 129 365 71 313 q 296 418 188 418 l 581 418 l 581 532 q 535 660 581 617 q 372 704 489 704 l 138 704 l 138 739 q 390 751 278 751 q 578 697 519 751 q 638 533 638 643 l 638 0 l 596 0 l 582 88 q 517 58 575 82 q 388 13 460 33 q 257 -8 317 -8 m 276 40 q 390 58 322 40 q 512 94 458 75 q 581 119 565 113 l 581 385 l 297 376 q 168 331 208 372 q 128 222 128 290 l 128 186 q 172 75 128 110 q 276 40 217 40 m 357 874 q 426 914 404 889 q 449 969 449 939 q 430 1026 449 1007 q 369 1044 411 1044 q 318 1036 343 1044 l 318 1064 q 376 1072 342 1072 q 456 1044 429 1072 q 482 969 482 1017 q 451 896 482 929 q 357 844 419 863 l 357 874 z "},"ȃ":{"ha":751,"x_min":71,"x_max":638,"o":"m 257 -8 q 123 41 175 -8 q 71 176 71 90 l 71 222 q 129 365 71 313 q 296 418 188 418 l 581 418 l 581 532 q 535 660 581 617 q 372 704 489 704 l 138 704 l 138 739 q 390 751 278 751 q 578 697 519 751 q 638 533 638 643 l 638 0 l 596 0 l 582 88 q 517 58 575 82 q 388 13 460 33 q 257 -8 317 -8 m 276 40 q 390 58 322 40 q 512 94 458 75 q 581 119 565 113 l 581 385 l 297 376 q 168 331 208 372 q 128 222 128 290 l 128 186 q 172 75 128 110 q 276 40 217 40 m 369 1067 q 494 1023 444 1067 q 544 878 544 979 l 514 878 q 474 999 514 960 q 374 1038 435 1038 q 262 1001 301 1038 q 222 878 222 964 l 192 878 q 242 1024 192 981 q 369 1067 293 1067 z "},"ā":{"ha":751,"x_min":71,"x_max":638,"o":"m 257 -8 q 123 41 175 -8 q 71 176 71 90 l 71 222 q 129 365 71 313 q 296 418 188 418 l 581 418 l 581 532 q 535 660 581 617 q 372 704 489 704 l 138 704 l 138 739 q 390 751 278 751 q 578 697 519 751 q 638 533 638 643 l 638 0 l 596 0 l 582 88 q 517 58 575 82 q 388 13 460 33 q 257 -8 317 -8 m 276 40 q 390 58 322 40 q 512 94 458 75 q 581 119 565 113 l 581 385 l 297 376 q 168 331 208 372 q 128 222 128 290 l 128 186 q 172 75 128 110 q 276 40 217 40 m 196 986 l 551 986 l 551 951 l 196 951 l 196 986 z "},"ą":{"ha":751,"x_min":71,"x_max":679,"o":"m 679 -222 l 679 -253 q 647 -254 668 -254 q 542 -222 582 -254 q 501 -133 501 -189 q 529 -60 501 -94 q 613 0 557 -25 l 596 0 l 582 88 q 517 58 575 82 q 388 13 460 33 q 257 -8 317 -8 q 123 41 175 -8 q 71 176 71 90 l 71 222 q 129 365 71 313 q 296 418 188 418 l 581 418 l 581 532 q 535 660 581 617 q 372 704 489 704 l 138 704 l 138 739 q 390 751 278 751 q 578 697 519 751 q 638 533 638 643 l 638 0 q 563 -56 589 -25 q 538 -122 538 -87 q 572 -197 538 -171 q 671 -222 606 -222 l 679 -222 m 581 385 l 297 376 q 168 331 208 372 q 128 222 128 290 l 128 186 q 172 75 128 110 q 276 40 217 40 q 390 58 322 40 q 512 94 458 75 q 581 119 565 113 l 581 385 z "},"å":{"ha":751,"x_min":71,"x_max":638,"o":"m 257 -8 q 123 41 175 -8 q 71 176 71 90 l 71 222 q 129 365 71 313 q 296 418 188 418 l 581 418 l 581 532 q 535 660 581 617 q 372 704 489 704 l 138 704 l 138 739 q 390 751 278 751 q 578 697 519 751 q 638 533 638 643 l 638 0 l 596 0 l 582 88 q 517 58 575 82 q 388 13 460 33 q 257 -8 317 -8 m 276 40 q 390 58 322 40 q 512 94 458 75 q 581 119 565 113 l 581 385 l 297 376 q 168 331 208 372 q 128 222 128 290 l 128 186 q 172 75 128 110 q 276 40 217 40 m 375 831 q 265 863 301 831 q 229 975 229 896 q 265 1087 229 1054 q 375 1119 301 1119 q 483 1087 449 1119 q 518 975 518 1054 q 483 863 518 896 q 375 831 449 831 m 375 860 q 460 885 435 860 q 486 975 486 910 q 460 1065 486 1040 q 375 1090 435 1090 q 288 1065 315 1090 q 261 975 261 1039 q 288 885 261 910 q 375 860 315 860 z "},"ǻ":{"ha":751,"x_min":71,"x_max":638,"o":"m 375 831 q 265 863 301 831 q 229 975 229 896 q 264 1085 229 1051 q 369 1119 299 1118 l 513 1285 l 567 1285 l 404 1118 q 490 1079 463 1113 q 518 975 518 1046 q 483 863 518 896 q 375 831 449 831 m 375 1090 q 288 1065 315 1090 q 261 975 261 1039 q 288 885 261 910 q 375 860 315 860 q 460 885 435 860 q 486 975 486 910 q 460 1065 486 1040 q 375 1090 435 1090 m 390 751 q 578 697 519 751 q 638 533 638 643 l 638 0 l 596 0 l 582 88 q 517 58 575 82 q 388 13 460 33 q 257 -8 317 -8 q 123 41 175 -8 q 71 176 71 90 l 71 222 q 129 365 71 313 q 296 418 188 418 l 581 418 l 581 532 q 535 660 581 617 q 372 704 489 704 l 138 704 l 138 739 q 390 751 278 751 m 581 385 l 297 376 q 168 331 208 372 q 128 222 128 290 l 128 186 q 172 75 128 110 q 276 40 217 40 q 390 58 322 40 q 512 94 458 75 q 581 119 565 113 l 581 385 z "},"ã":{"ha":751,"x_min":71,"x_max":638,"o":"m 257 -8 q 123 41 175 -8 q 71 176 71 90 l 71 222 q 129 365 71 313 q 296 418 188 418 l 581 418 l 581 532 q 535 660 581 617 q 372 704 489 704 l 138 704 l 138 739 q 390 751 278 751 q 578 697 519 751 q 638 533 638 643 l 638 0 l 596 0 l 582 88 q 517 58 575 82 q 388 13 460 33 q 257 -8 317 -8 m 276 40 q 390 58 322 40 q 512 94 458 75 q 581 119 565 113 l 581 385 l 297 376 q 168 331 208 372 q 128 222 128 290 l 128 186 q 172 75 128 110 q 276 40 217 40 m 157 913 q 195 1012 158 981 q 282 1043 232 1043 q 339 1030 313 1043 q 404 992 365 1017 q 463 958 442 968 q 506 947 483 947 q 576 973 549 947 q 604 1044 604 999 l 635 1044 q 599 949 633 985 q 506 913 565 913 q 453 925 478 913 q 390 961 428 938 q 330 997 353 986 q 282 1008 307 1008 q 215 985 242 1008 q 188 913 189 961 l 157 913 z "},"æ":{"ha":1247,"x_min":72,"x_max":1154,"o":"m 258 -8 q 121 41 169 -8 q 72 181 72 90 l 72 219 q 129 358 72 308 q 289 408 186 408 l 581 408 l 581 532 q 535 657 581 610 q 381 704 489 704 l 139 704 l 139 739 q 390 751 257 751 q 537 715 475 751 q 618 603 599 678 q 706 715 642 683 q 871 747 769 747 q 1086 694 1018 747 q 1154 510 1154 642 q 1106 395 1154 426 q 956 364 1057 364 l 638 364 q 705 109 636 179 q 897 39 774 39 l 1136 39 l 1136 4 q 883 -8 1014 -8 q 710 38 769 -8 q 614 157 650 83 q 455 39 549 86 q 258 -8 361 -8 m 954 407 q 1064 426 1028 407 q 1100 511 1100 446 q 1078 622 1100 581 q 1008 681 1057 663 q 869 700 958 700 q 728 676 776 700 q 660 591 681 653 q 638 407 639 529 l 954 407 m 271 40 q 446 81 358 40 q 601 194 533 122 q 581 368 582 268 l 294 367 q 169 326 208 365 q 129 219 129 286 l 129 188 q 169 75 129 110 q 271 40 208 40 z "},"ǽ":{"ha":1247,"x_min":72,"x_max":1154,"o":"m 258 -8 q 121 41 169 -8 q 72 181 72 90 l 72 219 q 129 358 72 308 q 289 408 186 408 l 581 408 l 581 532 q 535 657 581 610 q 381 704 489 704 l 139 704 l 139 739 q 390 751 257 751 q 537 715 475 751 q 618 603 599 678 q 706 715 642 683 q 871 747 769 747 q 1086 694 1018 747 q 1154 510 1154 642 q 1106 395 1154 426 q 956 364 1057 364 l 638 364 q 705 109 636 179 q 897 39 774 39 l 1136 39 l 1136 4 q 883 -8 1014 -8 q 710 38 769 -8 q 614 157 650 83 q 455 39 549 86 q 258 -8 361 -8 m 954 407 q 1064 426 1028 407 q 1100 511 1100 446 q 1078 622 1100 581 q 1008 681 1057 663 q 869 700 958 700 q 728 676 776 700 q 660 591 681 653 q 638 407 639 529 l 954 407 m 271 40 q 446 81 358 40 q 601 194 533 122 q 581 368 582 268 l 294 367 q 169 326 208 365 q 129 219 129 286 l 129 188 q 169 75 129 110 q 271 40 208 40 m 742 1063 l 796 1063 l 614 876 l 581 876 l 742 1063 z "},"b":{"ha":797,"x_min":119,"x_max":706,"o":"m 440 -8 q 299 17 368 -8 q 176 78 231 43 l 163 0 l 119 0 l 119 1060 l 176 1060 l 176 664 q 311 724 239 700 q 439 747 383 747 q 639 659 572 747 q 706 365 706 571 q 642 91 706 190 q 440 -8 579 -8 m 429 42 q 594 125 539 42 q 649 367 649 208 q 622 570 649 497 q 548 671 596 643 q 429 699 500 699 q 307 681 361 699 q 176 625 253 664 l 176 114 q 301 61 242 81 q 429 42 360 42 z "},"ḃ":{"ha":797,"x_min":117,"x_max":706,"o":"m 440 -8 q 299 17 368 -8 q 176 78 231 43 l 163 0 l 119 0 l 119 1060 l 176 1060 l 176 664 q 311 724 239 700 q 439 747 383 747 q 639 659 572 747 q 706 365 706 571 q 642 91 706 190 q 440 -8 579 -8 m 429 42 q 594 125 539 42 q 649 367 649 208 q 622 570 649 497 q 548 671 596 643 q 429 699 500 699 q 307 681 361 699 q 176 625 253 664 l 176 114 q 301 61 242 81 q 429 42 360 42 m 135 1207 q 122 1213 126 1207 q 117 1225 117 1218 l 117 1318 q 135 1336 117 1336 l 161 1336 q 179 1318 179 1336 l 179 1225 q 174 1212 179 1217 q 161 1207 168 1207 l 135 1207 z "},"c":{"ha":681,"x_min":92,"x_max":628,"o":"m 379 -8 q 226 24 289 -8 q 128 139 164 56 q 92 369 92 222 q 126 601 92 518 q 224 715 161 683 q 381 746 288 746 q 617 735 499 746 l 617 699 l 389 699 q 257 672 308 699 q 177 572 206 644 q 149 365 149 499 q 210 109 149 179 q 389 39 272 39 l 628 39 l 628 4 q 379 -8 485 -8 z "},"ć":{"ha":681,"x_min":92,"x_max":628,"o":"m 379 -8 q 226 24 289 -8 q 128 139 164 56 q 92 369 92 222 q 126 601 92 518 q 224 715 161 683 q 381 746 288 746 q 617 735 499 746 l 617 699 l 389 699 q 257 672 308 699 q 177 572 206 644 q 149 365 149 499 q 210 109 149 179 q 389 39 272 39 l 628 39 l 628 4 q 379 -8 485 -8 m 499 1063 l 553 1063 l 371 876 l 338 876 l 499 1063 z "},"č":{"ha":681,"x_min":92,"x_max":628,"o":"m 379 -8 q 226 24 289 -8 q 128 139 164 56 q 92 369 92 222 q 126 601 92 518 q 224 715 161 683 q 381 746 288 746 q 617 735 499 746 l 617 699 l 389 699 q 257 672 308 699 q 177 572 206 644 q 149 365 149 499 q 210 109 149 179 q 389 39 272 39 l 628 39 l 628 4 q 379 -8 485 -8 m 190 1060 l 228 1060 l 375 907 l 538 1060 l 575 1060 l 396 876 l 353 876 l 190 1060 z "},"ç":{"ha":681,"x_min":92,"x_max":628,"o":"m 628 4 q 385 -8 488 -8 l 338 -79 q 417 -103 393 -81 q 442 -165 442 -125 q 409 -233 442 -208 q 317 -257 376 -257 l 283 -257 l 283 -233 l 318 -231 q 383 -210 361 -228 q 406 -160 406 -193 q 383 -112 406 -129 q 299 -93 360 -94 l 356 -8 q 160 81 229 -3 q 92 369 92 164 q 126 601 92 518 q 224 715 161 683 q 381 746 288 746 q 617 735 499 746 l 617 699 l 389 699 q 257 672 308 699 q 177 572 206 644 q 149 365 149 499 q 210 109 149 179 q 389 39 272 39 l 628 39 l 628 4 z "},"ḉ":{"ha":681,"x_min":92,"x_max":628,"o":"m 371 876 l 338 876 l 499 1063 l 553 1063 l 371 876 m 628 4 q 385 -8 488 -8 l 338 -79 q 417 -103 393 -81 q 442 -165 442 -125 q 409 -233 442 -208 q 317 -257 376 -257 l 283 -257 l 283 -233 l 318 -231 q 383 -210 361 -228 q 406 -160 406 -193 q 383 -112 406 -129 q 299 -93 360 -94 l 356 -8 q 160 81 229 -3 q 92 369 92 164 q 126 601 92 518 q 224 715 161 683 q 381 746 288 746 q 617 735 499 746 l 617 699 l 389 699 q 257 672 308 699 q 177 572 206 644 q 149 365 149 499 q 210 109 149 179 q 389 39 272 39 l 628 39 l 628 4 z "},"ĉ":{"ha":681,"x_min":92,"x_max":628,"o":"m 379 -8 q 226 24 289 -8 q 128 139 164 56 q 92 369 92 222 q 126 601 92 518 q 224 715 161 683 q 381 746 288 746 q 617 735 499 746 l 617 699 l 389 699 q 257 672 308 699 q 177 572 206 644 q 149 365 149 499 q 210 109 149 179 q 389 39 272 39 l 628 39 l 628 4 q 379 -8 485 -8 m 357 1060 l 400 1060 l 563 876 l 525 876 l 378 1029 l 215 876 l 178 876 l 357 1060 z "},"ċ":{"ha":681,"x_min":92,"x_max":628,"o":"m 379 -8 q 226 24 289 -8 q 128 139 164 56 q 92 369 92 222 q 126 601 92 518 q 224 715 161 683 q 381 746 288 746 q 617 735 499 746 l 617 699 l 389 699 q 257 672 308 699 q 177 572 206 644 q 149 365 149 499 q 210 109 149 179 q 389 39 272 39 l 628 39 l 628 4 q 379 -8 485 -8 m 361 929 q 348 935 353 929 q 343 947 343 940 l 343 1040 q 361 1058 343 1058 l 388 1058 q 406 1040 406 1058 l 406 947 q 400 934 406 939 q 388 929 394 929 l 361 929 z "},"d":{"ha":792,"x_min":92,"x_max":678,"o":"m 358 -8 q 156 83 219 -8 q 92 365 92 175 q 120 588 92 504 q 210 709 149 671 q 372 747 271 747 q 621 700 482 747 l 621 1060 l 678 1060 l 678 0 l 635 0 l 621 78 q 506 21 589 50 q 358 -8 422 -8 m 368 40 q 496 60 436 40 q 621 115 556 81 l 621 660 q 490 691 535 682 q 382 700 444 700 q 247 669 297 700 q 172 565 196 638 q 149 367 149 493 q 200 118 149 196 q 368 40 251 40 z "},"ð":{"ha":803,"x_min":92,"x_max":714,"o":"m 711 371 l 711 369 l 711 368 l 711 368 q 676 133 711 215 q 574 22 640 51 q 400 -8 507 -8 q 227 22 293 -8 q 126 134 161 51 q 92 369 92 217 q 126 603 92 522 q 226 715 161 685 q 396 744 292 744 q 546 720 488 744 q 638 632 604 696 q 496 917 600 824 l 275 831 l 267 858 l 469 939 q 221 1026 378 1008 l 221 1067 q 517 957 408 1049 l 703 1031 l 714 1003 l 542 935 q 667 718 624 856 q 711 374 710 581 l 711 371 m 400 40 q 543 64 490 40 q 625 158 596 88 q 654 369 654 229 q 625 579 654 508 q 543 673 596 650 q 400 696 490 696 q 258 673 310 696 q 177 579 206 650 q 149 369 149 508 q 177 158 149 229 q 258 64 206 88 q 400 40 310 40 z "},"ď":{"ha":792,"x_min":92,"x_max":838,"o":"m 358 -8 q 156 83 219 -8 q 92 365 92 175 q 120 588 92 504 q 210 709 149 671 q 372 747 271 747 q 621 700 482 747 l 621 1060 l 678 1060 l 678 0 l 635 0 l 621 78 q 506 21 589 50 q 358 -8 422 -8 m 368 40 q 496 60 436 40 q 621 115 556 81 l 621 660 q 490 691 535 682 q 382 700 444 700 q 247 669 297 700 q 172 565 196 638 q 149 367 149 493 q 200 118 149 196 q 368 40 251 40 m 783 1007 l 783 1088 l 838 1088 l 838 1007 l 832 808 l 790 808 l 783 1007 z "},"đ":{"ha":792,"x_min":92,"x_max":781,"o":"m 781 885 l 678 885 l 678 0 l 635 0 l 621 78 q 506 21 589 50 q 358 -8 422 -8 q 156 83 219 -8 q 92 365 92 175 q 120 588 92 504 q 210 709 149 671 q 372 747 271 747 q 621 700 482 747 l 621 885 l 410 885 l 410 914 l 621 914 l 621 1060 l 678 1060 l 678 914 l 781 914 l 781 885 m 621 660 q 490 691 535 682 q 382 700 444 700 q 247 669 297 700 q 172 565 196 638 q 149 367 149 493 q 200 118 149 196 q 368 40 251 40 q 496 60 436 40 q 621 115 556 81 l 621 660 z "},"ḋ":{"ha":792,"x_min":92,"x_max":679,"o":"m 358 -8 q 156 83 219 -8 q 92 365 92 175 q 120 588 92 504 q 210 709 149 671 q 372 747 271 747 q 621 700 482 747 l 621 1060 l 678 1060 l 678 0 l 635 0 l 621 78 q 506 21 589 50 q 358 -8 422 -8 m 368 40 q 496 60 436 40 q 621 115 556 81 l 621 660 q 490 691 535 682 q 382 700 444 700 q 247 669 297 700 q 172 565 196 638 q 149 367 149 493 q 200 118 149 196 q 368 40 251 40 m 635 1207 q 622 1213 626 1207 q 617 1225 617 1218 l 617 1318 q 635 1336 617 1336 l 661 1336 q 679 1318 679 1336 l 679 1225 q 674 1212 679 1217 q 661 1207 668 1207 l 635 1207 z "},"ḍ":{"ha":792,"x_min":92,"x_max":678,"o":"m 358 -8 q 156 83 219 -8 q 92 365 92 175 q 120 588 92 504 q 210 709 149 671 q 372 747 271 747 q 621 700 482 747 l 621 1060 l 678 1060 l 678 0 l 635 0 l 621 78 q 506 21 589 50 q 358 -8 422 -8 m 368 40 q 496 60 436 40 q 621 115 556 81 l 621 660 q 490 691 535 682 q 382 700 444 700 q 247 669 297 700 q 172 565 196 638 q 149 367 149 493 q 200 118 149 196 q 368 40 251 40 m 385 -279 q 367 -261 367 -279 l 367 -168 q 385 -150 367 -150 l 411 -150 q 429 -168 429 -150 l 429 -261 q 411 -279 429 -279 l 385 -279 z "},"ḏ":{"ha":792,"x_min":92,"x_max":678,"o":"m 358 -8 q 156 83 219 -8 q 92 365 92 175 q 120 588 92 504 q 210 709 149 671 q 372 747 271 747 q 621 700 482 747 l 621 1060 l 678 1060 l 678 0 l 635 0 l 621 78 q 506 21 589 50 q 358 -8 422 -8 m 368 40 q 496 60 436 40 q 621 115 556 81 l 621 660 q 490 691 535 682 q 382 700 444 700 q 247 669 297 700 q 172 565 196 638 q 149 367 149 493 q 200 118 149 196 q 368 40 251 40 m 215 -208 l 571 -208 l 571 -243 l 215 -243 l 215 -208 z "},"e":{"ha":754,"x_min":92,"x_max":663,"o":"m 388 -8 q 209 27 272 -8 q 119 144 146 63 q 92 372 92 226 q 121 599 92 518 q 214 713 150 679 q 392 747 278 747 q 598 694 533 747 q 663 508 663 640 q 467 342 663 342 l 149 342 q 169 162 149 226 q 242 68 189 97 q 397 39 296 39 l 647 39 l 647 4 q 388 -8 513 -8 m 464 385 q 575 412 540 385 q 610 508 610 439 q 588 625 610 583 q 520 684 567 667 q 392 701 474 701 q 243 674 294 701 q 170 580 192 647 q 149 385 149 513 l 464 385 z "},"é":{"ha":754,"x_min":92,"x_max":663,"o":"m 388 -8 q 209 27 272 -8 q 119 144 146 63 q 92 372 92 226 q 121 599 92 518 q 214 713 150 679 q 392 747 278 747 q 598 694 533 747 q 663 508 663 640 q 467 342 663 342 l 149 342 q 169 162 149 226 q 242 68 189 97 q 397 39 296 39 l 647 39 l 647 4 q 388 -8 513 -8 m 464 385 q 575 412 540 385 q 610 508 610 439 q 588 625 610 583 q 520 684 567 667 q 392 701 474 701 q 243 674 294 701 q 170 580 192 647 q 149 385 149 513 l 464 385 m 499 1063 l 553 1063 l 371 876 l 338 876 l 499 1063 z "},"ĕ":{"ha":754,"x_min":92,"x_max":663,"o":"m 388 -8 q 209 27 272 -8 q 119 144 146 63 q 92 372 92 226 q 121 599 92 518 q 214 713 150 679 q 392 747 278 747 q 598 694 533 747 q 663 508 663 640 q 467 342 663 342 l 149 342 q 169 162 149 226 q 242 68 189 97 q 397 39 296 39 l 647 39 l 647 4 q 388 -8 513 -8 m 464 385 q 575 412 540 385 q 610 508 610 439 q 588 625 610 583 q 520 684 567 667 q 392 701 474 701 q 243 674 294 701 q 170 580 192 647 q 149 385 149 513 l 464 385 m 365 878 q 240 922 290 878 q 190 1067 190 965 l 221 1067 q 260 946 221 985 q 361 907 300 907 q 473 944 433 907 q 513 1067 513 981 l 543 1067 q 492 921 543 964 q 365 878 442 878 z "},"ě":{"ha":754,"x_min":92,"x_max":663,"o":"m 388 -8 q 209 27 272 -8 q 119 144 146 63 q 92 372 92 226 q 121 599 92 518 q 214 713 150 679 q 392 747 278 747 q 598 694 533 747 q 663 508 663 640 q 467 342 663 342 l 149 342 q 169 162 149 226 q 242 68 189 97 q 397 39 296 39 l 647 39 l 647 4 q 388 -8 513 -8 m 464 385 q 575 412 540 385 q 610 508 610 439 q 588 625 610 583 q 520 684 567 667 q 392 701 474 701 q 243 674 294 701 q 170 580 192 647 q 149 385 149 513 l 464 385 m 190 1060 l 228 1060 l 375 907 l 538 1060 l 575 1060 l 396 876 l 353 876 l 190 1060 z "},"ḝ":{"ha":754,"x_min":92,"x_max":663,"o":"m 365 878 q 240 922 290 878 q 190 1067 190 965 l 221 1067 q 260 946 221 985 q 361 907 300 907 q 473 944 433 907 q 513 1067 513 981 l 543 1067 q 492 921 543 964 q 365 878 442 878 m 149 342 q 169 162 149 226 q 242 68 189 97 q 397 39 296 39 l 647 39 l 647 4 q 388 -8 513 -8 l 385 -8 l 338 -79 q 417 -103 393 -81 q 442 -165 442 -125 q 409 -233 442 -208 q 317 -257 376 -257 l 283 -257 l 283 -233 l 318 -231 q 383 -210 361 -228 q 406 -160 406 -193 q 383 -112 406 -129 q 299 -93 360 -94 l 356 -8 q 197 35 254 -3 q 116 153 140 72 q 92 372 92 233 q 121 599 92 518 q 214 713 150 679 q 392 747 278 747 q 598 694 533 747 q 663 508 663 640 q 467 342 663 342 l 149 342 m 392 701 q 243 674 294 701 q 170 580 192 647 q 149 385 149 513 l 464 385 q 575 412 540 385 q 610 508 610 439 q 588 625 610 583 q 520 684 567 667 q 392 701 474 701 z "},"ê":{"ha":754,"x_min":92,"x_max":663,"o":"m 388 -8 q 209 27 272 -8 q 119 144 146 63 q 92 372 92 226 q 121 599 92 518 q 214 713 150 679 q 392 747 278 747 q 598 694 533 747 q 663 508 663 640 q 467 342 663 342 l 149 342 q 169 162 149 226 q 242 68 189 97 q 397 39 296 39 l 647 39 l 647 4 q 388 -8 513 -8 m 464 385 q 575 412 540 385 q 610 508 610 439 q 588 625 610 583 q 520 684 567 667 q 392 701 474 701 q 243 674 294 701 q 170 580 192 647 q 149 385 149 513 l 464 385 m 357 1060 l 400 1060 l 563 876 l 525 876 l 378 1029 l 215 876 l 178 876 l 357 1060 z "},"ế":{"ha":754,"x_min":92,"x_max":692,"o":"m 388 -8 q 209 27 272 -8 q 119 144 146 63 q 92 372 92 226 q 121 599 92 518 q 214 713 150 679 q 392 747 278 747 q 598 694 533 747 q 663 508 663 640 q 467 342 663 342 l 149 342 q 169 162 149 226 q 242 68 189 97 q 397 39 296 39 l 647 39 l 647 4 q 388 -8 513 -8 m 464 385 q 575 412 540 385 q 610 508 610 439 q 588 625 610 583 q 520 684 567 667 q 392 701 474 701 q 243 674 294 701 q 170 580 192 647 q 149 385 149 513 l 464 385 m 692 1160 l 517 976 l 483 976 l 638 1160 l 692 1160 m 400 1006 l 563 876 l 524 876 l 378 975 l 215 876 l 178 876 l 357 1006 l 400 1006 z "},"ệ":{"ha":754,"x_min":92,"x_max":663,"o":"m 388 -8 q 209 27 272 -8 q 119 144 146 63 q 92 372 92 226 q 121 599 92 518 q 214 713 150 679 q 392 747 278 747 q 598 694 533 747 q 663 508 663 640 q 467 342 663 342 l 149 342 q 169 162 149 226 q 242 68 189 97 q 397 39 296 39 l 647 39 l 647 4 q 388 -8 513 -8 m 464 385 q 575 412 540 385 q 610 508 610 439 q 588 625 610 583 q 520 684 567 667 q 392 701 474 701 q 243 674 294 701 q 170 580 192 647 q 149 385 149 513 l 464 385 m 357 1060 l 400 1060 l 563 876 l 525 876 l 378 1029 l 215 876 l 178 876 l 357 1060 m 358 -279 q 340 -261 340 -279 l 340 -168 q 358 -150 340 -150 l 385 -150 q 403 -168 403 -150 l 403 -261 q 385 -279 403 -279 l 358 -279 z "},"ề":{"ha":754,"x_min":57,"x_max":663,"o":"m 388 -8 q 209 27 272 -8 q 119 144 146 63 q 92 372 92 226 q 121 599 92 518 q 214 713 150 679 q 392 747 278 747 q 598 694 533 747 q 663 508 663 640 q 467 342 663 342 l 149 342 q 169 162 149 226 q 242 68 189 97 q 397 39 296 39 l 647 39 l 647 4 q 388 -8 513 -8 m 464 385 q 575 412 540 385 q 610 508 610 439 q 588 625 610 583 q 520 684 567 667 q 392 701 474 701 q 243 674 294 701 q 170 580 192 647 q 149 385 149 513 l 464 385 m 111 1160 l 265 976 l 232 976 l 57 1160 l 111 1160 m 400 1006 l 563 876 l 524 876 l 378 975 l 215 876 l 178 876 l 357 1006 l 400 1006 z "},"ể":{"ha":754,"x_min":92,"x_max":663,"o":"m 388 -8 q 209 27 272 -8 q 119 144 146 63 q 92 372 92 226 q 121 599 92 518 q 214 713 150 679 q 392 747 278 747 q 598 694 533 747 q 663 508 663 640 q 467 342 663 342 l 149 342 q 169 162 149 226 q 242 68 189 97 q 397 39 296 39 l 647 39 l 647 4 q 388 -8 513 -8 m 464 385 q 575 412 540 385 q 610 508 610 439 q 588 625 610 583 q 520 684 567 667 q 392 701 474 701 q 243 674 294 701 q 170 580 192 647 q 149 385 149 513 l 464 385 m 515 975 q 599 1058 599 1001 q 528 1119 599 1119 q 476 1111 501 1119 l 476 1138 q 535 1147 504 1147 q 607 1124 583 1147 q 631 1058 631 1100 q 601 992 631 1022 q 515 946 572 961 l 515 975 m 357 1006 l 400 1006 l 563 876 l 524 876 l 378 975 l 215 876 l 178 876 l 357 1006 z "},"ễ":{"ha":754,"x_min":92,"x_max":663,"o":"m 388 -8 q 209 27 272 -8 q 119 144 146 63 q 92 372 92 226 q 121 599 92 518 q 214 713 150 679 q 392 747 278 747 q 598 694 533 747 q 663 508 663 640 q 467 342 663 342 l 149 342 q 169 162 149 226 q 242 68 189 97 q 397 39 296 39 l 647 39 l 647 4 q 388 -8 513 -8 m 464 385 q 575 412 540 385 q 610 508 610 439 q 588 625 610 583 q 520 684 567 667 q 392 701 474 701 q 243 674 294 701 q 170 580 192 647 q 149 385 149 513 l 464 385 m 263 1175 q 317 1166 292 1175 q 379 1139 343 1157 q 435 1114 414 1122 q 481 1106 457 1106 q 542 1124 518 1106 q 567 1175 567 1142 l 597 1175 q 566 1101 596 1128 q 483 1074 536 1074 q 431 1083 456 1074 q 374 1108 406 1092 q 315 1133 340 1125 q 264 1142 290 1142 q 206 1124 229 1142 q 183 1072 183 1107 l 153 1072 q 186 1151 154 1126 q 263 1175 218 1175 m 563 876 l 524 876 l 378 975 l 215 876 l 178 876 l 357 1006 l 400 1006 l 563 876 z "},"ȅ":{"ha":754,"x_min":92,"x_max":663,"o":"m 388 -8 q 209 27 272 -8 q 119 144 146 63 q 92 372 92 226 q 121 599 92 518 q 214 713 150 679 q 392 747 278 747 q 598 694 533 747 q 663 508 663 640 q 467 342 663 342 l 149 342 q 169 162 149 226 q 242 68 189 97 q 397 39 296 39 l 647 39 l 647 4 q 388 -8 513 -8 m 464 385 q 575 412 540 385 q 610 508 610 439 q 588 625 610 583 q 520 684 567 667 q 392 701 474 701 q 243 674 294 701 q 170 580 192 647 q 149 385 149 513 l 464 385 m 118 1063 l 172 1063 l 332 876 l 299 876 l 118 1063 m 296 1063 l 350 1063 l 510 876 l 476 876 l 296 1063 z "},"ë":{"ha":754,"x_min":92,"x_max":663,"o":"m 388 -8 q 209 27 272 -8 q 119 144 146 63 q 92 372 92 226 q 121 599 92 518 q 214 713 150 679 q 392 747 278 747 q 598 694 533 747 q 663 508 663 640 q 467 342 663 342 l 149 342 q 169 162 149 226 q 242 68 189 97 q 397 39 296 39 l 647 39 l 647 4 q 388 -8 513 -8 m 464 385 q 575 412 540 385 q 610 508 610 439 q 588 625 610 583 q 520 684 567 667 q 392 701 474 701 q 243 674 294 701 q 170 580 192 647 q 149 385 149 513 l 464 385 m 226 919 q 214 925 219 919 q 208 938 208 931 l 208 1031 q 226 1049 208 1049 l 253 1049 q 271 1031 271 1049 l 271 938 q 253 919 271 919 l 226 919 m 497 919 q 483 925 489 919 q 478 938 478 931 l 478 1031 q 497 1049 478 1049 l 522 1049 q 542 1031 542 1049 l 542 938 q 536 924 542 929 q 522 919 531 919 l 497 919 z "},"ė":{"ha":754,"x_min":92,"x_max":663,"o":"m 388 -8 q 209 27 272 -8 q 119 144 146 63 q 92 372 92 226 q 121 599 92 518 q 214 713 150 679 q 392 747 278 747 q 598 694 533 747 q 663 508 663 640 q 467 342 663 342 l 149 342 q 169 162 149 226 q 242 68 189 97 q 397 39 296 39 l 647 39 l 647 4 q 388 -8 513 -8 m 464 385 q 575 412 540 385 q 610 508 610 439 q 588 625 610 583 q 520 684 567 667 q 392 701 474 701 q 243 674 294 701 q 170 580 192 647 q 149 385 149 513 l 464 385 m 361 929 q 348 935 353 929 q 343 947 343 940 l 343 1040 q 361 1058 343 1058 l 388 1058 q 406 1040 406 1058 l 406 947 q 400 934 406 939 q 388 929 394 929 l 361 929 z "},"ẹ":{"ha":754,"x_min":92,"x_max":663,"o":"m 388 -8 q 209 27 272 -8 q 119 144 146 63 q 92 372 92 226 q 121 599 92 518 q 214 713 150 679 q 392 747 278 747 q 598 694 533 747 q 663 508 663 640 q 467 342 663 342 l 149 342 q 169 162 149 226 q 242 68 189 97 q 397 39 296 39 l 647 39 l 647 4 q 388 -8 513 -8 m 464 385 q 575 412 540 385 q 610 508 610 439 q 588 625 610 583 q 520 684 567 667 q 392 701 474 701 q 243 674 294 701 q 170 580 192 647 q 149 385 149 513 l 464 385 m 358 -279 q 340 -261 340 -279 l 340 -168 q 358 -150 340 -150 l 385 -150 q 403 -168 403 -150 l 403 -261 q 385 -279 403 -279 l 358 -279 z "},"è":{"ha":754,"x_min":92,"x_max":663,"o":"m 388 -8 q 209 27 272 -8 q 119 144 146 63 q 92 372 92 226 q 121 599 92 518 q 214 713 150 679 q 392 747 278 747 q 598 694 533 747 q 663 508 663 640 q 467 342 663 342 l 149 342 q 169 162 149 226 q 242 68 189 97 q 397 39 296 39 l 647 39 l 647 4 q 388 -8 513 -8 m 464 385 q 575 412 540 385 q 610 508 610 439 q 588 625 610 583 q 520 684 567 667 q 392 701 474 701 q 243 674 294 701 q 170 580 192 647 q 149 385 149 513 l 464 385 m 200 1063 l 254 1063 l 415 876 l 382 876 l 200 1063 z "},"ẻ":{"ha":754,"x_min":92,"x_max":663,"o":"m 388 -8 q 209 27 272 -8 q 119 144 146 63 q 92 372 92 226 q 121 599 92 518 q 214 713 150 679 q 392 747 278 747 q 598 694 533 747 q 663 508 663 640 q 467 342 663 342 l 149 342 q 169 162 149 226 q 242 68 189 97 q 397 39 296 39 l 647 39 l 647 4 q 388 -8 513 -8 m 464 385 q 575 412 540 385 q 610 508 610 439 q 588 625 610 583 q 520 684 567 667 q 392 701 474 701 q 243 674 294 701 q 170 580 192 647 q 149 385 149 513 l 464 385 m 357 874 q 426 914 404 889 q 449 969 449 939 q 430 1026 449 1007 q 369 1044 411 1044 q 318 1036 343 1044 l 318 1064 q 376 1072 342 1072 q 456 1044 429 1072 q 482 969 482 1017 q 451 896 482 929 q 357 844 419 863 l 357 874 z "},"ȇ":{"ha":754,"x_min":92,"x_max":663,"o":"m 388 -8 q 209 27 272 -8 q 119 144 146 63 q 92 372 92 226 q 121 599 92 518 q 214 713 150 679 q 392 747 278 747 q 598 694 533 747 q 663 508 663 640 q 467 342 663 342 l 149 342 q 169 162 149 226 q 242 68 189 97 q 397 39 296 39 l 647 39 l 647 4 q 388 -8 513 -8 m 464 385 q 575 412 540 385 q 610 508 610 439 q 588 625 610 583 q 520 684 567 667 q 392 701 474 701 q 243 674 294 701 q 170 580 192 647 q 149 385 149 513 l 464 385 m 369 1067 q 494 1023 444 1067 q 544 878 544 979 l 514 878 q 474 999 514 960 q 374 1038 435 1038 q 262 1001 301 1038 q 222 878 222 964 l 192 878 q 242 1024 192 981 q 369 1067 293 1067 z "},"ē":{"ha":754,"x_min":92,"x_max":663,"o":"m 388 -8 q 209 27 272 -8 q 119 144 146 63 q 92 372 92 226 q 121 599 92 518 q 214 713 150 679 q 392 747 278 747 q 598 694 533 747 q 663 508 663 640 q 467 342 663 342 l 149 342 q 169 162 149 226 q 242 68 189 97 q 397 39 296 39 l 647 39 l 647 4 q 388 -8 513 -8 m 464 385 q 575 412 540 385 q 610 508 610 439 q 588 625 610 583 q 520 684 567 667 q 392 701 474 701 q 243 674 294 701 q 170 580 192 647 q 149 385 149 513 l 464 385 m 196 986 l 551 986 l 551 951 l 196 951 l 196 986 z "},"ḗ":{"ha":754,"x_min":92,"x_max":663,"o":"m 388 -8 q 209 27 272 -8 q 119 144 146 63 q 92 372 92 226 q 121 599 92 518 q 214 713 150 679 q 392 747 278 747 q 598 694 533 747 q 663 508 663 640 q 467 342 663 342 l 149 342 q 169 162 149 226 q 242 68 189 97 q 397 39 296 39 l 647 39 l 647 4 q 388 -8 513 -8 m 464 385 q 575 412 540 385 q 610 508 610 439 q 588 625 610 583 q 520 684 567 667 q 392 701 474 701 q 243 674 294 701 q 170 580 192 647 q 149 385 149 513 l 464 385 m 196 986 l 551 986 l 551 951 l 196 951 l 196 986 m 497 1232 l 551 1232 l 369 1046 l 336 1046 l 497 1232 z "},"ḕ":{"ha":754,"x_min":92,"x_max":663,"o":"m 388 -8 q 209 27 272 -8 q 119 144 146 63 q 92 372 92 226 q 121 599 92 518 q 214 713 150 679 q 392 747 278 747 q 598 694 533 747 q 663 508 663 640 q 467 342 663 342 l 149 342 q 169 162 149 226 q 242 68 189 97 q 397 39 296 39 l 647 39 l 647 4 q 388 -8 513 -8 m 464 385 q 575 412 540 385 q 610 508 610 439 q 588 625 610 583 q 520 684 567 667 q 392 701 474 701 q 243 674 294 701 q 170 580 192 647 q 149 385 149 513 l 464 385 m 196 986 l 551 986 l 551 951 l 196 951 l 196 986 m 196 1232 l 250 1232 l 411 1046 l 378 1046 l 196 1232 z "},"ę":{"ha":754,"x_min":92,"x_max":689,"o":"m 689 -190 l 689 -221 q 657 -222 678 -222 q 551 -190 592 -222 q 511 -101 511 -157 q 564 -3 511 -46 q 388 -8 490 -8 q 209 27 272 -8 q 119 144 146 63 q 92 372 92 226 q 121 599 92 518 q 214 713 150 679 q 392 747 278 747 q 598 694 533 747 q 663 508 663 640 q 467 342 663 342 l 149 342 q 169 162 149 226 q 242 68 189 97 q 397 39 296 39 l 647 39 l 647 4 l 599 0 q 547 -90 547 -43 q 581 -165 547 -139 q 681 -190 615 -190 l 689 -190 m 392 701 q 243 674 294 701 q 170 580 192 647 q 149 385 149 513 l 464 385 q 575 412 540 385 q 610 508 610 439 q 588 625 610 583 q 520 684 567 667 q 392 701 474 701 z "},"ẽ":{"ha":754,"x_min":92,"x_max":663,"o":"m 388 -8 q 209 27 272 -8 q 119 144 146 63 q 92 372 92 226 q 121 599 92 518 q 214 713 150 679 q 392 747 278 747 q 598 694 533 747 q 663 508 663 640 q 467 342 663 342 l 149 342 q 169 162 149 226 q 242 68 189 97 q 397 39 296 39 l 647 39 l 647 4 q 388 -8 513 -8 m 464 385 q 575 412 540 385 q 610 508 610 439 q 588 625 610 583 q 520 684 567 667 q 392 701 474 701 q 243 674 294 701 q 170 580 192 647 q 149 385 149 513 l 464 385 m 157 913 q 195 1012 158 981 q 282 1043 232 1043 q 339 1030 313 1043 q 404 992 365 1017 q 463 958 442 968 q 506 947 483 947 q 576 973 549 947 q 604 1044 604 999 l 635 1044 q 599 949 633 985 q 506 913 565 913 q 453 925 478 913 q 390 961 428 938 q 330 997 353 986 q 282 1008 307 1008 q 215 985 242 1008 q 188 913 189 961 l 157 913 z "},"ə":{"ha":754,"x_min":92,"x_max":663,"o":"m 367 747 q 545 712 482 747 q 635 594 608 676 q 663 367 663 513 q 633 140 663 221 q 540 26 604 60 q 363 -8 476 -8 q 156 45 221 -8 q 92 231 92 99 q 288 397 92 397 l 606 397 q 585 577 606 513 q 512 671 565 642 q 357 700 458 700 l 107 700 l 107 735 q 367 747 243 747 m 290 354 q 179 327 214 354 q 144 231 144 300 q 166 114 144 156 q 234 55 188 72 q 363 38 281 38 q 511 65 460 38 q 584 159 563 92 q 606 354 606 226 l 290 354 z "},"f":{"ha":492,"x_min":36,"x_max":485,"o":"m 154 690 l 36 690 l 36 726 l 154 739 l 154 844 q 196 1013 154 957 q 349 1068 238 1068 q 440 1064 403 1068 q 485 1058 476 1060 l 485 1019 l 354 1019 q 240 978 269 1019 q 211 846 211 938 l 211 739 l 463 739 l 463 690 l 211 690 l 211 0 l 154 0 l 154 690 z "},"ḟ":{"ha":492,"x_min":36,"x_max":485,"o":"m 154 690 l 36 690 l 36 726 l 154 739 l 154 844 q 196 1013 154 957 q 349 1068 238 1068 q 440 1064 403 1068 q 485 1058 476 1060 l 485 1019 l 354 1019 q 240 978 269 1019 q 211 846 211 938 l 211 739 l 463 739 l 463 690 l 211 690 l 211 0 l 154 0 l 154 690 m 338 1211 q 324 1217 329 1211 q 319 1229 319 1222 l 319 1322 q 338 1340 319 1340 l 364 1340 q 382 1322 382 1340 l 382 1229 q 376 1216 382 1221 q 364 1211 371 1211 l 338 1211 z "},"g":{"ha":796,"x_min":51,"x_max":761,"o":"m 761 707 l 564 696 q 619 660 596 679 q 662 598 643 640 q 681 488 681 556 q 619 328 681 394 q 422 263 558 263 l 311 263 q 199 242 236 263 q 161 169 161 221 q 187 115 161 133 q 247 97 213 97 l 515 97 q 701 49 642 97 q 761 -96 761 0 l 761 -132 q 692 -284 761 -229 q 494 -339 622 -339 l 296 -339 q 117 -292 183 -339 q 51 -153 51 -244 l 51 -112 q 87 -4 51 -49 q 179 63 122 40 q 127 103 146 76 q 108 165 108 129 q 141 247 108 218 q 236 289 174 276 q 94 506 94 340 q 168 685 94 629 q 367 742 242 742 l 761 742 l 761 707 m 626 490 q 574 645 626 597 q 433 693 522 693 l 353 693 q 201 649 254 693 q 149 503 149 604 q 197 357 149 404 q 332 310 244 310 l 417 310 q 626 490 626 310 m 296 49 q 160 10 217 49 q 104 -107 104 -29 l 104 -146 q 156 -258 104 -224 q 304 -293 208 -293 l 492 -293 q 651 -253 594 -293 q 708 -133 708 -212 l 708 -101 q 664 10 708 -28 q 510 49 619 49 l 296 49 z "},"ğ":{"ha":796,"x_min":51,"x_max":761,"o":"m 761 707 l 564 696 q 619 660 596 679 q 662 598 643 640 q 681 488 681 556 q 619 328 681 394 q 422 263 558 263 l 311 263 q 199 242 236 263 q 161 169 161 221 q 187 115 161 133 q 247 97 213 97 l 515 97 q 701 49 642 97 q 761 -96 761 0 l 761 -132 q 692 -284 761 -229 q 494 -339 622 -339 l 296 -339 q 117 -292 183 -339 q 51 -153 51 -244 l 51 -112 q 87 -4 51 -49 q 179 63 122 40 q 127 103 146 76 q 108 165 108 129 q 141 247 108 218 q 236 289 174 276 q 94 506 94 340 q 168 685 94 629 q 367 742 242 742 l 761 742 l 761 707 m 626 490 q 574 645 626 597 q 433 693 522 693 l 353 693 q 201 649 254 693 q 149 503 149 604 q 197 357 149 404 q 332 310 244 310 l 417 310 q 626 490 626 310 m 296 49 q 160 10 217 49 q 104 -107 104 -29 l 104 -146 q 156 -258 104 -224 q 304 -293 208 -293 l 492 -293 q 651 -253 594 -293 q 708 -133 708 -212 l 708 -101 q 664 10 708 -28 q 510 49 619 49 l 296 49 m 390 878 q 265 922 315 878 q 215 1067 215 965 l 246 1067 q 285 946 246 985 q 386 907 325 907 q 498 944 458 907 q 538 1067 538 981 l 568 1067 q 517 921 568 964 q 390 878 467 878 z "},"ǧ":{"ha":796,"x_min":51,"x_max":761,"o":"m 761 707 l 564 696 q 619 660 596 679 q 662 598 643 640 q 681 488 681 556 q 619 328 681 394 q 422 263 558 263 l 311 263 q 199 242 236 263 q 161 169 161 221 q 187 115 161 133 q 247 97 213 97 l 515 97 q 701 49 642 97 q 761 -96 761 0 l 761 -132 q 692 -284 761 -229 q 494 -339 622 -339 l 296 -339 q 117 -292 183 -339 q 51 -153 51 -244 l 51 -112 q 87 -4 51 -49 q 179 63 122 40 q 127 103 146 76 q 108 165 108 129 q 141 247 108 218 q 236 289 174 276 q 94 506 94 340 q 168 685 94 629 q 367 742 242 742 l 761 742 l 761 707 m 626 490 q 574 645 626 597 q 433 693 522 693 l 353 693 q 201 649 254 693 q 149 503 149 604 q 197 357 149 404 q 332 310 244 310 l 417 310 q 626 490 626 310 m 296 49 q 160 10 217 49 q 104 -107 104 -29 l 104 -146 q 156 -258 104 -224 q 304 -293 208 -293 l 492 -293 q 651 -253 594 -293 q 708 -133 708 -212 l 708 -101 q 664 10 708 -28 q 510 49 619 49 l 296 49 m 215 1060 l 253 1060 l 400 907 l 563 1060 l 600 1060 l 421 876 l 378 876 l 215 1060 z "},"ĝ":{"ha":796,"x_min":51,"x_max":761,"o":"m 761 707 l 564 696 q 619 660 596 679 q 662 598 643 640 q 681 488 681 556 q 619 328 681 394 q 422 263 558 263 l 311 263 q 199 242 236 263 q 161 169 161 221 q 187 115 161 133 q 247 97 213 97 l 515 97 q 701 49 642 97 q 761 -96 761 0 l 761 -132 q 692 -284 761 -229 q 494 -339 622 -339 l 296 -339 q 117 -292 183 -339 q 51 -153 51 -244 l 51 -112 q 87 -4 51 -49 q 179 63 122 40 q 127 103 146 76 q 108 165 108 129 q 141 247 108 218 q 236 289 174 276 q 94 506 94 340 q 168 685 94 629 q 367 742 242 742 l 761 742 l 761 707 m 626 490 q 574 645 626 597 q 433 693 522 693 l 353 693 q 201 649 254 693 q 149 503 149 604 q 197 357 149 404 q 332 310 244 310 l 417 310 q 626 490 626 310 m 296 49 q 160 10 217 49 q 104 -107 104 -29 l 104 -146 q 156 -258 104 -224 q 304 -293 208 -293 l 492 -293 q 651 -253 594 -293 q 708 -133 708 -212 l 708 -101 q 664 10 708 -28 q 510 49 619 49 l 296 49 m 382 1060 l 425 1060 l 588 876 l 550 876 l 403 1029 l 240 876 l 203 876 l 382 1060 z "},"ģ":{"ha":796,"x_min":51,"x_max":761,"o":"m 761 707 l 564 696 q 619 660 596 679 q 662 598 643 640 q 681 488 681 556 q 619 328 681 394 q 422 263 558 263 l 311 263 q 199 242 236 263 q 161 169 161 221 q 187 115 161 133 q 247 97 213 97 l 515 97 q 701 49 642 97 q 761 -96 761 0 l 761 -132 q 692 -284 761 -229 q 494 -339 622 -339 l 296 -339 q 117 -292 183 -339 q 51 -153 51 -244 l 51 -112 q 87 -4 51 -49 q 179 63 122 40 q 127 103 146 76 q 108 165 108 129 q 141 247 108 218 q 236 289 174 276 q 94 506 94 340 q 168 685 94 629 q 367 742 242 742 l 761 742 l 761 707 m 626 490 q 574 645 626 597 q 433 693 522 693 l 353 693 q 201 649 254 693 q 149 503 149 604 q 197 357 149 404 q 332 310 244 310 l 417 310 q 626 490 626 310 m 296 49 q 160 10 217 49 q 104 -107 104 -29 l 104 -146 q 156 -258 104 -224 q 304 -293 208 -293 l 492 -293 q 651 -253 594 -293 q 708 -133 708 -212 l 708 -101 q 664 10 708 -28 q 510 49 619 49 l 296 49 m 338 849 q 349 962 338 922 q 393 1020 361 1001 q 485 1039 425 1039 l 526 1039 l 526 1015 l 483 1010 q 419 994 442 1006 q 385 950 397 983 q 375 849 374 917 l 338 849 z "},"ġ":{"ha":796,"x_min":51,"x_max":761,"o":"m 761 707 l 564 696 q 619 660 596 679 q 662 598 643 640 q 681 488 681 556 q 619 328 681 394 q 422 263 558 263 l 311 263 q 199 242 236 263 q 161 169 161 221 q 187 115 161 133 q 247 97 213 97 l 515 97 q 701 49 642 97 q 761 -96 761 0 l 761 -132 q 692 -284 761 -229 q 494 -339 622 -339 l 296 -339 q 117 -292 183 -339 q 51 -153 51 -244 l 51 -112 q 87 -4 51 -49 q 179 63 122 40 q 127 103 146 76 q 108 165 108 129 q 141 247 108 218 q 236 289 174 276 q 94 506 94 340 q 168 685 94 629 q 367 742 242 742 l 761 742 l 761 707 m 626 490 q 574 645 626 597 q 433 693 522 693 l 353 693 q 201 649 254 693 q 149 503 149 604 q 197 357 149 404 q 332 310 244 310 l 417 310 q 626 490 626 310 m 296 49 q 160 10 217 49 q 104 -107 104 -29 l 104 -146 q 156 -258 104 -224 q 304 -293 208 -293 l 492 -293 q 651 -253 594 -293 q 708 -133 708 -212 l 708 -101 q 664 10 708 -28 q 510 49 619 49 l 296 49 m 386 929 q 373 935 378 929 q 368 947 368 940 l 368 1040 q 386 1058 368 1058 l 413 1058 q 431 1040 431 1058 l 431 947 q 425 934 431 939 q 413 929 419 929 l 386 929 z "},"ḡ":{"ha":796,"x_min":51,"x_max":761,"o":"m 761 707 l 564 696 q 619 660 596 679 q 662 598 643 640 q 681 488 681 556 q 619 328 681 394 q 422 263 558 263 l 311 263 q 199 242 236 263 q 161 169 161 221 q 187 115 161 133 q 247 97 213 97 l 515 97 q 701 49 642 97 q 761 -96 761 0 l 761 -132 q 692 -284 761 -229 q 494 -339 622 -339 l 296 -339 q 117 -292 183 -339 q 51 -153 51 -244 l 51 -112 q 87 -4 51 -49 q 179 63 122 40 q 127 103 146 76 q 108 165 108 129 q 141 247 108 218 q 236 289 174 276 q 94 506 94 340 q 168 685 94 629 q 367 742 242 742 l 761 742 l 761 707 m 626 490 q 574 645 626 597 q 433 693 522 693 l 353 693 q 201 649 254 693 q 149 503 149 604 q 197 357 149 404 q 332 310 244 310 l 417 310 q 626 490 626 310 m 296 49 q 160 10 217 49 q 104 -107 104 -29 l 104 -146 q 156 -258 104 -224 q 304 -293 208 -293 l 492 -293 q 651 -253 594 -293 q 708 -133 708 -212 l 708 -101 q 664 10 708 -28 q 510 49 619 49 l 296 49 m 221 986 l 576 986 l 576 951 l 221 951 l 221 986 z "},"h":{"ha":811,"x_min":119,"x_max":696,"o":"m 119 1060 l 176 1060 l 176 654 q 317 724 242 697 q 468 751 392 751 q 592 719 540 751 q 669 631 643 686 q 696 511 696 576 l 696 0 l 639 0 l 639 507 q 590 644 639 589 q 457 700 540 700 q 318 681 378 700 q 176 617 258 661 l 176 0 l 119 0 l 119 1060 z "},"ħ":{"ha":811,"x_min":11,"x_max":696,"o":"m 468 751 q 592 719 540 751 q 669 631 643 686 q 696 511 696 576 l 696 0 l 639 0 l 639 507 q 590 644 639 589 q 457 700 540 700 q 318 681 378 700 q 176 617 258 661 l 176 0 l 119 0 l 119 885 l 11 885 l 11 914 l 119 914 l 119 1060 l 176 1060 l 176 914 l 382 914 l 382 885 l 176 885 l 176 654 q 317 724 242 697 q 468 751 392 751 z "},"ḫ":{"ha":811,"x_min":119,"x_max":696,"o":"m 119 1060 l 176 1060 l 176 654 q 317 724 242 697 q 468 751 392 751 q 592 719 540 751 q 669 631 643 686 q 696 511 696 576 l 696 0 l 639 0 l 639 507 q 590 644 639 589 q 457 700 540 700 q 318 681 378 700 q 176 617 258 661 l 176 0 l 119 0 l 119 1060 m 400 -303 q 275 -259 325 -303 q 225 -114 225 -215 l 256 -114 q 295 -235 256 -196 q 396 -274 335 -274 q 508 -237 468 -274 q 547 -114 547 -200 l 578 -114 q 527 -260 578 -217 q 400 -303 476 -303 z "},"ĥ":{"ha":811,"x_min":39,"x_max":696,"o":"m 119 1060 l 176 1060 l 176 654 q 317 724 242 697 q 468 751 392 751 q 592 719 540 751 q 669 631 643 686 q 696 511 696 576 l 696 0 l 639 0 l 639 507 q 590 644 639 589 q 457 700 540 700 q 318 681 378 700 q 176 617 258 661 l 176 0 l 119 0 l 119 1060 m 218 1300 l 261 1300 l 424 1117 l 386 1117 l 239 1269 l 76 1117 l 39 1117 l 218 1300 z "},"ḥ":{"ha":811,"x_min":119,"x_max":696,"o":"m 119 1060 l 176 1060 l 176 654 q 317 724 242 697 q 468 751 392 751 q 592 719 540 751 q 669 631 643 686 q 696 511 696 576 l 696 0 l 639 0 l 639 507 q 590 644 639 589 q 457 700 540 700 q 318 681 378 700 q 176 617 258 661 l 176 0 l 119 0 l 119 1060 m 392 -279 q 374 -261 374 -279 l 374 -168 q 392 -150 374 -150 l 418 -150 q 436 -168 436 -150 l 436 -261 q 418 -279 436 -279 l 392 -279 z "},"i":{"ha":297,"x_min":114,"x_max":183,"o":"m 132 885 q 114 903 114 885 l 114 996 q 132 1014 114 1014 l 167 1014 q 183 996 183 1014 l 183 903 q 167 885 183 885 l 132 885 m 119 739 l 176 739 l 176 0 l 119 0 l 119 739 z "},"ı":{"ha":292,"x_min":119,"x_max":176,"o":"m 119 739 l 176 739 l 176 0 l 119 0 l 119 739 z "},"í":{"ha":292,"x_min":111,"x_max":326,"o":"m 119 739 l 176 739 l 176 0 l 119 0 l 119 739 m 272 1063 l 326 1063 l 144 876 l 111 876 l 272 1063 z "},"ĭ":{"ha":292,"x_min":-36,"x_max":317,"o":"m 119 739 l 176 739 l 176 0 l 119 0 l 119 739 m 139 878 q 14 922 64 878 q -36 1067 -36 965 l -6 1067 q 34 946 -6 985 q 135 907 74 907 q 247 944 207 907 q 286 1067 286 981 l 317 1067 q 266 921 317 964 q 139 878 215 878 z "},"î":{"ha":292,"x_min":-49,"x_max":336,"o":"m 119 739 l 176 739 l 176 0 l 119 0 l 119 739 m 131 1060 l 174 1060 l 336 876 l 299 876 l 151 1029 l -11 876 l -49 876 l 131 1060 z "},"ȉ":{"ha":292,"x_min":-108,"x_max":283,"o":"m 119 739 l 176 739 l 176 0 l 119 0 l 119 739 m -108 1063 l -54 1063 l 106 876 l 72 876 l -108 1063 m 69 1063 l 124 1063 l 283 876 l 250 876 l 69 1063 z "},"ï":{"ha":292,"x_min":-18,"x_max":315,"o":"m 119 739 l 176 739 l 176 0 l 119 0 l 119 739 m 0 919 q -12 925 -7 919 q -18 938 -18 931 l -18 1031 q 0 1049 -18 1049 l 26 1049 q 44 1031 44 1049 l 44 938 q 26 919 44 919 l 0 919 m 271 919 q 257 925 263 919 q 251 938 251 931 l 251 1031 q 271 1049 251 1049 l 296 1049 q 315 1031 315 1049 l 315 938 q 310 924 315 929 q 296 919 304 919 l 271 919 z "},"ḯ":{"ha":292,"x_min":-18,"x_max":325,"o":"m 119 739 l 176 739 l 176 0 l 119 0 l 119 739 m 0 919 q -12 925 -7 919 q -18 938 -18 931 l -18 1031 q 0 1049 -18 1049 l 26 1049 q 44 1031 44 1049 l 44 938 q 26 919 44 919 l 0 919 m 271 919 q 257 925 263 919 q 251 938 251 931 l 251 1031 q 271 1049 251 1049 l 296 1049 q 315 1031 315 1049 l 315 938 q 310 924 315 929 q 296 919 304 919 l 271 919 m 271 1278 l 325 1278 l 143 1092 l 110 1092 l 271 1278 z "},"ị":{"ha":297,"x_min":114,"x_max":183,"o":"m 132 885 q 114 903 114 885 l 114 996 q 132 1014 114 1014 l 167 1014 q 183 996 183 1014 l 183 903 q 167 885 183 885 l 132 885 m 119 739 l 176 739 l 176 0 l 119 0 l 119 739 m 132 -279 q 114 -261 114 -279 l 114 -168 q 132 -150 114 -150 l 158 -150 q 176 -168 176 -150 l 176 -261 q 158 -279 176 -279 l 132 -279 z "},"ì":{"ha":292,"x_min":-26,"x_max":189,"o":"m 119 739 l 176 739 l 176 0 l 119 0 l 119 739 m -26 1063 l 28 1063 l 189 876 l 156 876 l -26 1063 z "},"ỉ":{"ha":292,"x_min":92,"x_max":256,"o":"m 119 739 l 176 739 l 176 0 l 119 0 l 119 739 m 131 874 q 200 914 178 889 q 222 969 222 939 q 203 1026 222 1007 q 143 1044 185 1044 q 92 1036 117 1044 l 92 1064 q 150 1072 115 1072 q 229 1044 203 1072 q 256 969 256 1017 q 224 896 256 929 q 131 844 193 863 l 131 874 z "},"ȋ":{"ha":292,"x_min":-35,"x_max":318,"o":"m 119 739 l 176 739 l 176 0 l 119 0 l 119 739 m 143 1067 q 268 1023 218 1067 q 318 878 318 979 l 288 878 q 248 999 288 960 q 147 1038 208 1038 q 35 1001 75 1038 q -4 878 -4 964 l -35 878 q 16 1024 -35 981 q 143 1067 67 1067 z "},"ī":{"ha":292,"x_min":-31,"x_max":325,"o":"m 119 739 l 176 739 l 176 0 l 119 0 l 119 739 m -31 986 l 325 986 l 325 951 l -31 951 l -31 986 z "},"į":{"ha":297,"x_min":42,"x_max":219,"o":"m 132 885 q 114 903 114 885 l 114 996 q 132 1014 114 1014 l 167 1014 q 183 996 183 1014 l 183 903 q 167 885 183 885 l 132 885 m 119 739 l 176 739 l 176 0 l 119 0 l 119 739 m 188 -254 q 82 -222 122 -254 q 42 -133 42 -189 q 69 -60 42 -94 q 153 0 97 -25 l 178 0 q 103 -56 129 -25 q 78 -122 78 -87 q 112 -197 78 -171 q 211 -222 146 -222 l 219 -222 l 219 -253 q 188 -254 208 -254 z "},"ĩ":{"ha":292,"x_min":-69,"x_max":408,"o":"m 119 739 l 176 739 l 176 0 l 119 0 l 119 739 m -69 913 q -31 1012 -68 981 q 56 1043 6 1043 q 113 1030 86 1043 q 178 992 139 1017 q 236 958 215 968 q 279 947 257 947 q 350 973 322 947 q 378 1044 378 999 l 408 1044 q 373 949 407 985 q 279 913 339 913 q 226 925 251 913 q 164 961 201 938 q 103 997 126 986 q 56 1008 81 1008 q -11 985 15 1008 q -39 913 -37 961 l -69 913 z "},"j":{"ha":297,"x_min":114,"x_max":183,"o":"m 132 885 q 114 903 114 885 l 114 996 q 132 1014 114 1014 l 167 1014 q 183 996 183 1014 l 183 903 q 167 885 183 885 l 132 885 m 119 739 l 176 739 l 176 33 q 161 -329 176 -140 l 119 -329 l 119 739 z "},"ȷ":{"ha":297,"x_min":119,"x_max":176,"o":"m 119 739 l 176 739 l 176 33 q 161 -329 176 -140 l 119 -329 l 119 739 z "},"ĵ":{"ha":297,"x_min":-49,"x_max":336,"o":"m 119 739 l 176 739 l 176 33 q 161 -329 176 -140 l 119 -329 l 119 739 m 131 1060 l 174 1060 l 336 876 l 299 876 l 151 1029 l -11 876 l -49 876 l 131 1060 z "},"k":{"ha":667,"x_min":119,"x_max":632,"o":"m 119 1060 l 176 1060 l 176 424 l 293 424 l 554 739 l 618 739 l 335 397 l 632 0 l 567 0 l 288 372 l 176 372 l 176 0 l 119 0 l 119 1060 z "},"ķ":{"ha":667,"x_min":119,"x_max":632,"o":"m 119 1060 l 176 1060 l 176 424 l 293 424 l 554 739 l 618 739 l 335 397 l 632 0 l 567 0 l 288 372 l 176 372 l 176 0 l 119 0 l 119 1060 m 228 -247 l 271 -242 q 335 -226 313 -237 q 369 -181 357 -214 q 379 -79 381 -147 l 417 -79 q 405 -193 417 -153 q 362 -251 393 -233 q 269 -269 331 -269 l 228 -269 l 228 -247 z "},"ĸ":{"ha":667,"x_min":119,"x_max":632,"o":"m 119 751 l 176 751 l 176 422 l 292 422 l 553 739 l 618 739 l 335 394 l 632 0 l 567 0 l 288 371 l 176 371 l 176 0 l 119 0 l 119 751 z "},"l":{"ha":393,"x_min":119,"x_max":381,"o":"m 293 0 q 163 52 206 0 q 119 236 119 104 l 119 1060 l 176 1060 l 176 240 q 190 125 176 165 q 229 69 204 85 q 296 49 254 53 l 381 39 l 381 0 l 293 0 z "},"ĺ":{"ha":393,"x_min":111,"x_max":381,"o":"m 293 0 q 163 52 206 0 q 119 236 119 104 l 119 1060 l 176 1060 l 176 240 q 190 125 176 165 q 229 69 204 85 q 296 49 254 53 l 381 39 l 381 0 l 293 0 m 272 1403 l 326 1403 l 144 1217 l 111 1217 l 272 1403 z "},"ľ":{"ha":393,"x_min":119,"x_max":381,"o":"m 293 0 q 163 52 206 0 q 119 236 119 104 l 119 1060 l 176 1060 l 176 240 q 190 125 176 165 q 229 69 204 85 q 296 49 254 53 l 381 39 l 381 0 l 293 0 m 282 1007 l 282 1088 l 336 1088 l 336 1007 l 331 808 l 289 808 l 282 1007 z "},"ļ":{"ha":393,"x_min":103,"x_max":381,"o":"m 293 0 q 163 52 206 0 q 119 236 119 104 l 119 1060 l 176 1060 l 176 240 q 190 125 176 165 q 229 69 204 85 q 296 49 254 53 l 381 39 l 381 0 l 293 0 m 103 -247 l 146 -242 q 210 -226 188 -237 q 244 -181 232 -214 q 254 -79 256 -147 l 292 -79 q 280 -193 292 -153 q 237 -251 268 -233 q 144 -269 206 -269 l 103 -269 l 103 -247 z "},"ŀ":{"ha":404,"x_min":119,"x_max":385,"o":"m 293 0 q 163 52 206 0 q 119 236 119 104 l 119 1060 l 176 1060 l 176 240 q 190 125 176 165 q 229 69 204 85 q 296 49 254 53 l 381 39 l 381 0 l 293 0 m 338 494 q 324 500 329 494 q 318 513 318 506 l 318 544 q 338 563 318 563 l 367 563 q 385 544 385 563 l 385 513 q 367 494 385 494 l 338 494 z "},"ḷ":{"ha":393,"x_min":119,"x_max":381,"o":"m 293 0 q 163 52 206 0 q 119 236 119 104 l 119 1060 l 176 1060 l 176 240 q 190 125 176 165 q 229 69 204 85 q 296 49 254 53 l 381 39 l 381 0 l 293 0 m 199 -279 q 181 -261 181 -279 l 181 -168 q 199 -150 181 -150 l 225 -150 q 243 -168 243 -150 l 243 -261 q 225 -279 243 -279 l 199 -279 z "},"ḻ":{"ha":393,"x_min":29,"x_max":385,"o":"m 293 0 q 163 52 206 0 q 119 236 119 104 l 119 1060 l 176 1060 l 176 240 q 190 125 176 165 q 229 69 204 85 q 296 49 254 53 l 381 39 l 381 0 l 293 0 m 29 -208 l 385 -208 l 385 -243 l 29 -243 l 29 -208 z "},"ł":{"ha":393,"x_min":10,"x_max":381,"o":"m 381 39 l 381 0 l 293 0 q 163 52 206 0 q 119 236 119 104 l 119 547 l 10 510 l 10 550 l 119 588 l 119 1060 l 176 1060 l 176 607 l 331 657 l 331 617 l 176 567 l 176 240 q 190 125 176 165 q 229 69 204 85 q 296 49 254 53 l 381 39 z "},"m":{"ha":1331,"x_min":119,"x_max":1215,"o":"m 119 739 l 160 739 l 176 654 q 469 751 326 751 q 588 721 538 751 q 667 639 639 690 q 817 717 725 682 q 986 751 908 751 q 1110 719 1058 751 q 1189 631 1163 686 q 1215 510 1215 575 l 1215 0 l 1158 0 l 1158 507 q 1108 644 1158 589 q 975 700 1058 700 q 828 674 906 700 q 676 606 751 649 q 696 507 696 556 l 696 0 l 639 0 l 639 507 q 590 644 639 589 q 457 700 540 700 q 317 681 378 700 q 176 617 257 661 l 176 0 l 119 0 l 119 739 z "},"ṁ":{"ha":1331,"x_min":119,"x_max":1215,"o":"m 119 739 l 160 739 l 176 654 q 469 751 326 751 q 588 721 538 751 q 667 639 639 690 q 817 717 725 682 q 986 751 908 751 q 1110 719 1058 751 q 1189 631 1163 686 q 1215 510 1215 575 l 1215 0 l 1158 0 l 1158 507 q 1108 644 1158 589 q 975 700 1058 700 q 828 674 906 700 q 676 606 751 649 q 696 507 696 556 l 696 0 l 639 0 l 639 507 q 590 644 639 589 q 457 700 540 700 q 317 681 378 700 q 176 617 257 661 l 176 0 l 119 0 l 119 739 m 653 929 q 640 935 644 929 q 635 947 635 940 l 635 1040 q 653 1058 635 1058 l 679 1058 q 697 1040 697 1058 l 697 947 q 692 934 697 939 q 679 929 686 929 l 653 929 z "},"ṃ":{"ha":1331,"x_min":119,"x_max":1215,"o":"m 119 739 l 160 739 l 176 654 q 469 751 326 751 q 588 721 538 751 q 667 639 639 690 q 817 717 725 682 q 986 751 908 751 q 1110 719 1058 751 q 1189 631 1163 686 q 1215 510 1215 575 l 1215 0 l 1158 0 l 1158 507 q 1108 644 1158 589 q 975 700 1058 700 q 828 674 906 700 q 676 606 751 649 q 696 507 696 556 l 696 0 l 639 0 l 639 507 q 590 644 639 589 q 457 700 540 700 q 317 681 378 700 q 176 617 257 661 l 176 0 l 119 0 l 119 739 m 647 -279 q 629 -261 629 -279 l 629 -168 q 647 -150 629 -150 l 674 -150 q 692 -168 692 -150 l 692 -261 q 674 -279 692 -279 l 647 -279 z "},"n":{"ha":811,"x_min":119,"x_max":696,"o":"m 119 739 l 160 739 l 176 654 q 317 724 242 697 q 468 751 392 751 q 592 718 540 751 q 669 630 643 685 q 696 511 696 575 l 696 0 l 639 0 l 639 507 q 590 644 639 589 q 457 700 540 700 q 317 681 378 700 q 176 617 257 661 l 176 0 l 119 0 l 119 739 z "},"ń":{"ha":811,"x_min":119,"x_max":696,"o":"m 119 739 l 160 739 l 176 654 q 317 724 242 697 q 468 751 392 751 q 592 718 540 751 q 669 630 643 685 q 696 511 696 575 l 696 0 l 639 0 l 639 507 q 590 644 639 589 q 457 700 540 700 q 317 681 378 700 q 176 617 257 661 l 176 0 l 119 0 l 119 739 m 528 1063 l 582 1063 l 400 876 l 367 876 l 528 1063 z "},"ň":{"ha":811,"x_min":119,"x_max":696,"o":"m 119 739 l 160 739 l 176 654 q 317 724 242 697 q 468 751 392 751 q 592 718 540 751 q 669 630 643 685 q 696 511 696 575 l 696 0 l 639 0 l 639 507 q 590 644 639 589 q 457 700 540 700 q 317 681 378 700 q 176 617 257 661 l 176 0 l 119 0 l 119 739 m 219 1060 l 257 1060 l 404 907 l 567 1060 l 604 1060 l 425 876 l 382 876 l 219 1060 z "},"ņ":{"ha":811,"x_min":119,"x_max":696,"o":"m 119 739 l 160 739 l 176 654 q 317 724 242 697 q 468 751 392 751 q 592 718 540 751 q 669 630 643 685 q 696 511 696 575 l 696 0 l 639 0 l 639 507 q 590 644 639 589 q 457 700 540 700 q 317 681 378 700 q 176 617 257 661 l 176 0 l 119 0 l 119 739 m 292 -247 l 335 -242 q 399 -226 376 -237 q 433 -181 421 -214 q 443 -79 444 -147 l 481 -79 q 469 -193 481 -153 q 426 -251 457 -233 q 333 -269 394 -269 l 292 -269 l 292 -247 z "},"ṅ":{"ha":811,"x_min":119,"x_max":696,"o":"m 119 739 l 160 739 l 176 654 q 317 724 242 697 q 468 751 392 751 q 592 718 540 751 q 669 630 643 685 q 696 511 696 575 l 696 0 l 639 0 l 639 507 q 590 644 639 589 q 457 700 540 700 q 317 681 378 700 q 176 617 257 661 l 176 0 l 119 0 l 119 739 m 388 -279 q 369 -261 369 -279 l 369 -168 q 388 -150 369 -150 l 414 -150 q 432 -168 432 -150 l 432 -261 q 414 -279 432 -279 l 388 -279 z "},"ṇ":{"ha":811,"x_min":119,"x_max":696,"o":"m 119 739 l 160 739 l 176 654 q 317 724 242 697 q 468 751 392 751 q 592 718 540 751 q 669 630 643 685 q 696 511 696 575 l 696 0 l 639 0 l 639 507 q 590 644 639 589 q 457 700 540 700 q 317 681 378 700 q 176 617 257 661 l 176 0 l 119 0 l 119 739 m 388 -279 q 369 -261 369 -279 l 369 -168 q 388 -150 369 -150 l 414 -150 q 432 -168 432 -150 l 432 -261 q 414 -279 432 -279 l 388 -279 z "},"ŋ":{"ha":811,"x_min":119,"x_max":696,"o":"m 468 751 q 592 718 540 751 q 669 630 643 685 q 696 511 696 575 l 696 0 q 641 -203 692 -125 q 504 -329 590 -282 l 456 -329 q 592 -185 546 -267 q 639 18 639 -103 l 639 507 q 590 644 639 589 q 457 700 540 700 q 317 681 378 700 q 176 617 257 661 l 176 0 l 119 0 l 119 739 l 160 739 l 176 654 q 317 724 242 697 q 468 751 392 751 z "},"ṉ":{"ha":811,"x_min":119,"x_max":696,"o":"m 119 739 l 160 739 l 176 654 q 317 724 242 697 q 468 751 392 751 q 592 718 540 751 q 669 630 643 685 q 696 511 696 575 l 696 0 l 639 0 l 639 507 q 590 644 639 589 q 457 700 540 700 q 317 681 378 700 q 176 617 257 661 l 176 0 l 119 0 l 119 739 m 218 -208 l 574 -208 l 574 -243 l 218 -243 l 218 -208 z "},"ñ":{"ha":811,"x_min":119,"x_max":696,"o":"m 119 739 l 160 739 l 176 654 q 317 724 242 697 q 468 751 392 751 q 592 718 540 751 q 669 630 643 685 q 696 511 696 575 l 696 0 l 639 0 l 639 507 q 590 644 639 589 q 457 700 540 700 q 317 681 378 700 q 176 617 257 661 l 176 0 l 119 0 l 119 739 m 186 913 q 224 1012 188 981 q 311 1043 261 1043 q 368 1030 342 1043 q 433 992 394 1017 q 492 958 471 968 q 535 947 513 947 q 606 973 578 947 q 633 1044 633 999 l 664 1044 q 628 949 663 985 q 535 913 594 913 q 482 925 507 913 q 419 961 457 938 q 359 997 382 986 q 311 1008 336 1008 q 244 985 271 1008 q 217 913 218 961 l 186 913 z "},"o":{"ha":803,"x_min":92,"x_max":711,"o":"m 400 -8 q 227 22 293 -8 q 126 135 161 53 q 92 371 92 218 q 126 606 92 525 q 227 717 161 688 q 400 747 293 747 q 574 717 507 747 q 676 606 640 688 q 711 371 711 524 q 676 135 711 217 q 574 22 640 53 q 400 -8 507 -8 m 400 40 q 543 64 490 40 q 625 159 596 88 q 654 371 654 231 q 625 582 654 511 q 543 676 596 653 q 400 699 490 699 q 258 676 310 699 q 177 582 206 653 q 149 371 149 511 q 177 159 149 231 q 258 64 206 88 q 400 40 310 40 z "},"ó":{"ha":803,"x_min":92,"x_max":711,"o":"m 400 -8 q 227 22 293 -8 q 126 135 161 53 q 92 371 92 218 q 126 606 92 525 q 227 717 161 688 q 400 747 293 747 q 574 717 507 747 q 676 606 640 688 q 711 371 711 524 q 676 135 711 217 q 574 22 640 53 q 400 -8 507 -8 m 400 40 q 543 64 490 40 q 625 159 596 88 q 654 371 654 231 q 625 582 654 511 q 543 676 596 653 q 400 699 490 699 q 258 676 310 699 q 177 582 206 653 q 149 371 149 511 q 177 159 149 231 q 258 64 206 88 q 400 40 310 40 m 524 1063 l 578 1063 l 396 876 l 363 876 l 524 1063 z "},"ŏ":{"ha":803,"x_min":92,"x_max":711,"o":"m 400 -8 q 227 22 293 -8 q 126 135 161 53 q 92 371 92 218 q 126 606 92 525 q 227 717 161 688 q 400 747 293 747 q 574 717 507 747 q 676 606 640 688 q 711 371 711 524 q 676 135 711 217 q 574 22 640 53 q 400 -8 507 -8 m 400 40 q 543 64 490 40 q 625 159 596 88 q 654 371 654 231 q 625 582 654 511 q 543 676 596 653 q 400 699 490 699 q 258 676 310 699 q 177 582 206 653 q 149 371 149 511 q 177 159 149 231 q 258 64 206 88 q 400 40 310 40 m 390 878 q 265 922 315 878 q 215 1067 215 965 l 246 1067 q 285 946 246 985 q 386 907 325 907 q 498 944 458 907 q 538 1067 538 981 l 568 1067 q 517 921 568 964 q 390 878 467 878 z "},"ô":{"ha":803,"x_min":92,"x_max":711,"o":"m 400 -8 q 227 22 293 -8 q 126 135 161 53 q 92 371 92 218 q 126 606 92 525 q 227 717 161 688 q 400 747 293 747 q 574 717 507 747 q 676 606 640 688 q 711 371 711 524 q 676 135 711 217 q 574 22 640 53 q 400 -8 507 -8 m 400 40 q 543 64 490 40 q 625 159 596 88 q 654 371 654 231 q 625 582 654 511 q 543 676 596 653 q 400 699 490 699 q 258 676 310 699 q 177 582 206 653 q 149 371 149 511 q 177 159 149 231 q 258 64 206 88 q 400 40 310 40 m 382 1060 l 425 1060 l 588 876 l 550 876 l 403 1029 l 240 876 l 203 876 l 382 1060 z "},"ố":{"ha":803,"x_min":92,"x_max":717,"o":"m 400 -8 q 227 22 293 -8 q 126 135 161 53 q 92 371 92 218 q 126 606 92 525 q 227 717 161 688 q 400 747 293 747 q 574 717 507 747 q 676 606 640 688 q 711 371 711 524 q 676 135 711 217 q 574 22 640 53 q 400 -8 507 -8 m 400 40 q 543 64 490 40 q 625 159 596 88 q 654 371 654 231 q 625 582 654 511 q 543 676 596 653 q 400 699 490 699 q 258 676 310 699 q 177 582 206 653 q 149 371 149 511 q 177 159 149 231 q 258 64 206 88 q 400 40 310 40 m 717 1160 l 542 976 l 508 976 l 663 1160 l 717 1160 m 425 1006 l 588 876 l 549 876 l 403 975 l 240 876 l 203 876 l 382 1006 l 425 1006 z "},"ộ":{"ha":803,"x_min":92,"x_max":711,"o":"m 400 -8 q 227 22 293 -8 q 126 135 161 53 q 92 371 92 218 q 126 606 92 525 q 227 717 161 688 q 400 747 293 747 q 574 717 507 747 q 676 606 640 688 q 711 371 711 524 q 676 135 711 217 q 574 22 640 53 q 400 -8 507 -8 m 400 40 q 543 64 490 40 q 625 159 596 88 q 654 371 654 231 q 625 582 654 511 q 543 676 596 653 q 400 699 490 699 q 258 676 310 699 q 177 582 206 653 q 149 371 149 511 q 177 159 149 231 q 258 64 206 88 q 400 40 310 40 m 382 1060 l 425 1060 l 588 876 l 550 876 l 403 1029 l 240 876 l 203 876 l 382 1060 m 383 -279 q 365 -261 365 -279 l 365 -168 q 383 -150 365 -150 l 410 -150 q 428 -168 428 -150 l 428 -261 q 410 -279 428 -279 l 383 -279 z "},"ồ":{"ha":803,"x_min":82,"x_max":711,"o":"m 400 -8 q 227 22 293 -8 q 126 135 161 53 q 92 371 92 218 q 126 606 92 525 q 227 717 161 688 q 400 747 293 747 q 574 717 507 747 q 676 606 640 688 q 711 371 711 524 q 676 135 711 217 q 574 22 640 53 q 400 -8 507 -8 m 400 40 q 543 64 490 40 q 625 159 596 88 q 654 371 654 231 q 625 582 654 511 q 543 676 596 653 q 400 699 490 699 q 258 676 310 699 q 177 582 206 653 q 149 371 149 511 q 177 159 149 231 q 258 64 206 88 q 400 40 310 40 m 136 1160 l 290 976 l 257 976 l 82 1160 l 136 1160 m 425 1006 l 588 876 l 549 876 l 403 975 l 240 876 l 203 876 l 382 1006 l 425 1006 z "},"ổ":{"ha":803,"x_min":92,"x_max":711,"o":"m 400 -8 q 227 22 293 -8 q 126 135 161 53 q 92 371 92 218 q 126 606 92 525 q 227 717 161 688 q 400 747 293 747 q 574 717 507 747 q 676 606 640 688 q 711 371 711 524 q 676 135 711 217 q 574 22 640 53 q 400 -8 507 -8 m 400 40 q 543 64 490 40 q 625 159 596 88 q 654 371 654 231 q 625 582 654 511 q 543 676 596 653 q 400 699 490 699 q 258 676 310 699 q 177 582 206 653 q 149 371 149 511 q 177 159 149 231 q 258 64 206 88 q 400 40 310 40 m 540 975 q 624 1058 624 1001 q 553 1119 624 1119 q 501 1111 526 1119 l 501 1138 q 560 1147 529 1147 q 632 1124 608 1147 q 656 1058 656 1100 q 626 992 656 1022 q 540 946 597 961 l 540 975 m 382 1006 l 425 1006 l 588 876 l 549 876 l 403 975 l 240 876 l 203 876 l 382 1006 z "},"ỗ":{"ha":803,"x_min":92,"x_max":711,"o":"m 400 -8 q 227 22 293 -8 q 126 135 161 53 q 92 371 92 218 q 126 606 92 525 q 227 717 161 688 q 400 747 293 747 q 574 717 507 747 q 676 606 640 688 q 711 371 711 524 q 676 135 711 217 q 574 22 640 53 q 400 -8 507 -8 m 400 40 q 543 64 490 40 q 625 159 596 88 q 654 371 654 231 q 625 582 654 511 q 543 676 596 653 q 400 699 490 699 q 258 676 310 699 q 177 582 206 653 q 149 371 149 511 q 177 159 149 231 q 258 64 206 88 q 400 40 310 40 m 288 1175 q 342 1166 317 1175 q 404 1139 368 1157 q 460 1114 439 1122 q 506 1106 482 1106 q 567 1124 543 1106 q 592 1175 592 1142 l 622 1175 q 591 1101 621 1128 q 508 1074 561 1074 q 456 1083 481 1074 q 399 1108 431 1092 q 340 1133 365 1125 q 289 1142 315 1142 q 231 1124 254 1142 q 208 1072 208 1107 l 178 1072 q 211 1151 179 1126 q 288 1175 243 1175 m 588 876 l 549 876 l 403 975 l 240 876 l 203 876 l 382 1006 l 425 1006 l 588 876 z "},"ȍ":{"ha":803,"x_min":92,"x_max":711,"o":"m 400 -8 q 227 22 293 -8 q 126 135 161 53 q 92 371 92 218 q 126 606 92 525 q 227 717 161 688 q 400 747 293 747 q 574 717 507 747 q 676 606 640 688 q 711 371 711 524 q 676 135 711 217 q 574 22 640 53 q 400 -8 507 -8 m 400 40 q 543 64 490 40 q 625 159 596 88 q 654 371 654 231 q 625 582 654 511 q 543 676 596 653 q 400 699 490 699 q 258 676 310 699 q 177 582 206 653 q 149 371 149 511 q 177 159 149 231 q 258 64 206 88 q 400 40 310 40 m 143 1063 l 197 1063 l 357 876 l 324 876 l 143 1063 m 321 1063 l 375 1063 l 535 876 l 501 876 l 321 1063 z "},"ö":{"ha":803,"x_min":92,"x_max":711,"o":"m 400 -8 q 227 22 293 -8 q 126 135 161 53 q 92 371 92 218 q 126 606 92 525 q 227 717 161 688 q 400 747 293 747 q 574 717 507 747 q 676 606 640 688 q 711 371 711 524 q 676 135 711 217 q 574 22 640 53 q 400 -8 507 -8 m 400 40 q 543 64 490 40 q 625 159 596 88 q 654 371 654 231 q 625 582 654 511 q 543 676 596 653 q 400 699 490 699 q 258 676 310 699 q 177 582 206 653 q 149 371 149 511 q 177 159 149 231 q 258 64 206 88 q 400 40 310 40 m 251 919 q 239 925 244 919 q 233 938 233 931 l 233 1031 q 251 1049 233 1049 l 278 1049 q 296 1031 296 1049 l 296 938 q 278 919 296 919 l 251 919 m 522 919 q 508 925 514 919 q 503 938 503 931 l 503 1031 q 522 1049 503 1049 l 547 1049 q 567 1031 567 1049 l 567 938 q 561 924 567 929 q 547 919 556 919 l 522 919 z "},"ȫ":{"ha":803,"x_min":92,"x_max":711,"o":"m 400 -8 q 227 22 293 -8 q 126 135 161 53 q 92 371 92 218 q 126 606 92 525 q 227 717 161 688 q 400 747 293 747 q 574 717 507 747 q 676 606 640 688 q 711 371 711 524 q 676 135 711 217 q 574 22 640 53 q 400 -8 507 -8 m 400 40 q 543 64 490 40 q 625 159 596 88 q 654 371 654 231 q 625 582 654 511 q 543 676 596 653 q 400 699 490 699 q 258 676 310 699 q 177 582 206 653 q 149 371 149 511 q 177 159 149 231 q 258 64 206 88 q 400 40 310 40 m 251 919 q 239 925 244 919 q 233 938 233 931 l 233 1031 q 251 1049 233 1049 l 278 1049 q 296 1031 296 1049 l 296 938 q 278 919 296 919 l 251 919 m 522 919 q 508 925 514 919 q 503 938 503 931 l 503 1031 q 522 1049 503 1049 l 547 1049 q 567 1031 567 1049 l 567 938 q 561 924 567 929 q 547 919 556 919 l 522 919 m 221 1201 l 576 1201 l 576 1167 l 221 1167 l 221 1201 z "},"ȱ":{"ha":803,"x_min":92,"x_max":711,"o":"m 400 -8 q 227 22 293 -8 q 126 135 161 53 q 92 371 92 218 q 126 606 92 525 q 227 717 161 688 q 400 747 293 747 q 574 717 507 747 q 676 606 640 688 q 711 371 711 524 q 676 135 711 217 q 574 22 640 53 q 400 -8 507 -8 m 400 40 q 543 64 490 40 q 625 159 596 88 q 654 371 654 231 q 625 582 654 511 q 543 676 596 653 q 400 699 490 699 q 258 676 310 699 q 177 582 206 653 q 149 371 149 511 q 177 159 149 231 q 258 64 206 88 q 400 40 310 40 m 386 929 q 373 935 378 929 q 368 947 368 940 l 368 1040 q 386 1058 368 1058 l 413 1058 q 431 1040 431 1058 l 431 947 q 425 934 431 939 q 413 929 419 929 l 386 929 m 221 1189 l 576 1189 l 576 1154 l 221 1154 l 221 1189 z "},"ọ":{"ha":803,"x_min":92,"x_max":711,"o":"m 400 -8 q 227 22 293 -8 q 126 135 161 53 q 92 371 92 218 q 126 606 92 525 q 227 717 161 688 q 400 747 293 747 q 574 717 507 747 q 676 606 640 688 q 711 371 711 524 q 676 135 711 217 q 574 22 640 53 q 400 -8 507 -8 m 400 40 q 543 64 490 40 q 625 159 596 88 q 654 371 654 231 q 625 582 654 511 q 543 676 596 653 q 400 699 490 699 q 258 676 310 699 q 177 582 206 653 q 149 371 149 511 q 177 159 149 231 q 258 64 206 88 q 400 40 310 40 m 383 -279 q 365 -261 365 -279 l 365 -168 q 383 -150 365 -150 l 410 -150 q 428 -168 428 -150 l 428 -261 q 410 -279 428 -279 l 383 -279 z "},"ò":{"ha":803,"x_min":92,"x_max":711,"o":"m 400 -8 q 227 22 293 -8 q 126 135 161 53 q 92 371 92 218 q 126 606 92 525 q 227 717 161 688 q 400 747 293 747 q 574 717 507 747 q 676 606 640 688 q 711 371 711 524 q 676 135 711 217 q 574 22 640 53 q 400 -8 507 -8 m 400 40 q 543 64 490 40 q 625 159 596 88 q 654 371 654 231 q 625 582 654 511 q 543 676 596 653 q 400 699 490 699 q 258 676 310 699 q 177 582 206 653 q 149 371 149 511 q 177 159 149 231 q 258 64 206 88 q 400 40 310 40 m 225 1063 l 279 1063 l 440 876 l 407 876 l 225 1063 z "},"ỏ":{"ha":803,"x_min":92,"x_max":711,"o":"m 400 -8 q 227 22 293 -8 q 126 135 161 53 q 92 371 92 218 q 126 606 92 525 q 227 717 161 688 q 400 747 293 747 q 574 717 507 747 q 676 606 640 688 q 711 371 711 524 q 676 135 711 217 q 574 22 640 53 q 400 -8 507 -8 m 400 40 q 543 64 490 40 q 625 159 596 88 q 654 371 654 231 q 625 582 654 511 q 543 676 596 653 q 400 699 490 699 q 258 676 310 699 q 177 582 206 653 q 149 371 149 511 q 177 159 149 231 q 258 64 206 88 q 400 40 310 40 m 382 874 q 451 914 429 889 q 474 969 474 939 q 455 1026 474 1007 q 394 1044 436 1044 q 343 1036 368 1044 l 343 1064 q 401 1072 367 1072 q 481 1044 454 1072 q 507 969 507 1017 q 476 896 507 929 q 382 844 444 863 l 382 874 z "},"ơ":{"ha":803,"x_min":92,"x_max":756,"o":"m 597 704 q 683 588 654 667 q 711 371 711 508 q 676 135 711 217 q 574 22 640 53 q 400 -8 507 -8 q 227 22 293 -8 q 126 135 161 53 q 92 371 92 218 q 126 606 92 525 q 227 717 161 688 q 400 747 293 747 q 506 739 458 747 l 596 739 q 710 899 710 739 l 756 899 q 711 749 756 793 q 600 704 667 704 l 597 704 m 400 40 q 543 64 490 40 q 625 159 596 88 q 654 371 654 231 q 625 582 654 511 q 543 676 596 653 q 400 699 490 699 q 258 676 310 699 q 177 582 206 653 q 149 371 149 511 q 177 159 149 231 q 258 64 206 88 q 400 40 310 40 z "},"ớ":{"ha":803,"x_min":92,"x_max":756,"o":"m 597 704 q 683 588 654 667 q 711 371 711 508 q 676 135 711 217 q 574 22 640 53 q 400 -8 507 -8 q 227 22 293 -8 q 126 135 161 53 q 92 371 92 218 q 126 606 92 525 q 227 717 161 688 q 400 747 293 747 q 506 739 458 747 l 596 739 q 710 899 710 739 l 756 899 q 711 749 756 793 q 600 704 667 704 l 597 704 m 400 40 q 543 64 490 40 q 625 159 596 88 q 654 371 654 231 q 625 582 654 511 q 543 676 596 653 q 400 699 490 699 q 258 676 310 699 q 177 582 206 653 q 149 371 149 511 q 177 159 149 231 q 258 64 206 88 q 400 40 310 40 m 549 1063 l 603 1063 l 421 876 l 388 876 l 549 1063 z "},"ợ":{"ha":803,"x_min":92,"x_max":756,"o":"m 597 704 q 683 588 654 667 q 711 371 711 508 q 676 135 711 217 q 574 22 640 53 q 400 -8 507 -8 q 227 22 293 -8 q 126 135 161 53 q 92 371 92 218 q 126 606 92 525 q 227 717 161 688 q 400 747 293 747 q 506 739 458 747 l 596 739 q 710 899 710 739 l 756 899 q 711 749 756 793 q 600 704 667 704 l 597 704 m 400 40 q 543 64 490 40 q 625 159 596 88 q 654 371 654 231 q 625 582 654 511 q 543 676 596 653 q 400 699 490 699 q 258 676 310 699 q 177 582 206 653 q 149 371 149 511 q 177 159 149 231 q 258 64 206 88 q 400 40 310 40 m 400 -279 q 382 -261 382 -279 l 382 -168 q 400 -150 382 -150 l 426 -150 q 444 -168 444 -150 l 444 -261 q 426 -279 444 -279 l 400 -279 z "},"ờ":{"ha":803,"x_min":92,"x_max":756,"o":"m 597 704 q 683 588 654 667 q 711 371 711 508 q 676 135 711 217 q 574 22 640 53 q 400 -8 507 -8 q 227 22 293 -8 q 126 135 161 53 q 92 371 92 218 q 126 606 92 525 q 227 717 161 688 q 400 747 293 747 q 506 739 458 747 l 596 739 q 710 899 710 739 l 756 899 q 711 749 756 793 q 600 704 667 704 l 597 704 m 400 40 q 543 64 490 40 q 625 159 596 88 q 654 371 654 231 q 625 582 654 511 q 543 676 596 653 q 400 699 490 699 q 258 676 310 699 q 177 582 206 653 q 149 371 149 511 q 177 159 149 231 q 258 64 206 88 q 400 40 310 40 m 225 1063 l 279 1063 l 440 876 l 407 876 l 225 1063 z "},"ở":{"ha":803,"x_min":92,"x_max":756,"o":"m 597 704 q 683 588 654 667 q 711 371 711 508 q 676 135 711 217 q 574 22 640 53 q 400 -8 507 -8 q 227 22 293 -8 q 126 135 161 53 q 92 371 92 218 q 126 606 92 525 q 227 717 161 688 q 400 747 293 747 q 506 739 458 747 l 596 739 q 710 899 710 739 l 756 899 q 711 749 756 793 q 600 704 667 704 l 597 704 m 400 40 q 543 64 490 40 q 625 159 596 88 q 654 371 654 231 q 625 582 654 511 q 543 676 596 653 q 400 699 490 699 q 258 676 310 699 q 177 582 206 653 q 149 371 149 511 q 177 159 149 231 q 258 64 206 88 q 400 40 310 40 m 385 874 q 454 914 432 889 q 476 969 476 939 q 458 1026 476 1007 q 397 1044 439 1044 q 346 1036 371 1044 l 346 1064 q 404 1072 369 1072 q 483 1044 457 1072 q 510 969 510 1017 q 478 896 510 929 q 385 844 447 863 l 385 874 z "},"ỡ":{"ha":803,"x_min":92,"x_max":756,"o":"m 597 704 q 683 588 654 667 q 711 371 711 508 q 676 135 711 217 q 574 22 640 53 q 400 -8 507 -8 q 227 22 293 -8 q 126 135 161 53 q 92 371 92 218 q 126 606 92 525 q 227 717 161 688 q 400 747 293 747 q 506 739 458 747 l 596 739 q 710 899 710 739 l 756 899 q 711 749 756 793 q 600 704 667 704 l 597 704 m 400 40 q 543 64 490 40 q 625 159 596 88 q 654 371 654 231 q 625 582 654 511 q 543 676 596 653 q 400 699 490 699 q 258 676 310 699 q 177 582 206 653 q 149 371 149 511 q 177 159 149 231 q 258 64 206 88 q 400 40 310 40 m 163 913 q 201 1012 164 981 q 288 1043 238 1043 q 344 1030 318 1043 q 410 992 371 1017 q 468 958 447 968 q 511 947 489 947 q 582 973 554 947 q 610 1044 610 999 l 640 1044 q 605 949 639 985 q 511 913 571 913 q 458 925 483 913 q 396 961 433 938 q 335 997 358 986 q 288 1008 313 1008 q 221 985 247 1008 q 193 913 194 961 l 163 913 z "},"ő":{"ha":803,"x_min":92,"x_max":711,"o":"m 400 -8 q 227 22 293 -8 q 126 135 161 53 q 92 371 92 218 q 126 606 92 525 q 227 717 161 688 q 400 747 293 747 q 574 717 507 747 q 676 606 640 688 q 711 371 711 524 q 676 135 711 217 q 574 22 640 53 q 400 -8 507 -8 m 400 40 q 543 64 490 40 q 625 159 596 88 q 654 371 654 231 q 625 582 654 511 q 543 676 596 653 q 400 699 490 699 q 258 676 310 699 q 177 582 206 653 q 149 371 149 511 q 177 159 149 231 q 258 64 206 88 q 400 40 310 40 m 408 1063 l 461 1063 l 282 876 l 249 876 l 408 1063 m 607 1063 l 658 1063 l 481 876 l 447 876 l 607 1063 z "},"ȏ":{"ha":803,"x_min":92,"x_max":711,"o":"m 400 -8 q 227 22 293 -8 q 126 135 161 53 q 92 371 92 218 q 126 606 92 525 q 227 717 161 688 q 400 747 293 747 q 574 717 507 747 q 676 606 640 688 q 711 371 711 524 q 676 135 711 217 q 574 22 640 53 q 400 -8 507 -8 m 400 40 q 543 64 490 40 q 625 159 596 88 q 654 371 654 231 q 625 582 654 511 q 543 676 596 653 q 400 699 490 699 q 258 676 310 699 q 177 582 206 653 q 149 371 149 511 q 177 159 149 231 q 258 64 206 88 q 400 40 310 40 m 394 1067 q 519 1023 469 1067 q 569 878 569 979 l 539 878 q 499 999 539 960 q 399 1038 460 1038 q 287 1001 326 1038 q 247 878 247 964 l 217 878 q 267 1024 217 981 q 394 1067 318 1067 z "},"ō":{"ha":803,"x_min":92,"x_max":711,"o":"m 400 -8 q 227 22 293 -8 q 126 135 161 53 q 92 371 92 218 q 126 606 92 525 q 227 717 161 688 q 400 747 293 747 q 574 717 507 747 q 676 606 640 688 q 711 371 711 524 q 676 135 711 217 q 574 22 640 53 q 400 -8 507 -8 m 400 40 q 543 64 490 40 q 625 159 596 88 q 654 371 654 231 q 625 582 654 511 q 543 676 596 653 q 400 699 490 699 q 258 676 310 699 q 177 582 206 653 q 149 371 149 511 q 177 159 149 231 q 258 64 206 88 q 400 40 310 40 m 221 986 l 576 986 l 576 951 l 221 951 l 221 986 z "},"ṓ":{"ha":803,"x_min":92,"x_max":711,"o":"m 400 -8 q 227 22 293 -8 q 126 135 161 53 q 92 371 92 218 q 126 606 92 525 q 227 717 161 688 q 400 747 293 747 q 574 717 507 747 q 676 606 640 688 q 711 371 711 524 q 676 135 711 217 q 574 22 640 53 q 400 -8 507 -8 m 400 40 q 543 64 490 40 q 625 159 596 88 q 654 371 654 231 q 625 582 654 511 q 543 676 596 653 q 400 699 490 699 q 258 676 310 699 q 177 582 206 653 q 149 371 149 511 q 177 159 149 231 q 258 64 206 88 q 400 40 310 40 m 221 986 l 576 986 l 576 951 l 221 951 l 221 986 m 522 1232 l 576 1232 l 394 1046 l 361 1046 l 522 1232 z "},"ṑ":{"ha":803,"x_min":92,"x_max":711,"o":"m 400 -8 q 227 22 293 -8 q 126 135 161 53 q 92 371 92 218 q 126 606 92 525 q 227 717 161 688 q 400 747 293 747 q 574 717 507 747 q 676 606 640 688 q 711 371 711 524 q 676 135 711 217 q 574 22 640 53 q 400 -8 507 -8 m 400 40 q 543 64 490 40 q 625 159 596 88 q 654 371 654 231 q 625 582 654 511 q 543 676 596 653 q 400 699 490 699 q 258 676 310 699 q 177 582 206 653 q 149 371 149 511 q 177 159 149 231 q 258 64 206 88 q 400 40 310 40 m 221 986 l 576 986 l 576 951 l 221 951 l 221 986 m 222 1232 l 276 1232 l 438 1046 l 404 1046 l 222 1232 z "},"ǫ":{"ha":803,"x_min":92,"x_max":711,"o":"m 453 -7 q 388 -60 411 -31 q 365 -122 365 -90 q 399 -197 365 -171 q 499 -222 433 -222 l 507 -222 l 507 -253 q 475 -254 496 -254 q 369 -222 410 -254 q 329 -133 329 -189 q 353 -65 329 -99 q 424 -8 376 -32 l 400 -8 q 227 22 293 -8 q 126 135 161 53 q 92 371 92 218 q 126 606 92 525 q 227 717 161 688 q 400 747 293 747 q 574 717 507 747 q 676 606 640 688 q 711 371 711 524 q 682 150 711 231 q 597 35 653 69 q 453 -7 540 0 m 149 371 q 177 159 149 231 q 258 64 206 88 q 400 40 310 40 q 543 64 490 40 q 625 159 596 88 q 654 371 654 231 q 625 582 654 511 q 543 676 596 653 q 400 699 490 699 q 258 676 310 699 q 177 582 206 653 q 149 371 149 511 z "},"ø":{"ha":803,"x_min":89,"x_max":713,"o":"m 647 657 q 711 371 711 569 q 676 135 711 217 q 574 22 640 53 q 400 -8 507 -8 q 267 7 322 -8 q 175 58 213 22 l 129 0 l 89 0 l 154 83 q 92 371 92 172 q 126 606 92 525 q 227 717 161 688 q 400 747 293 747 q 534 733 479 747 q 628 681 589 718 l 674 739 l 713 739 l 647 657 m 149 371 q 190 129 149 203 l 593 638 q 517 686 563 674 q 400 699 471 699 q 258 676 310 699 q 177 582 206 653 q 149 371 149 511 m 654 371 q 611 611 654 536 l 210 101 q 285 53 239 67 q 400 40 331 40 q 543 64 490 40 q 625 159 596 88 q 654 371 654 231 z "},"ǿ":{"ha":803,"x_min":89,"x_max":713,"o":"m 647 657 q 711 371 711 569 q 676 135 711 217 q 574 22 640 53 q 400 -8 507 -8 q 267 7 322 -8 q 175 58 213 22 l 129 0 l 89 0 l 154 83 q 92 371 92 172 q 126 606 92 525 q 227 717 161 688 q 400 747 293 747 q 534 733 479 747 q 628 681 589 718 l 674 739 l 713 739 l 647 657 m 149 371 q 190 129 149 203 l 593 638 q 517 686 563 674 q 400 699 471 699 q 258 676 310 699 q 177 582 206 653 q 149 371 149 511 m 654 371 q 611 611 654 536 l 210 101 q 285 53 239 67 q 400 40 331 40 q 543 64 490 40 q 625 159 596 88 q 654 371 654 231 m 524 1063 l 578 1063 l 396 876 l 363 876 l 524 1063 z "},"õ":{"ha":803,"x_min":92,"x_max":711,"o":"m 400 -8 q 227 22 293 -8 q 126 135 161 53 q 92 371 92 218 q 126 606 92 525 q 227 717 161 688 q 400 747 293 747 q 574 717 507 747 q 676 606 640 688 q 711 371 711 524 q 676 135 711 217 q 574 22 640 53 q 400 -8 507 -8 m 400 40 q 543 64 490 40 q 625 159 596 88 q 654 371 654 231 q 625 582 654 511 q 543 676 596 653 q 400 699 490 699 q 258 676 310 699 q 177 582 206 653 q 149 371 149 511 q 177 159 149 231 q 258 64 206 88 q 400 40 310 40 m 182 913 q 220 1012 183 981 q 307 1043 257 1043 q 364 1030 338 1043 q 429 992 390 1017 q 488 958 467 968 q 531 947 508 947 q 601 973 574 947 q 629 1044 629 999 l 660 1044 q 624 949 658 985 q 531 913 590 913 q 478 925 503 913 q 415 961 453 938 q 355 997 378 986 q 307 1008 332 1008 q 240 985 267 1008 q 213 913 214 961 l 182 913 z "},"ṍ":{"ha":803,"x_min":92,"x_max":711,"o":"m 400 -8 q 227 22 293 -8 q 126 135 161 53 q 92 371 92 218 q 126 606 92 525 q 227 717 161 688 q 400 747 293 747 q 574 717 507 747 q 676 606 640 688 q 711 371 711 524 q 676 135 711 217 q 574 22 640 53 q 400 -8 507 -8 m 400 40 q 543 64 490 40 q 625 159 596 88 q 654 371 654 231 q 625 582 654 511 q 543 676 596 653 q 400 699 490 699 q 258 676 310 699 q 177 582 206 653 q 149 371 149 511 q 177 159 149 231 q 258 64 206 88 q 400 40 310 40 m 182 913 q 220 1012 183 981 q 307 1043 257 1043 q 364 1030 338 1043 q 429 992 390 1017 q 488 958 467 968 q 531 947 508 947 q 601 973 574 947 q 629 1044 629 999 l 660 1044 q 624 949 658 985 q 531 913 590 913 q 478 925 503 913 q 415 961 453 938 q 355 997 378 986 q 307 1008 332 1008 q 240 985 267 1008 q 213 913 214 961 l 182 913 m 522 1272 l 576 1272 l 394 1086 l 361 1086 l 522 1272 z "},"ṏ":{"ha":803,"x_min":92,"x_max":711,"o":"m 400 -8 q 227 22 293 -8 q 126 135 161 53 q 92 371 92 218 q 126 606 92 525 q 227 717 161 688 q 400 747 293 747 q 574 717 507 747 q 676 606 640 688 q 711 371 711 524 q 676 135 711 217 q 574 22 640 53 q 400 -8 507 -8 m 400 40 q 543 64 490 40 q 625 159 596 88 q 654 371 654 231 q 625 582 654 511 q 543 676 596 653 q 400 699 490 699 q 258 676 310 699 q 177 582 206 653 q 149 371 149 511 q 177 159 149 231 q 258 64 206 88 q 400 40 310 40 m 182 913 q 220 1012 183 981 q 307 1043 257 1043 q 364 1030 338 1043 q 429 992 390 1017 q 488 958 467 968 q 531 947 508 947 q 601 973 574 947 q 629 1044 629 999 l 660 1044 q 624 949 658 985 q 531 913 590 913 q 478 925 503 913 q 415 961 453 938 q 355 997 378 986 q 307 1008 332 1008 q 240 985 267 1008 q 213 913 214 961 l 182 913 m 265 1131 q 253 1136 258 1131 q 247 1149 247 1142 l 247 1242 q 265 1260 247 1260 l 292 1260 q 310 1242 310 1260 l 310 1149 q 292 1131 310 1131 l 265 1131 m 536 1131 q 522 1136 528 1131 q 517 1149 517 1142 l 517 1242 q 536 1260 517 1260 l 561 1260 q 581 1242 581 1260 l 581 1149 q 575 1135 581 1140 q 561 1131 569 1131 l 536 1131 z "},"ȭ":{"ha":803,"x_min":92,"x_max":711,"o":"m 400 -8 q 227 22 293 -8 q 126 135 161 53 q 92 371 92 218 q 126 606 92 525 q 227 717 161 688 q 400 747 293 747 q 574 717 507 747 q 676 606 640 688 q 711 371 711 524 q 676 135 711 217 q 574 22 640 53 q 400 -8 507 -8 m 400 40 q 543 64 490 40 q 625 159 596 88 q 654 371 654 231 q 625 582 654 511 q 543 676 596 653 q 400 699 490 699 q 258 676 310 699 q 177 582 206 653 q 149 371 149 511 q 177 159 149 231 q 258 64 206 88 q 400 40 310 40 m 221 1201 l 576 1201 l 576 1167 l 221 1167 l 221 1201 m 172 913 q 210 1012 174 981 q 297 1043 247 1043 q 354 1030 328 1043 q 419 992 381 1017 q 478 958 457 968 q 521 947 499 947 q 592 973 564 947 q 619 1044 619 999 l 650 1044 q 615 949 649 985 q 521 913 581 913 q 468 925 493 913 q 406 961 443 938 q 345 997 368 986 q 297 1008 322 1008 q 231 985 257 1008 q 203 913 204 961 l 172 913 z "},"œ":{"ha":1313,"x_min":92,"x_max":1221,"o":"m 707 342 q 765 110 707 182 q 954 39 824 39 l 1206 39 l 1206 4 q 943 -8 1076 -8 q 773 35 838 -8 q 681 179 708 79 q 584 31 653 71 q 396 -8 515 -8 q 225 22 290 -8 q 126 135 160 53 q 92 371 92 218 q 126 606 92 525 q 227 717 161 688 q 400 747 293 747 q 585 709 517 747 q 681 567 653 671 q 767 704 706 661 q 936 747 828 747 q 1093 728 1032 747 q 1188 656 1154 708 q 1221 506 1221 603 q 1032 342 1221 342 l 707 342 m 938 701 q 799 668 849 701 q 728 567 749 635 q 707 385 707 499 l 1022 385 q 1131 410 1093 385 q 1168 508 1168 436 q 1143 632 1168 590 q 1069 688 1118 674 q 938 701 1021 701 m 400 39 q 543 63 490 39 q 625 158 596 86 q 654 371 654 229 q 625 583 654 511 q 543 677 596 654 q 400 700 490 700 q 258 677 310 700 q 177 583 206 654 q 149 371 149 511 q 177 158 149 229 q 258 63 206 86 q 400 39 310 39 z "},"p":{"ha":797,"x_min":119,"x_max":706,"o":"m 119 739 l 163 739 l 176 661 q 299 719 221 690 q 439 747 376 747 q 593 693 533 747 q 679 554 653 639 q 706 372 706 469 q 439 -8 706 -8 q 308 14 376 -8 q 176 74 239 36 l 176 -329 l 119 -329 l 119 739 m 429 42 q 649 372 649 42 q 618 556 649 483 q 538 664 588 629 q 431 699 489 699 q 302 679 361 699 q 176 625 243 660 l 176 114 q 429 42 310 42 z "},"ṗ":{"ha":797,"x_min":119,"x_max":706,"o":"m 119 739 l 163 739 l 176 661 q 299 719 221 690 q 439 747 376 747 q 593 693 533 747 q 679 554 653 639 q 706 372 706 469 q 439 -8 706 -8 q 308 14 376 -8 q 176 74 239 36 l 176 -329 l 119 -329 l 119 739 m 429 42 q 649 372 649 42 q 618 556 649 483 q 538 664 588 629 q 431 699 489 699 q 302 679 361 699 q 176 625 243 660 l 176 114 q 429 42 310 42 m 364 929 q 351 935 356 929 q 346 947 346 940 l 346 1040 q 364 1058 346 1058 l 390 1058 q 408 1040 408 1058 l 408 947 q 403 934 408 939 q 390 929 397 929 l 364 929 z "},"þ":{"ha":797,"x_min":119,"x_max":706,"o":"m 119 1060 l 176 1060 l 176 661 q 299 719 221 690 q 439 747 376 747 q 592 693 532 747 q 678 554 651 639 q 706 372 706 469 q 638 87 706 182 q 439 -8 569 -8 q 308 14 376 -8 q 176 74 239 36 l 176 -329 l 119 -329 l 119 1060 m 429 42 q 649 371 649 42 q 618 556 649 482 q 538 664 588 629 q 431 699 489 699 q 302 679 361 699 q 176 625 243 660 l 176 114 q 429 42 310 42 z "}}}
